<svg width="24" height="25" viewBox="0 0 24 25" fill="none" xmlns="http://www.w3.org/2000/svg">
<path d="M18.2609 7.7001H5.73913C5.22574 7.7001 4.8 7.33743 4.8 6.9001C4.8 6.46276 5.22574 6.1001 5.73913 6.1001H18.2609C18.7743 6.1001 19.2 6.46276 19.2 6.9001C19.2 7.33743 18.7743 7.7001 18.2609 7.7001Z" fill="#102880" style="fill:#102880;fill:color(display-p3 0.0627 0.1569 0.5020);fill-opacity:1;"/>
<path d="M18.2609 12.4999H5.73913C5.22574 12.4999 4.8 12.1372 4.8 11.6999C4.8 11.2626 5.22574 10.8999 5.73913 10.8999H18.2609C18.7743 10.8999 19.2 11.2626 19.2 11.6999C19.2 12.1372 18.7743 12.4999 18.2609 12.4999Z" fill="#102880" style="fill:#102880;fill:color(display-p3 0.0627 0.1569 0.5020);fill-opacity:1;"/>
<path d="M18.2609 17.3002H5.73913C5.22574 17.3002 4.8 16.9375 4.8 16.5002C4.8 16.0629 5.22574 15.7002 5.73913 15.7002H18.2609C18.7743 15.7002 19.2 16.0629 19.2 16.5002C19.2 16.9375 18.7743 17.3002 18.2609 17.3002Z" fill="#102880" style="fill:#102880;fill:color(display-p3 0.0627 0.1569 0.5020);fill-opacity:1;"/>
</svg>
