<svg width="17" height="17" viewBox="0 0 17 17" fill="none" xmlns="http://www.w3.org/2000/svg">
<path d="M12.5 5.06719C12.5 4.89038 12.4298 4.72081 12.3048 4.59578C12.1797 4.47076 12.0102 4.40052 11.8334 4.40052L6.50002 4.36719C6.32321 4.36719 6.15364 4.43743 6.02862 4.56245C5.90359 4.68747 5.83335 4.85704 5.83335 5.03385C5.83335 5.21067 5.90359 5.38023 6.02862 5.50526C6.15364 5.63028 6.32321 5.70052 6.50002 5.70052H10.2067L4.69335 11.2272C4.63087 11.2892 4.58127 11.3629 4.54743 11.4441C4.51358 11.5254 4.49615 11.6125 4.49615 11.7005C4.49615 11.7885 4.51358 11.8757 4.54743 11.9569C4.58127 12.0381 4.63087 12.1119 4.69335 12.1739C4.75533 12.2363 4.82906 12.2859 4.9103 12.3198C4.99154 12.3536 5.07868 12.3711 5.16669 12.3711C5.25469 12.3711 5.34183 12.3536 5.42307 12.3198C5.50431 12.2859 5.57804 12.2363 5.64002 12.1739L11.1667 6.64719V10.3672C11.1667 10.544 11.2369 10.7136 11.3619 10.8386C11.487 10.9636 11.6565 11.0339 11.8334 11.0339C12.0102 11.0339 12.1797 10.9636 12.3048 10.8386C12.4298 10.7136 12.5 10.544 12.5 10.3672V5.06719Z" fill="#102880" style="fill:#102880;fill:color(display-p3 0.0627 0.1569 0.5020);fill-opacity:1;"/>
</svg>
