<svg width="17" height="17" viewBox="0 0 17 17" fill="none" xmlns="http://www.w3.org/2000/svg">
<path d="M12.5 5.3333C12.5 5.15649 12.4297 4.98692 12.3047 4.8619C12.1797 4.73687 12.0101 4.66663 11.8333 4.66663L6.49996 4.6333C6.32315 4.6333 6.15358 4.70354 6.02855 4.82856C5.90353 4.95359 5.83329 5.12316 5.83329 5.29997C5.83329 5.47678 5.90353 5.64635 6.02855 5.77137C6.15358 5.8964 6.32315 5.96663 6.49996 5.96663H10.2066L4.69329 11.4933C4.63081 11.5553 4.58121 11.629 4.54737 11.7102C4.51352 11.7915 4.49609 11.8786 4.49609 11.9666C4.49609 12.0546 4.51352 12.1418 4.54737 12.223C4.58121 12.3043 4.63081 12.378 4.69329 12.44C4.75527 12.5025 4.829 12.552 4.91024 12.5859C4.99148 12.6197 5.07862 12.6372 5.16663 12.6372C5.25463 12.6372 5.34177 12.6197 5.42301 12.5859C5.50425 12.552 5.57798 12.5025 5.63996 12.44L11.1666 6.9133V10.6333C11.1666 10.8101 11.2369 10.9797 11.3619 11.1047C11.4869 11.2297 11.6565 11.3 11.8333 11.3C12.0101 11.3 12.1797 11.2297 12.3047 11.1047C12.4297 10.9797 12.5 10.8101 12.5 10.6333V5.3333Z" fill="white" style="fill:white;fill-opacity:1;"/>
</svg>
