<svg width="66" height="31" viewBox="0 0 66 31" fill="none" xmlns="http://www.w3.org/2000/svg">
<path d="M58 24.1166C57.7079 24.1172 57.4249 24.0155 57.2 23.8291C57.0734 23.7242 56.9688 23.5953 56.8921 23.4499C56.8154 23.3044 56.7681 23.1453 56.7531 22.9816C56.738 22.8179 56.7553 22.6528 56.8041 22.4958C56.8529 22.3388 56.9322 22.1929 57.0375 22.0666L62.6375 15.3666L57.2375 8.65413C57.1336 8.52627 57.0561 8.37915 57.0093 8.22122C56.9625 8.0633 56.9474 7.89768 56.9648 7.7339C56.9823 7.57011 57.0319 7.41138 57.1108 7.26684C57.1898 7.12229 57.2966 6.99478 57.425 6.89162C57.5543 6.77783 57.7058 6.69199 57.8698 6.63951C58.0339 6.58702 58.2071 6.56902 58.3784 6.58662C58.5498 6.60423 58.7157 6.65707 58.8657 6.74182C59.0156 6.82657 59.1465 6.94141 59.25 7.07912L65.2875 14.5791C65.4713 14.8028 65.5718 15.0833 65.5718 15.3729C65.5718 15.6624 65.4713 15.943 65.2875 16.1666L59.0375 23.6666C58.9121 23.8179 58.7528 23.9375 58.5725 24.0157C58.3923 24.0938 58.1961 24.1284 58 24.1166Z" fill="#A2A2A2" style="fill:#A2A2A2;fill:color(display-p3 0.6333 0.6333 0.6333);fill-opacity:1;"/>
</svg>
