<svg width="17" height="16" viewBox="0 0 17 16" fill="none" xmlns="http://www.w3.org/2000/svg">
<path d="M12.5 4.7C12.5 4.52319 12.4298 4.35362 12.3048 4.2286C12.1797 4.10357 12.0102 4.03333 11.8334 4.03333L6.50002 4C6.32321 4 6.15364 4.07024 6.02862 4.19526C5.90359 4.32029 5.83335 4.48986 5.83335 4.66667C5.83335 4.84348 5.90359 5.01305 6.02862 5.13807C6.15364 5.2631 6.32321 5.33333 6.50002 5.33333H10.2067L4.69335 10.86C4.63087 10.922 4.58127 10.9957 4.54743 11.0769C4.51358 11.1582 4.49615 11.2453 4.49615 11.3333C4.49615 11.4213 4.51358 11.5085 4.54743 11.5897C4.58127 11.671 4.63087 11.7447 4.69335 11.8067C4.75533 11.8692 4.82906 11.9187 4.9103 11.9526C4.99154 11.9864 5.07868 12.0039 5.16669 12.0039C5.25469 12.0039 5.34183 11.9864 5.42307 11.9526C5.50431 11.9187 5.57804 11.8692 5.64002 11.8067L11.1667 6.28V10C11.1667 10.1768 11.2369 10.3464 11.3619 10.4714C11.487 10.5964 11.6565 10.6667 11.8334 10.6667C12.0102 10.6667 12.1797 10.5964 12.3048 10.4714C12.4298 10.3464 12.5 10.1768 12.5 10V4.7Z" fill="white" style="fill:white;fill-opacity:1;"/>
</svg>
