<svg width="32" height="31" viewBox="0 0 32 31" fill="none" xmlns="http://www.w3.org/2000/svg">
<path d="M24 24.1166C23.7079 24.1172 23.4249 24.0155 23.2 23.8291C23.0734 23.7242 22.9688 23.5953 22.8921 23.4499C22.8154 23.3044 22.7681 23.1453 22.7531 22.9816C22.738 22.8179 22.7553 22.6528 22.8041 22.4958C22.8529 22.3388 22.9322 22.1929 23.0375 22.0666L28.6375 15.3666L23.2375 8.65413C23.1336 8.52627 23.0561 8.37915 23.0093 8.22122C22.9625 8.0633 22.9474 7.89768 22.9648 7.7339C22.9823 7.57011 23.0319 7.41138 23.1108 7.26684C23.1898 7.12229 23.2966 6.99478 23.425 6.89162C23.5543 6.77783 23.7058 6.69199 23.8698 6.63951C24.0339 6.58702 24.2071 6.56902 24.3784 6.58662C24.5498 6.60423 24.7157 6.65707 24.8657 6.74182C25.0156 6.82657 25.1465 6.94141 25.25 7.07912L31.2875 14.5791C31.4713 14.8028 31.5718 15.0833 31.5718 15.3729C31.5718 15.6624 31.4713 15.943 31.2875 16.1666L25.0375 23.6666C24.9121 23.8179 24.7528 23.9375 24.5725 24.0157C24.3923 24.0938 24.1961 24.1284 24 24.1166Z" fill="#A2A2A2" style="fill:#A2A2A2;fill:color(display-p3 0.6333 0.6333 0.6333);fill-opacity:1;"/>
</svg>
