<svg width="31" height="31" viewBox="0 0 31 31" fill="none" xmlns="http://www.w3.org/2000/svg">
<path d="M13 24.1166C12.7079 24.1172 12.4249 24.0155 12.2 23.8291C12.0734 23.7242 11.9688 23.5953 11.8921 23.4499C11.8154 23.3044 11.7681 23.1453 11.7531 22.9816C11.738 22.8179 11.7553 22.6528 11.8041 22.4958C11.8529 22.3388 11.9322 22.1929 12.0375 22.0666L17.6375 15.3666L12.2375 8.65413C12.1336 8.52627 12.0561 8.37915 12.0093 8.22122C11.9625 8.0633 11.9474 7.89768 11.9648 7.7339C11.9823 7.57011 12.0319 7.41138 12.1108 7.26684C12.1898 7.12229 12.2966 6.99478 12.425 6.89162C12.5543 6.77783 12.7058 6.69199 12.8698 6.63951C13.0339 6.58702 13.2071 6.56902 13.3784 6.58662C13.5498 6.60423 13.7157 6.65707 13.8657 6.74182C14.0156 6.82657 14.1465 6.94141 14.25 7.07912L20.2875 14.5791C20.4713 14.8028 20.5718 15.0833 20.5718 15.3729C20.5718 15.6624 20.4713 15.943 20.2875 16.1666L14.0375 23.6666C13.9121 23.8179 13.7528 23.9375 13.5725 24.0157C13.3923 24.0938 13.1961 24.1284 13 24.1166Z" fill="#A2A2A2" style="fill:#A2A2A2;fill:color(display-p3 0.6333 0.6333 0.6333);fill-opacity:1;"/>
</svg>
