<svg width="50" height="50" viewBox="0 0 50 50" fill="none" xmlns="http://www.w3.org/2000/svg">
<path d="M27.236 7.0061C26.6563 6.94536 26.1301 7.34486 26.059 7.92152C25.9869 8.50021 26.3968 9.02647 26.9744 9.09852C28.4058 9.27666 29.8042 9.78344 31.1316 10.3436C31.6741 10.569 32.2884 10.3148 32.5135 9.7814C32.739 9.2439 32.4878 8.62598 31.9513 8.39948C30.4447 7.76511 28.8578 7.20792 27.236 7.0061Z" fill="white" style="fill:white;fill-opacity:1;"/>
<path d="M39.0764 15.5697C39.5408 15.2175 39.6314 14.5553 39.2793 14.0919C38.2917 12.7913 37.1312 11.6308 35.8306 10.6432C35.3662 10.2932 34.7061 10.3807 34.3528 10.8461C34.0006 11.3095 34.0912 11.9717 34.5557 12.3239C35.7039 13.1951 36.7274 14.2186 37.5986 15.3668C37.952 15.8322 38.6131 15.9202 39.0764 15.5697Z" fill="white" style="fill:white;fill-opacity:1;"/>
<path d="M40.1411 17.4091C39.6046 17.6356 39.3533 18.2535 39.5788 18.791C40.139 20.1184 40.7139 21.587 40.8921 23.0184C40.9612 23.5777 41.4669 24.004 42.0691 23.9339C42.6468 23.8618 43.0566 23.3356 42.9845 22.7569C42.7827 21.135 42.1573 19.4778 41.523 17.9713C41.2965 17.4348 40.6776 17.1866 40.1411 17.4091Z" fill="white" style="fill:white;fill-opacity:1;"/>
<path d="M18.0415 8.39949C17.505 8.62606 17.2537 9.24391 17.4792 9.78141C17.7047 10.316 18.3199 10.5685 18.8611 10.3437C20.1885 9.78345 21.5869 9.27667 23.0183 9.09853C23.596 9.02648 24.0058 8.50023 23.9337 7.92153C23.8617 7.34487 23.3334 6.9453 22.7567 7.00611C21.1349 7.20793 19.548 7.76512 18.0415 8.39949Z" fill="white" style="fill:white;fill-opacity:1;"/>
<path d="M24.9963 42.9924C34.0211 42.9924 41.8692 36.1782 42.9844 27.2358C43.0564 26.6581 42.6466 26.1309 42.069 26.0588C41.4882 25.9939 40.963 26.3966 40.892 26.9742C39.9075 34.8643 32.9595 40.8835 24.9963 40.8835C16.2743 40.8835 9.10894 33.7181 9.10894 24.9961C9.10894 21.152 10.6342 17.411 13.1159 14.5538V14.9029C13.1159 15.4857 13.5876 15.9573 14.1704 15.9573C14.7532 15.9573 15.2249 15.4857 15.2249 14.9029V11.9207C15.2249 11.3378 14.7532 10.8662 14.1704 10.8662H11.1872C10.6044 10.8662 10.1328 11.3378 10.1328 11.9207C10.1328 12.5035 10.6044 12.9744 11.1872 12.9744H11.6951C8.77425 16.2403 7 20.55 7 24.9961C7 34.8807 15.1117 42.9924 24.9963 42.9924Z" fill="white" style="fill:white;fill-opacity:1;"/>
<path d="M12.2725 24.9964C12.2725 31.9741 18.0188 37.7204 24.9964 37.7204C31.9741 37.7204 37.7204 31.9741 37.7204 24.9964C37.7204 18.0188 31.9741 12.2725 24.9964 12.2725C18.0188 12.2725 12.2725 18.0188 12.2725 24.9964ZM26.0509 20.7785C26.0509 20.1957 26.5225 19.7241 27.1054 19.7241C27.6882 19.7241 28.1599 20.1957 28.1599 20.7785V23.942H30.2688V20.7785C30.2688 20.1957 30.7404 19.7241 31.3233 19.7241C31.9061 19.7241 32.3777 20.1957 32.3777 20.7785V29.2143C32.3777 29.7972 31.9061 30.2688 31.3233 30.2688C30.7404 30.2688 30.2688 29.7972 30.2688 29.2143V26.0509H27.1054C26.5225 26.0509 26.0509 25.5793 26.0509 24.9964V20.7785ZM20.7785 21.833C20.1968 21.833 19.7241 22.3057 19.7241 22.8875C19.7241 23.4703 19.2524 23.942 18.6696 23.942C18.0868 23.942 17.6151 23.4703 17.6151 22.8875C17.6151 21.1431 19.0342 19.7241 20.7785 19.7241C22.5229 19.7241 23.942 21.1431 23.942 22.8875C23.942 24.9964 22.5384 26.0489 21.4108 26.8943C20.7861 27.3631 20.3413 27.7381 20.0588 28.1599H22.8875C23.4703 28.1599 23.942 28.6315 23.942 29.2143C23.942 29.7972 23.4703 30.2688 22.8875 30.2688H18.6696C18.0868 30.2688 17.6151 29.7972 17.6151 29.2143C17.6151 27.1054 19.0187 26.0529 20.1463 25.2075C21.2235 24.3992 21.833 23.8925 21.833 22.8875C21.833 22.3056 21.3604 21.833 20.7785 21.833Z" fill="white" style="fill:white;fill-opacity:1;"/>
</svg>
