<svg width="15" height="15" viewBox="0 0 15 15" fill="none" xmlns="http://www.w3.org/2000/svg">
<g clip-path="url(#clip0_1359_1025)">
<path d="M2.92969 9.4707H4.6875C5.01111 9.4707 5.27344 9.20838 5.27344 8.88477C5.27344 8.56115 5.01111 8.29883 4.6875 8.29883H2.92969C2.60607 8.29883 2.34375 8.56115 2.34375 8.88477C2.34375 9.20838 2.60607 9.4707 2.92969 9.4707Z" fill="#102880" style="fill:#102880;fill:color(display-p3 0.0627 0.1569 0.5020);fill-opacity:1;"/>
<path d="M2.92969 7.12695H4.6875C5.01111 7.12695 5.27344 6.86463 5.27344 6.54102C5.27344 6.2174 5.01111 5.95508 4.6875 5.95508H2.92969C2.60607 5.95508 2.34375 6.2174 2.34375 6.54102C2.34375 6.86463 2.60607 7.12695 2.92969 7.12695Z" fill="#102880" style="fill:#102880;fill:color(display-p3 0.0627 0.1569 0.5020);fill-opacity:1;"/>
<path d="M6.37036 8.88468C6.37036 9.2083 6.63269 9.47062 6.9563 9.47062C8.18152 9.47062 9.33342 8.99349 10.1998 8.12712L14.4847 3.84175C15.1717 3.15483 15.1718 2.04287 14.4847 1.35583C13.7994 0.670454 12.6842 0.670454 11.9988 1.35583L7.71386 5.6412C6.84752 6.50759 6.37036 7.65946 6.37036 8.88468ZM12.8275 2.18449C13.0559 1.95603 13.4277 1.95603 13.6561 2.18449C13.8851 2.41341 13.8852 2.78411 13.6561 3.01312L9.37112 7.29849C8.88131 7.78833 8.26886 8.11104 7.603 8.23798C7.72994 7.57215 8.05268 6.9597 8.54246 6.46986L12.8275 2.18449Z" fill="#102880" style="fill:#102880;fill:color(display-p3 0.0627 0.1569 0.5020);fill-opacity:1;"/>
<path d="M1.75781 14.1582C2.1907 14.1582 2.60678 13.9994 2.92945 13.7108L3.73942 12.9863H9.72656C11.342 12.9863 12.6562 11.6721 12.6562 10.0566V8.7423C12.6562 8.41868 12.3939 8.15636 12.0703 8.15636C11.7467 8.15636 11.4844 8.41868 11.4844 8.7423V10.0566C11.4844 11.0259 10.6958 11.8145 9.72656 11.8145H3.51562C3.37148 11.8145 3.23241 11.8676 3.12498 11.9637L2.14828 12.8373C2.04079 12.9334 1.90213 12.9863 1.75781 12.9863C1.43473 12.9863 1.17188 12.7235 1.17188 12.4004V5.36914C1.17188 4.39988 1.96043 3.61133 2.92969 3.61133L7.84421 3.5C8.16782 3.5 8.43015 3.349 8.43015 3.02539C8.43015 2.70178 8.16782 2.43945 7.84421 2.43945H2.92969C1.31423 2.43945 0 3.75371 0 5.36914V12.4004C0 13.3696 0.788555 14.1582 1.75781 14.1582Z" fill="#102880" style="fill:#102880;fill:color(display-p3 0.0627 0.1569 0.5020);fill-opacity:1;"/>
</g>
<defs>
<clipPath id="clip0_1359_1025">
<rect width="15" height="15" fill="white" style="fill:white;fill-opacity:1;"/>
</clipPath>
</defs>
</svg>
