<svg width="15" height="15" viewBox="0 0 15 15" fill="none" xmlns="http://www.w3.org/2000/svg">
<g clip-path="url(#clip0_1359_1010)">
<path d="M14.0701 10.7806C13.9617 10.5397 13.7879 10.334 13.5684 10.1868L11.4926 8.71337C11.3286 8.5981 11.1529 8.50051 10.9683 8.42224C10.7743 8.3353 10.5622 8.2962 10.3499 8.3082C10.1376 8.3202 9.93125 8.38296 9.74823 8.4912C9.54022 8.60596 9.3507 8.75144 9.18609 8.92272L8.73565 9.34204C8.477 9.195 8.23457 9.02111 8.01238 8.82324C7.72738 8.58154 7.41973 8.29711 7.05047 7.93395C6.76178 7.63976 6.47186 7.32421 6.16729 6.97145C5.97686 6.75638 5.80571 6.52498 5.65582 6.27992C5.65154 6.2671 5.64605 6.25305 5.63995 6.2372L6.06598 5.79407C6.22832 5.63628 6.3691 5.45774 6.48468 5.26307C6.61394 5.05683 6.68306 4.8186 6.68426 4.5752C6.68154 4.38253 6.64002 4.19238 6.56219 4.01612C6.48323 3.8276 6.38178 3.6493 6.26006 3.48511L4.81292 1.4447C4.6613 1.22529 4.45343 1.05073 4.21111 0.939336C3.98979 0.834698 3.74793 0.780695 3.50312 0.781254C3.19875 0.786224 2.89845 0.852076 2.61993 0.974931C2.3414 1.09779 2.09029 1.27516 1.8814 1.49659C1.51775 1.83331 1.23358 2.24675 1.04953 2.70691C0.875937 3.14637 0.788083 3.61501 0.790706 4.0875C0.803121 4.85512 0.968711 5.61252 1.27776 6.31529C1.6212 7.10065 2.04957 7.84605 2.55523 8.53819C3.09943 9.28264 3.69886 9.9851 4.34844 10.6396C5.00424 11.2895 5.70748 11.8897 6.45233 12.4353C7.14861 12.9484 7.90091 13.3809 8.69476 13.7243C9.39413 14.0374 10.1497 14.2056 10.9158 14.2187C11.3947 14.2212 11.8694 14.1286 12.3123 13.9465C12.7705 13.7555 13.1791 13.4624 13.5068 13.0895C13.7107 12.8655 13.8796 12.612 14.0079 12.3376C14.1399 12.0625 14.2088 11.7614 14.2093 11.4562C14.2076 11.2241 14.1603 10.9946 14.0701 10.7806ZM13.1601 11.9372C13.0713 12.128 12.954 12.3042 12.8122 12.4597C12.5772 12.7289 12.2839 12.941 11.9546 13.0798C11.4824 13.2385 10.9832 13.3009 10.4864 13.2635C9.98959 13.2261 9.50534 13.0895 9.06219 12.8619C8.33382 12.5462 7.64359 12.149 7.00469 11.6778C6.29898 11.161 5.63268 10.5924 5.01128 9.9768C4.39687 9.35761 3.82988 8.69311 3.31512 7.9889C2.85038 7.35421 2.45678 6.67038 2.14141 5.94971C1.88137 5.36258 1.7409 4.72952 1.72821 4.0875C1.72578 3.7333 1.79125 3.38191 1.92108 3.05235C2.05666 2.71712 2.26515 2.41627 2.53143 2.17161C2.65462 2.03467 2.80417 1.92398 2.97113 1.84616C3.13808 1.76835 3.31902 1.72502 3.50312 1.71875C3.61031 1.71842 3.71623 1.74198 3.81318 1.78772C3.90723 1.83068 3.98782 1.8984 4.04633 1.98365L5.49834 4.03077C5.57825 4.1382 5.64505 4.25479 5.69732 4.37805C5.72585 4.44015 5.74261 4.50699 5.74676 4.5752C5.7438 4.65138 5.71948 4.72519 5.67657 4.78821C5.59873 4.91643 5.50456 5.034 5.39642 5.13794L4.9295 5.62375C4.85243 5.69964 4.79155 5.79036 4.75053 5.89044C4.70951 5.99052 4.68921 6.09788 4.69085 6.20603C4.6921 6.31119 4.70855 6.41563 4.73968 6.51609L4.81718 6.70102C5.00116 7.01413 5.21474 7.30886 5.45499 7.58118C5.77604 7.95227 6.07874 8.28247 6.387 8.5968C6.77946 8.98255 7.10355 9.28162 7.40629 9.53858C7.6804 9.77938 7.9786 9.99128 8.29618 10.1709L8.46219 10.2441C8.61578 10.301 8.78218 10.3138 8.94265 10.2811C9.10312 10.2484 9.25127 10.1716 9.3704 10.0592L9.84708 9.58802C9.95264 9.4767 10.0745 9.38204 10.2084 9.30725C10.2645 9.26019 10.3347 9.233 10.4078 9.2299C10.481 9.22681 10.5532 9.248 10.6131 9.29017C10.734 9.34206 10.8492 9.4065 10.9567 9.48243L13.0301 10.9546C13.1051 11.0001 13.1659 11.0656 13.2058 11.1438C13.2485 11.2425 13.2709 11.3488 13.2718 11.4563C13.2711 11.623 13.2329 11.7873 13.1601 11.9372Z" fill="#102880" style="fill:#102880;fill:color(display-p3 0.0627 0.1569 0.5020);fill-opacity:1;"/>
</g>
<defs>
<clipPath id="clip0_1359_1010">
<rect width="15" height="15" fill="white" style="fill:white;fill-opacity:1;"/>
</clipPath>
</defs>
</svg>
