<svg width="62" height="62" viewBox="0 0 62 62" fill="none" xmlns="http://www.w3.org/2000/svg">
<path d="M36.6329 25.8877H35.2247C34.7083 25.8877 34.2859 26.3102 34.2859 26.8265C34.2859 27.3429 34.7083 27.7653 35.2247 27.7653H36.6329C37.1492 27.7653 37.5717 27.3429 37.5717 26.8265C37.5717 26.3102 37.1492 25.8877 36.6329 25.8877Z" fill="#A2A2A2" style="fill:#A2A2A2;fill:color(display-p3 0.6333 0.6333 0.6333);fill-opacity:1;"/>
<path d="M31 25.8877H23.9589C23.4425 25.8877 23.0201 26.3102 23.0201 26.8265C23.0201 27.3429 23.4425 27.7653 23.9589 27.7653H31C31.5163 27.7653 31.9388 27.3429 31.9388 26.8265C31.9388 26.3102 31.5163 25.8877 31 25.8877Z" fill="#A2A2A2" style="fill:#A2A2A2;fill:color(display-p3 0.6333 0.6333 0.6333);fill-opacity:1;"/>
<path d="M46.021 20.2559H23.9589C23.4425 20.2559 23.0201 20.6783 23.0201 21.1947C23.0201 21.711 23.4425 22.1335 23.9589 22.1335H46.021C46.5373 22.1335 46.9598 21.711 46.9598 21.1947C46.9598 20.6783 46.5373 20.2559 46.021 20.2559Z" fill="#A2A2A2" style="fill:#A2A2A2;fill:color(display-p3 0.6333 0.6333 0.6333);fill-opacity:1;"/>
<path d="M50.7151 10.8672H18.7954C16.2137 10.8672 14.1014 12.9795 14.1014 15.5613V25.8882H9.40729C7.85825 25.8882 6.59085 27.1556 6.59085 28.7046V43.7256C6.59085 45.2747 7.85825 46.5421 9.40729 46.5421H14.1014V51.2361C14.1014 51.6117 14.3361 51.9403 14.6646 52.0811C14.8055 52.128 14.8993 52.175 15.0402 52.175C15.2749 52.175 15.5096 52.0811 15.6504 51.9403L21.471 46.7768L21.518 46.7298C21.6588 46.589 21.8466 46.5421 22.1282 46.5421H28.2305C29.7795 46.5421 31.0469 45.2747 31.0469 43.7256V37.1539H31.8919C32.596 37.1539 33.2531 37.3886 33.7695 37.905L42.5474 46.0257C42.7351 46.1665 42.9699 46.2604 43.2046 46.2604C43.3454 46.2604 43.4393 46.2135 43.5801 46.1665C43.9087 46.0257 44.1434 45.6971 44.1434 45.3216V37.1539H50.7151C53.2968 37.1539 55.4091 35.0416 55.4091 32.4599V15.5613C55.4091 12.9795 53.2968 10.8672 50.7151 10.8672ZM29.1693 43.7256C29.1693 44.242 28.7468 44.6645 28.2305 44.6645H22.1282C21.3772 44.6645 20.72 44.8992 20.2036 45.3686L15.979 49.1238V45.6033C15.979 45.0869 15.5565 44.6645 15.0402 44.6645H9.40729C8.89094 44.6645 8.46848 44.242 8.46848 43.7256V28.7046C8.46848 28.1883 8.89094 27.7658 9.40729 27.7658H14.1014V32.4599C14.1014 35.0416 16.2137 37.1539 18.7954 37.1539H29.1693V43.7256ZM53.5315 32.4599C53.5315 34.0089 52.2641 35.2763 50.7151 35.2763H44.1434V32.4599C44.1434 31.9435 43.7209 31.5211 43.2046 31.5211C42.6882 31.5211 42.2657 31.9435 42.2657 32.4599V43.1623L35.0838 36.4968C34.2389 35.6988 33.1123 35.2763 31.8919 35.2763H18.7954C17.2464 35.2763 15.979 34.0089 15.979 32.4599V15.5613C15.979 14.0122 17.2464 12.7448 18.7954 12.7448H50.7151C52.2641 12.7448 53.5315 14.0122 53.5315 15.5613V32.4599Z" fill="#A2A2A2" style="fill:#A2A2A2;fill:color(display-p3 0.6333 0.6333 0.6333);fill-opacity:1;"/>
</svg>
