<svg width="62" height="62" viewBox="0 0 62 62" fill="none" xmlns="http://www.w3.org/2000/svg">
<path d="M25.021 34.4613L22.3637 33.1924L20.1202 38.7314C20.1132 38.7489 20.1064 38.7666 20.1006 38.7843C19.8157 39.639 19.879 40.4157 20.2793 40.9705C20.6262 41.4521 21.184 41.7174 21.8499 41.7174H21.8502C22.1654 41.7174 22.5042 41.6577 22.8569 41.5401C22.8749 41.5343 22.8926 41.5278 22.9098 41.5208L28.45 39.2777L27.1811 36.6207C26.8416 35.9104 25.7314 34.8004 25.021 34.4613Z" fill="#4F4F4F" style="fill:#4F4F4F;fill:color(display-p3 0.3083 0.3083 0.3083);fill-opacity:1;"/>
<path d="M46.1993 16.917L28.45 34.5125C28.7447 34.8723 28.99 35.2366 29.1512 35.5707L33.6566 44.9231C34.2618 46.1795 35.0598 46.367 35.4813 46.367H35.4815C35.8582 46.367 36.7887 46.2046 37.2948 44.6996L46.0967 18.5228C46.2939 17.9358 46.3266 17.3854 46.1993 16.917Z" fill="#4F4F4F" style="fill:#4F4F4F;fill:color(display-p3 0.3083 0.3083 0.3083);fill-opacity:1;"/>
<path d="M26.6659 33.1922L44.725 15.4438C44.5357 15.3933 44.3326 15.3672 44.1187 15.3672C43.7918 15.3672 43.4412 15.4279 43.076 15.5476L16.2112 24.3483C14.7899 24.8141 14.5308 25.6271 14.5029 26.0702C14.4749 26.5134 14.63 27.3516 15.9818 27.9859L25.5801 32.491C25.9228 32.6522 26.2966 32.8976 26.6659 33.1922Z" fill="#4F4F4F" style="fill:#4F4F4F;fill:color(display-p3 0.3083 0.3083 0.3083);fill-opacity:1;"/>
</svg>
