<svg width="62" height="62" viewBox="0 0 62 62" fill="none" xmlns="http://www.w3.org/2000/svg">
<path d="M46.6603 44.3672H15.3397C14.3216 44.366 13.3456 43.9614 12.6258 43.2421C11.9059 42.5228 11.5011 41.5476 11.5 40.5305V21.2039C11.5011 20.1867 11.9059 19.2115 12.6258 18.4922C13.3456 17.773 14.3216 17.3684 15.3397 17.3672H46.6603C47.6784 17.3684 48.6544 17.773 49.3742 18.4922C50.0941 19.2115 50.4989 20.1867 50.5 21.2039V40.5305C50.4989 41.5476 50.0941 42.5228 49.3742 43.2421C48.6544 43.9614 47.6784 44.366 46.6603 44.3672ZM15.3397 18.8335C14.7107 18.8342 14.1077 19.0842 13.663 19.5286C13.2183 19.973 12.9682 20.5755 12.9676 21.2039V40.5305C12.9682 41.1589 13.2183 41.7614 13.663 42.2058C14.1077 42.6502 14.7107 42.9002 15.3397 42.9008H46.6603C47.2893 42.9002 47.8923 42.6502 48.337 42.2058C48.7817 41.7614 49.0318 41.1589 49.0324 40.5305V21.2039C49.0318 20.5755 48.7817 19.973 48.337 19.5286C47.8923 19.0842 47.2893 18.8342 46.6603 18.8335H15.3397Z" fill="#4F4F4F" style="fill:#4F4F4F;fill:color(display-p3 0.3083 0.3083 0.3083);fill-opacity:1;"/>
<path d="M30.9996 34.3672C30.8175 34.3673 30.6416 34.3016 30.505 34.1826L12.5 18.4747L13.4888 17.3672L30.9996 32.6453L48.5112 17.369L49.5 18.4766L31.4949 34.1844C31.358 34.3032 31.1818 34.3682 30.9996 34.3672Z" fill="#4F4F4F" style="fill:#4F4F4F;fill:color(display-p3 0.3083 0.3083 0.3083);fill-opacity:1;"/>
<path d="M12.4861 41.4824L24.3309 27.9865L25.4312 28.9522L13.5864 42.4481L12.4861 41.4824Z" fill="#4F4F4F" style="fill:#4F4F4F;fill:color(display-p3 0.3083 0.3083 0.3083);fill-opacity:1;"/>
<path d="M36.6061 28.9385L37.7064 27.9728L49.5515 41.4689L48.4511 42.4347L36.6061 28.9385Z" fill="#4F4F4F" style="fill:#4F4F4F;fill:color(display-p3 0.3083 0.3083 0.3083);fill-opacity:1;"/>
</svg>
