<svg width="15" height="15" viewBox="0 0 15 15" fill="none" xmlns="http://www.w3.org/2000/svg">
<path d="M7.34377 11.8749C7.34377 11.9992 7.29439 12.1184 7.20648 12.2064C7.11857 12.2943 6.99934 12.3437 6.87502 12.3437H3.12502C2.80836 12.3804 2.4875 12.345 2.18644 12.2402C1.88538 12.1354 1.61191 11.9638 1.3865 11.7384C1.16109 11.513 0.98956 11.2395 0.884753 10.9385C0.779946 10.6374 0.74457 10.3166 0.781273 9.9999V4.3749C0.74457 4.05824 0.779946 3.73738 0.884753 3.43632C0.98956 3.13525 1.16109 2.86179 1.3865 2.63638C1.61191 2.41096 1.88538 2.23944 2.18644 2.13463C2.4875 2.02982 2.80836 1.99445 3.12502 2.03115H10.625C10.9417 1.99445 11.2625 2.02982 11.5636 2.13463C11.8647 2.23944 12.1381 2.41096 12.3635 2.63638C12.589 2.86179 12.7605 3.13525 12.8653 3.43632C12.9701 3.73738 13.0055 4.05824 12.9688 4.3749V6.2499C12.9688 6.37422 12.9194 6.49345 12.8315 6.58136C12.7436 6.66926 12.6243 6.71865 12.5 6.71865C12.3757 6.71865 12.2565 6.66926 12.1686 6.58136C12.0807 6.49345 12.0313 6.37422 12.0313 6.2499V4.3749C12.0313 3.38928 11.6106 2.96865 10.625 2.96865H3.12502C2.1394 2.96865 1.71877 3.38928 1.71877 4.3749V9.9999C1.71877 10.9855 2.1394 11.4062 3.12502 11.4062H6.87502C6.99934 11.4062 7.11857 11.4555 7.20648 11.5434C7.29439 11.6314 7.34377 11.7506 7.34377 11.8749ZM10.6913 4.72428C10.6552 4.67444 10.6096 4.63222 10.5571 4.60005C10.5046 4.56788 10.4463 4.54639 10.3855 4.53681C10.3247 4.52723 10.2626 4.52975 10.2028 4.54422C10.143 4.55869 10.0866 4.58484 10.0369 4.62115L6.96627 6.85365C6.93973 6.87287 6.90779 6.88321 6.87502 6.88321C6.84225 6.88321 6.81032 6.87287 6.78377 6.85365L3.71315 4.62115C3.66341 4.58495 3.60703 4.55891 3.54723 4.5445C3.48742 4.5301 3.42537 4.52761 3.3646 4.53719C3.30384 4.54676 3.24556 4.56821 3.19308 4.60031C3.14061 4.63242 3.09497 4.67454 3.05877 4.72428C3.02258 4.77401 2.99653 4.83039 2.98213 4.8902C2.96772 4.95 2.96523 5.01206 2.97481 5.07282C2.98439 5.13359 3.00584 5.19187 3.03794 5.24434C3.07004 5.29682 3.11216 5.34245 3.1619 5.37865L6.2319 7.61178C6.41858 7.7482 6.64381 7.82172 6.87502 7.82172C7.10624 7.82172 7.33147 7.7482 7.51815 7.61178L10.5881 5.37865C10.638 5.34253 10.6802 5.29693 10.7124 5.24446C10.7445 5.19199 10.766 5.13368 10.7756 5.07288C10.7852 5.01208 10.7827 4.94999 10.7682 4.89017C10.7537 4.83035 10.7276 4.77397 10.6913 4.72428ZM14.2188 9.30115C14.2188 9.43579 14.1922 9.56912 14.1405 9.69344C14.0888 9.81776 14.013 9.93062 13.9175 10.0255L10.47 13.4568C10.3822 13.5443 10.2634 13.5935 10.1394 13.5937H8.75002C8.6257 13.5937 8.50647 13.5443 8.41857 13.4564C8.33066 13.3684 8.28127 13.2492 8.28127 13.1249V11.7362C8.28116 11.6747 8.29319 11.6139 8.31668 11.5572C8.34017 11.5004 8.37466 11.4489 8.41815 11.4055L11.85 7.9574C11.9448 7.86172 12.0576 7.78582 12.182 7.73411C12.3063 7.68239 12.4397 7.65589 12.5744 7.65615C12.7089 7.65567 12.8422 7.68195 12.9664 7.73346C13.0907 7.78496 13.2034 7.86066 13.2981 7.95615L13.9175 8.57553C14.0133 8.67051 14.0892 8.78357 14.1409 8.90813C14.1926 9.03269 14.2191 9.16628 14.2188 9.30115ZM12.5138 8.61928L12.1181 9.01678L12.8581 9.75678L13.2556 9.36115C13.264 9.35304 13.2705 9.34331 13.2749 9.33256C13.2793 9.32181 13.2815 9.31027 13.2813 9.29865C13.2814 9.28705 13.2792 9.27553 13.2748 9.26479C13.2704 9.25405 13.2639 9.24431 13.2556 9.23615L12.6369 8.6174C12.6288 8.60902 12.6191 8.60242 12.6083 8.59801C12.5976 8.5936 12.586 8.59147 12.5744 8.59178C12.563 8.59215 12.5518 8.59477 12.5413 8.59949C12.5309 8.60421 12.5216 8.61093 12.5138 8.61928ZM12.1938 10.418L11.4569 9.68115L9.21877 11.9312V12.6562H9.94565L12.1938 10.418Z" fill="#102880" style="fill:#102880;fill:color(display-p3 0.0627 0.1569 0.5020);fill-opacity:1;"/>
</svg>
