<svg width="50" height="50" viewBox="0 0 50 50" fill="none" xmlns="http://www.w3.org/2000/svg">
<path d="M24.3466 32.0125L20.7778 43.7427L18.7455 38.3284C18.6986 38.2034 18.5939 38.1072 18.4632 38.0693C18.3326 38.031 18.1912 38.0559 18.0818 38.1355L13.3525 41.5852L17.145 29.1182C17.3608 29.1958 17.5554 29.2869 17.7143 29.3999C18.1297 29.6953 18.4607 30.2483 18.8112 30.8333C19.3206 31.6833 19.8472 32.5625 20.7678 32.8547C20.9749 32.9204 21.1847 32.949 21.3966 32.949C22.0863 32.949 22.7958 32.6482 23.4868 32.355C23.7731 32.2336 24.0633 32.1106 24.3466 32.0125Z" fill="white" style="fill:white;fill-opacity:1;"/>
<path d="M37.2807 41.5852L32.5515 38.1355C32.442 38.0559 32.3006 38.0313 32.17 38.0693C32.0393 38.1074 31.9347 38.2034 31.8877 38.3284L29.8555 43.7427L26.2871 32.0127C26.5704 32.1106 26.8607 32.2339 27.1462 32.355C28.0498 32.738 28.9841 33.1345 29.8652 32.8547C30.7858 32.5627 31.3124 31.6833 31.8218 30.8333C32.1722 30.2483 32.5033 29.6956 32.9187 29.3999C33.0778 29.2866 33.2724 29.1956 33.488 29.1182L37.2807 41.5852Z" fill="white" style="fill:white;fill-opacity:1;"/>
<path d="M28.8429 18.2273L27.1474 19.7053C27.0312 19.8066 26.98 19.9612 27.013 20.1101L27.4954 22.2798L25.5331 21.1606C25.3987 21.0837 25.2323 21.0837 25.0979 21.1606L23.1356 22.2798L23.618 20.1101C23.651 19.9612 23.5997 19.8066 23.4836 19.7053L21.7881 18.2273L24.0487 18.0054C24.2035 17.99 24.3382 17.8945 24.4009 17.7551L25.3155 15.7227L26.23 17.7551C26.293 17.8945 26.4274 17.99 26.5823 18.0054L28.8429 18.2273Z" fill="white" style="fill:white;fill-opacity:1;"/>
<path d="M38.0127 17.2629C37.5188 16.7209 37.0079 16.1606 36.7978 15.5273C36.5775 14.8643 36.6527 14.0964 36.7249 13.354C36.8078 12.5049 36.886 11.7031 36.5233 11.2161C36.1545 10.7207 35.3441 10.5459 34.4863 10.3606C33.7453 10.2004 32.9794 10.0349 32.4098 9.62988C31.8482 9.23047 31.4555 8.57471 31.0756 7.94043C30.6281 7.1936 30.2057 6.48853 29.5979 6.29565C29.0273 6.11475 28.2804 6.43164 27.4892 6.76685C26.78 7.06763 26.0463 7.37866 25.3163 7.37866C24.5864 7.37866 23.8527 7.06763 23.1434 6.76685C22.5114 6.49878 21.9074 6.24268 21.3992 6.24268C21.2713 6.24268 21.1492 6.25903 21.0345 6.29541C20.4267 6.48828 20.0043 7.1936 19.5569 7.94019C19.1769 8.57446 18.7842 9.23023 18.2226 9.62964C17.653 10.0347 16.8868 10.2002 16.1461 10.3604C15.288 10.5457 14.4779 10.7205 14.1091 11.2158C13.7462 11.7029 13.8246 12.5049 13.9075 13.3538C13.98 14.0962 14.0549 14.864 13.8346 15.5271C13.6243 16.1604 13.1134 16.7207 12.6197 17.2627C12.0254 17.9148 11.4644 18.5305 11.4644 19.1733C11.4644 19.8162 12.0254 20.4319 12.6197 21.084C13.1136 21.626 13.6245 22.1863 13.8346 22.8193C14.0549 23.4827 13.9797 24.2505 13.9075 24.9929C13.8246 25.8418 13.7464 26.6438 14.1091 27.1309C14.4779 27.6262 15.2883 27.801 16.1461 27.9863C16.4184 28.0452 16.6942 28.1045 16.9623 28.1765C17.4237 28.3003 17.8624 28.4607 18.2226 28.7168C18.7842 29.116 19.1769 29.772 19.5569 30.406C20.0043 31.1531 20.4267 31.8584 21.0345 32.0513C21.6048 32.2319 22.352 31.9153 23.1432 31.5798C23.721 31.3347 24.3151 31.083 24.9096 30.998C25.0453 30.9788 25.1807 30.968 25.3161 30.968C25.4457 30.968 25.5756 30.9778 25.7053 30.9956C26.3061 31.0781 26.9057 31.3325 27.489 31.5798C28.2801 31.9155 29.0273 32.2324 29.5977 32.0513C30.2055 31.8584 30.6279 31.1528 31.0753 30.406C31.4553 29.772 31.848 29.116 32.4096 28.7168C32.7698 28.4607 33.2085 28.3001 33.6699 28.1765C33.9379 28.1045 34.2137 28.0452 34.486 27.9863C35.3441 27.801 36.1543 27.6262 36.523 27.1309C36.886 26.6438 36.8076 25.8416 36.7246 24.9929C36.6522 24.2505 36.5772 23.4827 36.7976 22.8193C37.0079 22.1863 37.5188 21.626 38.0124 21.084C38.6065 20.4319 39.1678 19.8162 39.1678 19.1733C39.1678 18.5305 38.6067 17.915 38.0127 17.2629ZM31.2709 24.9932C29.6801 26.5476 27.5657 27.4036 25.3161 27.4036C23.0665 27.4036 20.9521 26.5476 19.3612 24.9932C17.7707 23.4385 16.8946 21.3718 16.8946 19.1736C16.8946 16.9751 17.7707 14.9082 19.3612 13.354C20.9521 11.7996 23.0665 10.9434 25.3161 10.9434C27.5657 10.9434 29.6801 11.7996 31.2709 13.354C32.8615 14.9084 33.7376 16.9751 33.7376 19.1736C33.7376 21.3718 32.8615 23.4385 31.2709 24.9932Z" fill="white" style="fill:white;fill-opacity:1;"/>
<path d="M25.3159 11.7876C21.1485 11.7876 17.7583 15.1008 17.7583 19.1736C17.7583 23.2459 21.1485 26.5593 25.3159 26.5593C29.4834 26.5593 32.8736 23.2461 32.8736 19.1736C32.8736 15.1008 29.4834 11.7876 25.3159 11.7876ZM30.1514 18.2185L27.911 20.1719L28.5488 23.0386C28.5853 23.2024 28.5191 23.3716 28.3807 23.47C28.3052 23.5234 28.2163 23.5505 28.1269 23.5505C28.0519 23.5505 27.9765 23.5315 27.909 23.4929L25.3159 22.0142L22.7229 23.4929C22.575 23.5774 22.3896 23.5684 22.2512 23.47C22.1128 23.3716 22.0466 23.2024 22.0831 23.0386L22.7209 20.1719L20.4805 18.2185C20.3529 18.1072 20.3044 17.9321 20.3574 17.7732C20.4103 17.6138 20.5545 17.5005 20.7249 17.4834L23.7121 17.1902L24.9205 14.5044C24.9897 14.3511 25.1446 14.2522 25.3159 14.2522C25.4873 14.2522 25.6425 14.3511 25.7114 14.5044L26.9198 17.1902L29.907 17.4834C30.0774 17.5002 30.2216 17.6138 30.2745 17.7732C30.3275 17.9321 30.2793 18.1069 30.1514 18.2185Z" fill="white" style="fill:white;fill-opacity:1;"/>
</svg>
