<svg width="24" height="24" viewBox="0 0 24 24" fill="none" xmlns="http://www.w3.org/2000/svg">
<path fill-rule="evenodd" clip-rule="evenodd" d="M1.28613 8.69096V6.85711C1.28613 6.40245 1.46674 5.96642 1.78824 5.64492C2.10973 5.32343 2.54576 5.14282 3.00042 5.14282H21.0004C21.4551 5.14282 21.8911 5.32343 22.2126 5.64492C22.5341 5.96642 22.7147 6.40245 22.7147 6.85711V8.76425C22.7146 9.03343 22.6354 9.29663 22.4868 9.52107C22.3382 9.74551 22.1268 9.92125 21.879 10.0264C21.4895 10.1912 21.1576 10.4676 20.9249 10.8207C20.6921 11.1739 20.5691 11.5879 20.5712 12.0108C20.5733 12.4337 20.7005 12.8465 20.9367 13.1973C21.1729 13.5481 21.5076 13.8211 21.8987 13.9821C22.1401 14.0817 22.3465 14.2506 22.4918 14.4676C22.6371 14.6846 22.7146 14.9398 22.7147 15.201V17.1428C22.7147 17.5975 22.5341 18.0335 22.2126 18.355C21.8911 18.6765 21.4551 18.8571 21.0004 18.8571H3.00042C2.54576 18.8571 2.10973 18.6765 1.78824 18.355C1.46674 18.0335 1.28613 17.5975 1.28613 17.1428V15.3158C1.28613 14.7287 1.63028 14.196 2.16599 13.9547C2.54294 13.7851 2.86282 13.5101 3.08708 13.1629C3.31135 12.8157 3.43043 12.4111 3.42997 11.9977C3.42952 11.5844 3.30955 11.18 3.08453 10.8333C2.85951 10.4865 2.53903 10.2123 2.1617 10.0435C1.90098 9.9265 1.67964 9.73661 1.5243 9.49673C1.36897 9.25684 1.28626 8.97718 1.28613 8.69139M16.7147 9.85711C17.0557 9.85711 17.3827 9.72165 17.6238 9.48053C17.865 9.23941 18.0004 8.91239 18.0004 8.57139C18.0004 8.2304 17.865 7.90337 17.6238 7.66226C17.3827 7.42114 17.0557 7.28568 16.7147 7.28568C16.3737 7.28568 16.0467 7.42114 15.8056 7.66226C15.5644 7.90337 15.429 8.2304 15.429 8.57139C15.429 8.91239 15.5644 9.23941 15.8056 9.48053C16.0467 9.72165 16.3737 9.85711 16.7147 9.85711ZM16.7147 13.2857C17.0557 13.2857 17.3827 13.1502 17.6238 12.9091C17.865 12.668 18.0004 12.341 18.0004 12C18.0004 11.659 17.865 11.3319 17.6238 11.0908C17.3827 10.8497 17.0557 10.7143 16.7147 10.7143C16.3737 10.7143 16.0467 10.8497 15.8056 11.0908C15.5644 11.3319 15.429 11.659 15.429 12C15.429 12.341 15.5644 12.668 15.8056 12.9091C16.0467 13.1502 16.3737 13.2857 16.7147 13.2857ZM16.7147 16.7143C17.0557 16.7143 17.3827 16.5788 17.6238 16.3377C17.865 16.0966 18.0004 15.7695 18.0004 15.4285C18.0004 15.0875 17.865 14.7605 17.6238 14.5194C17.3827 14.2783 17.0557 14.1428 16.7147 14.1428C16.3737 14.1428 16.0467 14.2783 15.8056 14.5194C15.5644 14.7605 15.429 15.0875 15.429 15.4285C15.429 15.7695 15.5644 16.0966 15.8056 16.3377C16.0467 16.5788 16.3737 16.7143 16.7147 16.7143Z" fill="#4F4F4F" style="fill:#4F4F4F;fill:color(display-p3 0.3083 0.3083 0.3083);fill-opacity:1;"/>
</svg>
