<svg width="15" height="15" viewBox="0 0 15 15" fill="none" xmlns="http://www.w3.org/2000/svg">
<g clip-path="url(#clip0_1359_1045)">
<path d="M8.51272 14.9707H6.1059C5.70389 14.9707 5.37686 14.6443 5.37686 14.2431V8.825H3.97268C3.57066 8.825 3.24364 8.4985 3.24364 8.09738V5.77572C3.24364 5.37449 3.57066 5.0481 3.97268 5.0481H5.37686V3.8855C5.37686 2.73273 5.73955 1.75198 6.42559 1.04942C7.11472 0.343666 8.07779 -0.0292969 9.21068 -0.0292969L11.0462 -0.0263214C11.4476 -0.0256348 11.774 0.300751 11.774 0.701294V2.8569C11.774 3.25813 11.4471 3.58452 11.0452 3.58452L9.80935 3.58498C9.43244 3.58498 9.33647 3.66039 9.31594 3.68351C9.28212 3.72185 9.24187 3.83022 9.24187 4.12949V5.04799H10.9523C11.0811 5.04799 11.2059 5.07969 11.3131 5.13943C11.5443 5.2684 11.6881 5.51228 11.6881 5.77583L11.6872 8.0975C11.6872 8.4985 11.3602 8.82488 10.9582 8.82488H9.24187V14.2431C9.24187 14.6443 8.91473 14.9707 8.51272 14.9707ZM6.25795 14.0913H8.36067V8.43132C8.36067 8.16341 8.57911 7.94552 8.84742 7.94552H10.8061L10.8069 5.92747H8.84731C8.57899 5.92747 8.36067 5.70957 8.36067 5.44167V4.12949C8.36067 3.78593 8.39564 3.39523 8.65548 3.10158C8.96943 2.74658 9.46421 2.70561 9.80912 2.70561L10.8929 2.70515V0.852814L9.20999 0.850067C7.38935 0.850067 6.25795 2.01324 6.25795 3.8855V5.44167C6.25795 5.70946 6.03963 5.92747 5.77131 5.92747H4.12472V7.94552H5.77131C6.03963 7.94552 6.25795 8.16341 6.25795 8.43132V14.0913Z" fill="#102880" style="fill:#102880;fill:color(display-p3 0.0627 0.1569 0.5020);fill-opacity:1;"/>
</g>
<defs>
<clipPath id="clip0_1359_1045">
<rect width="15" height="15" fill="white" style="fill:white;fill-opacity:1;"/>
</clipPath>
</defs>
</svg>
