<svg width="15" height="16" viewBox="0 0 15 16" fill="none" xmlns="http://www.w3.org/2000/svg">
<g clip-path="url(#clip0_1359_873)">
<path d="M8.51272 15.8379H6.1059C5.70389 15.8379 5.37686 15.5115 5.37686 15.1103V9.69219H3.97268C3.57066 9.69219 3.24364 9.36569 3.24364 8.96457V6.64291C3.24364 6.24168 3.57066 5.91529 3.97268 5.91529H5.37686V4.75269C5.37686 3.59992 5.73955 2.61916 6.42559 1.91661C7.11472 1.21085 8.07779 0.837891 9.21068 0.837891L11.0462 0.840866C11.4476 0.841553 11.774 1.16794 11.774 1.56848V3.72409C11.774 4.12532 11.4471 4.45171 11.0452 4.45171L9.80935 4.45216C9.43244 4.45216 9.33647 4.52758 9.31594 4.5507C9.28212 4.58904 9.24187 4.69741 9.24187 4.99667V5.91518H10.9523C11.0811 5.91518 11.2059 5.94688 11.3131 6.00662C11.5443 6.13559 11.6881 6.37946 11.6881 6.64302L11.6872 8.96468C11.6872 9.36569 11.3602 9.69207 10.9582 9.69207H9.24187V15.1103C9.24187 15.5115 8.91473 15.8379 8.51272 15.8379ZM6.25795 14.9585H8.36067V9.29851C8.36067 9.0306 8.57911 8.81271 8.84742 8.81271H10.8061L10.8069 6.79466H8.84731C8.57899 6.79466 8.36067 6.57676 8.36067 6.30885V4.99667C8.36067 4.65312 8.39564 4.26242 8.65548 3.96877C8.96943 3.61377 9.46421 3.5728 9.80912 3.5728L10.8929 3.57234V1.72L9.20999 1.71725C7.38935 1.71725 6.25795 2.88043 6.25795 4.75269V6.30885C6.25795 6.57665 6.03963 6.79466 5.77131 6.79466H4.12472V8.81271H5.77131C6.03963 8.81271 6.25795 9.0306 6.25795 9.29851V14.9585Z" fill="white" style="fill:white;fill-opacity:1;"/>
</g>
<defs>
<clipPath id="clip0_1359_873">
<rect width="15" height="15" fill="white" style="fill:white;fill-opacity:1;" transform="translate(0 0.867188)"/>
</clipPath>
</defs>
</svg>
