<svg width="13" height="13" viewBox="0 0 13 13" fill="none" xmlns="http://www.w3.org/2000/svg">
<path d="M10.0976 3.20117H2.53801C2.15347 3.20117 1.84174 3.5129 1.84174 3.89744V4.68884C1.84174 4.74376 1.88627 4.78831 1.94121 4.78831H10.6944C10.7493 4.78831 10.7938 4.74378 10.7938 4.68884V3.89744C10.7938 3.5129 10.4821 3.20117 10.0976 3.20117ZM3.09721 4.21919C2.97325 4.21919 2.87278 4.11871 2.87278 3.99476C2.87278 3.87081 2.97327 3.77033 3.09721 3.77033C3.22116 3.77033 3.32165 3.87081 3.32165 3.99476C3.32166 4.11871 3.22118 4.21919 3.09721 4.21919ZM3.81674 4.21919C3.69277 4.21919 3.59231 4.11871 3.59231 3.99476C3.59231 3.87081 3.69279 3.77033 3.81674 3.77033C3.94069 3.77033 4.04117 3.87081 4.04117 3.99476C4.04119 4.11871 3.94069 4.21919 3.81674 4.21919ZM4.53626 4.21919C4.41231 4.21919 4.31183 4.11871 4.31183 3.99476C4.31183 3.87081 4.41231 3.77033 4.53626 3.77033C4.66023 3.77033 4.76069 3.87081 4.76069 3.99476C4.76069 4.11871 4.66021 4.21919 4.53626 4.21919Z" fill="url(#paint0_linear_1256_6084)" style=""/>
<path d="M10.6943 5.18652H1.94114C1.88623 5.18652 1.84167 5.23106 1.84167 5.28599V10.2467C1.84167 10.6312 2.15341 10.943 2.53794 10.943H10.0975C10.482 10.943 10.7938 10.6312 10.7938 10.2467V5.28599C10.7938 5.23106 10.7492 5.18652 10.6943 5.18652ZM4.95747 7.59035L4.61028 8.66177C4.55869 8.82112 4.34387 8.84973 4.2532 8.70725L3.9865 8.28804L3.71979 8.70728C3.62952 8.84908 3.41443 8.82151 3.36271 8.6618L3.01555 7.59039C2.93451 7.34039 3.31289 7.21734 3.39402 7.46775L3.61092 8.13716L3.81863 7.81067C3.89665 7.68805 4.07618 7.68783 4.15434 7.81067L4.36205 8.13716L4.57897 7.46773C4.66017 7.2172 5.0385 7.34041 4.95747 7.59035ZM7.28869 7.59035L6.94153 8.66177C6.88994 8.82109 6.67514 8.84975 6.58444 8.70725L6.31772 8.28807L6.05103 8.70728C5.96075 8.84908 5.74566 8.82151 5.69394 8.6618L5.34678 7.59039C5.26574 7.34039 5.64413 7.21734 5.72525 7.46775L5.94215 8.13716L6.14987 7.81067C6.22788 7.68805 6.40741 7.68783 6.48557 7.81067L6.69329 8.13716L6.91018 7.46775C6.99121 7.21767 7.36985 7.33997 7.28869 7.59035ZM9.61988 7.59035L9.27273 8.66177C9.22103 8.82137 9.00595 8.84915 8.91564 8.70725L8.64895 8.28804L8.38226 8.70725C8.29158 8.84971 8.07679 8.82114 8.02517 8.66177L7.67798 7.59035C7.59694 7.34032 7.97532 7.2173 8.05645 7.46771L8.27336 8.13715L8.48108 7.81066C8.5591 7.68804 8.73863 7.68781 8.81678 7.81066L9.0245 8.13715L9.2414 7.46773C9.32242 7.21767 9.70105 7.33997 9.61988 7.59035Z" fill="url(#paint1_linear_1256_6084)" style=""/>
<defs>
<linearGradient id="paint0_linear_1256_6084" x1="1.16213" y1="4.04093" x2="18.5974" y2="2.73997" gradientUnits="userSpaceOnUse">
<stop stop-color="#1354B4" style="stop-color:#1354B4;stop-color:color(display-p3 0.0734 0.3305 0.7077);stop-opacity:1;"/>
<stop offset="1" stop-color="#120086" style="stop-color:#120086;stop-color:color(display-p3 0.0706 0.0000 0.5255);stop-opacity:1;"/>
</linearGradient>
<linearGradient id="paint1_linear_1256_6084" x1="1.16207" y1="8.23226" x2="18.687" y2="7.87172" gradientUnits="userSpaceOnUse">
<stop stop-color="#1354B4" style="stop-color:#1354B4;stop-color:color(display-p3 0.0734 0.3305 0.7077);stop-opacity:1;"/>
<stop offset="1" stop-color="#120086" style="stop-color:#120086;stop-color:color(display-p3 0.0706 0.0000 0.5255);stop-opacity:1;"/>
</linearGradient>
</defs>
</svg>
