<svg width="13" height="13" viewBox="0 0 13 13" fill="none" xmlns="http://www.w3.org/2000/svg">
<path d="M6.77419 6.5638C6.49303 6.72409 6.16644 6.80883 5.82971 6.80883C5.49301 6.80883 5.16642 6.72409 4.88526 6.5638L0.254293 3.92357C0.2286 3.90892 0.20357 3.89365 0.179047 3.87795V8.20424C0.179047 8.70026 0.649752 9.09392 1.21941 9.09392H10.44C11.02 9.09392 11.4804 8.69139 11.4804 8.20424V3.87793C11.4558 3.89367 11.4307 3.90898 11.405 3.92365L6.77419 6.5638Z" fill="url(#paint0_linear_1256_6008)" style=""/>
<path d="M0.621608 3.16854L5.25256 6.30777C5.42787 6.4266 5.62877 6.48601 5.82968 6.48601C6.03061 6.48601 6.23154 6.42658 6.40684 6.30777L11.0378 3.16854C11.3149 2.9808 11.4804 2.6666 11.4804 2.32748C11.4804 1.74438 11.0138 1.27002 10.4404 1.27002H1.21905C0.645601 1.27004 0.179047 1.7444 0.179047 2.32804C0.179047 2.6666 0.344505 2.9808 0.621608 3.16854Z" fill="url(#paint1_linear_1256_6008)" style=""/>
<defs>
<linearGradient id="paint0_linear_1256_6008" x1="-0.678906" y1="6.63771" x2="21.4362" y2="6.00383" gradientUnits="userSpaceOnUse">
<stop stop-color="#1354B4" style="stop-color:#1354B4;stop-color:color(display-p3 0.0734 0.3305 0.7077);stop-opacity:1;"/>
<stop offset="1" stop-color="#120086" style="stop-color:#120086;stop-color:color(display-p3 0.0706 0.0000 0.5255);stop-opacity:1;"/>
</linearGradient>
<linearGradient id="paint1_linear_1256_6008" x1="-0.678906" y1="4.0298" x2="21.4362" y2="3.39592" gradientUnits="userSpaceOnUse">
<stop stop-color="#1354B4" style="stop-color:#1354B4;stop-color:color(display-p3 0.0734 0.3305 0.7077);stop-opacity:1;"/>
<stop offset="1" stop-color="#120086" style="stop-color:#120086;stop-color:color(display-p3 0.0706 0.0000 0.5255);stop-opacity:1;"/>
</linearGradient>
</defs>
</svg>
