<svg width="14" height="15" viewBox="0 0 14 15" fill="none" xmlns="http://www.w3.org/2000/svg">
<g clip-path="url(#clip0_1256_5447)">
<path d="M7.54907 2.0108L1.1819 1.04326C0.886422 0.996916 0.585155 1.07803 0.359204 1.26922C0.133253 1.4662 0 1.75009 0 2.04556V14.2527C0 14.5713 0.260712 14.8321 0.579361 14.8321H2.46228V11.7904C2.46228 11.2284 2.91419 10.7765 3.47617 10.7765H4.92457C5.48655 10.7765 5.93845 11.2284 5.93845 11.7904V14.8321H8.40073V3.01309C8.40073 2.51484 8.04153 2.09191 7.54907 2.0108ZM3.18649 9.47297H2.31744C2.07759 9.47297 1.88292 9.2783 1.88292 9.03845C1.88292 8.79859 2.07759 8.60393 2.31744 8.60393H3.18649C3.42634 8.60393 3.62101 8.79859 3.62101 9.03845C3.62101 9.2783 3.42634 9.47297 3.18649 9.47297ZM3.18649 7.73489H2.31744C2.07759 7.73489 1.88292 7.54022 1.88292 7.30036C1.88292 7.06051 2.07759 6.86584 2.31744 6.86584H3.18649C3.42634 6.86584 3.62101 7.06051 3.62101 7.30036C3.62101 7.54022 3.42634 7.73489 3.18649 7.73489ZM3.18649 5.9968H2.31744C2.07759 5.9968 1.88292 5.80214 1.88292 5.56228C1.88292 5.32243 2.07759 5.12776 2.31744 5.12776H3.18649C3.42634 5.12776 3.62101 5.32243 3.62101 5.56228C3.62101 5.80214 3.42634 5.9968 3.18649 5.9968ZM3.18649 4.25872H2.31744C2.07759 4.25872 1.88292 4.06405 1.88292 3.8242C1.88292 3.58434 2.07759 3.38968 2.31744 3.38968H3.18649C3.42634 3.38968 3.62101 3.58434 3.62101 3.8242C3.62101 4.06405 3.42634 4.25872 3.18649 4.25872ZM6.08329 9.47297H5.21425C4.97439 9.47297 4.77973 9.2783 4.77973 9.03845C4.77973 8.79859 4.97439 8.60393 5.21425 8.60393H6.08329C6.32315 8.60393 6.51781 8.79859 6.51781 9.03845C6.51781 9.2783 6.32315 9.47297 6.08329 9.47297ZM6.08329 7.73489H5.21425C4.97439 7.73489 4.77973 7.54022 4.77973 7.30036C4.77973 7.06051 4.97439 6.86584 5.21425 6.86584H6.08329C6.32315 6.86584 6.51781 7.06051 6.51781 7.30036C6.51781 7.54022 6.32315 7.73489 6.08329 7.73489ZM6.08329 5.9968H5.21425C4.97439 5.9968 4.77973 5.80214 4.77973 5.56228C4.77973 5.32243 4.97439 5.12776 5.21425 5.12776H6.08329C6.32315 5.12776 6.51781 5.32243 6.51781 5.56228C6.51781 5.80214 6.32315 5.9968 6.08329 5.9968ZM6.08329 4.25872H5.21425C4.97439 4.25872 4.77973 4.06405 4.77973 3.8242C4.77973 3.58434 4.97439 3.38968 5.21425 3.38968H6.08329C6.32315 3.38968 6.51781 3.58434 6.51781 3.8242C6.51781 4.06405 6.32315 4.25872 6.08329 4.25872Z" fill="url(#paint0_linear_1256_5447)" style=""/>
<path d="M13.105 7.20892L8.97998 6.34509V14.8322H12.8907C13.4498 14.8322 13.9045 14.3774 13.9045 13.8183V8.19963C13.9045 7.72108 13.5784 7.31378 13.105 7.20892ZM11.7319 13.0941H10.8629C10.623 13.0941 10.4284 12.8994 10.4284 12.6595C10.4284 12.4197 10.623 12.225 10.8629 12.225H11.7319C11.9718 12.225 12.1665 12.4197 12.1665 12.6595C12.1665 12.8994 11.9718 13.0941 11.7319 13.0941ZM11.7319 11.356H10.8629C10.623 11.356 10.4284 11.1613 10.4284 10.9215C10.4284 10.6816 10.623 10.4869 10.8629 10.4869H11.7319C11.9718 10.4869 12.1665 10.6816 12.1665 10.9215C12.1665 11.1613 11.9718 11.356 11.7319 11.356ZM11.7319 9.6179H10.8629C10.623 9.6179 10.4284 9.42324 10.4284 9.18338C10.4284 8.94353 10.623 8.74886 10.8629 8.74886H11.7319C11.9718 8.74886 12.1665 8.94353 12.1665 9.18338C12.1665 9.42324 11.9718 9.6179 11.7319 9.6179Z" fill="url(#paint1_linear_1256_5447)" style=""/>
</g>
<defs>
<linearGradient id="paint0_linear_1256_5447" x1="8.66509" y1="-1.14105" x2="-6.30166" y2="12.5715" gradientUnits="userSpaceOnUse">
<stop stop-color="#102880" style="stop-color:#102880;stop-color:color(display-p3 0.0627 0.1569 0.5020);stop-opacity:1;"/>
<stop offset="1" stop-color="#1469CD" style="stop-color:#1469CD;stop-color:color(display-p3 0.0784 0.4118 0.8039);stop-opacity:1;"/>
</linearGradient>
<linearGradient id="paint1_linear_1256_5447" x1="14.0595" y1="5.00972" x2="4.90466" y2="13.0056" gradientUnits="userSpaceOnUse">
<stop stop-color="#102880" style="stop-color:#102880;stop-color:color(display-p3 0.0627 0.1569 0.5020);stop-opacity:1;"/>
<stop offset="1" stop-color="#1469CD" style="stop-color:#1469CD;stop-color:color(display-p3 0.0784 0.4118 0.8039);stop-opacity:1;"/>
</linearGradient>
<clipPath id="clip0_1256_5447">
<rect width="13.9047" height="13.9047" fill="white" style="fill:white;fill-opacity:1;" transform="translate(0 0.92749)"/>
</clipPath>
</defs>
</svg>
