<svg width="13" height="13" viewBox="0 0 13 13" fill="none" xmlns="http://www.w3.org/2000/svg">
<g clip-path="url(#clip0_1256_6077)">
<path d="M7.38263 1.44553L1.76129 0.591332C1.50042 0.550412 1.23445 0.622022 1.03496 0.790815C0.835479 0.964724 0.717834 1.21536 0.717834 1.47622V12.2534C0.717834 12.5348 0.948008 12.7649 1.22933 12.7649H2.89169V10.0796C2.89169 9.58343 3.29066 9.18447 3.78681 9.18447H5.06555C5.5617 9.18447 5.96067 9.58343 5.96067 10.0796V12.7649H8.13453V2.33042C8.13453 1.89053 7.8174 1.51714 7.38263 1.44553ZM3.53106 8.0336H2.76382C2.55206 8.0336 2.3802 7.86174 2.3802 7.64998C2.3802 7.43822 2.55206 7.26636 2.76382 7.26636H3.53106C3.74282 7.26636 3.91468 7.43822 3.91468 7.64998C3.91468 7.86174 3.74282 8.0336 3.53106 8.0336ZM3.53106 6.49911H2.76382C2.55206 6.49911 2.3802 6.32725 2.3802 6.11549C2.3802 5.90373 2.55206 5.73187 2.76382 5.73187H3.53106C3.74282 5.73187 3.91468 5.90373 3.91468 6.11549C3.91468 6.32725 3.74282 6.49911 3.53106 6.49911ZM3.53106 4.96462H2.76382C2.55206 4.96462 2.3802 4.79276 2.3802 4.581C2.3802 4.36924 2.55206 4.19738 2.76382 4.19738H3.53106C3.74282 4.19738 3.91468 4.36924 3.91468 4.581C3.91468 4.79276 3.74282 4.96462 3.53106 4.96462ZM3.53106 3.43014H2.76382C2.55206 3.43014 2.3802 3.25827 2.3802 3.04651C2.3802 2.83475 2.55206 2.66289 2.76382 2.66289H3.53106C3.74282 2.66289 3.91468 2.83475 3.91468 3.04651C3.91468 3.25827 3.74282 3.43014 3.53106 3.43014ZM6.08854 8.0336H5.3213C5.10954 8.0336 4.93768 7.86174 4.93768 7.64998C4.93768 7.43822 5.10954 7.26636 5.3213 7.26636H6.08854C6.3003 7.26636 6.47216 7.43822 6.47216 7.64998C6.47216 7.86174 6.3003 8.0336 6.08854 8.0336ZM6.08854 6.49911H5.3213C5.10954 6.49911 4.93768 6.32725 4.93768 6.11549C4.93768 5.90373 5.10954 5.73187 5.3213 5.73187H6.08854C6.3003 5.73187 6.47216 5.90373 6.47216 6.11549C6.47216 6.32725 6.3003 6.49911 6.08854 6.49911ZM6.08854 4.96462H5.3213C5.10954 4.96462 4.93768 4.79276 4.93768 4.581C4.93768 4.36924 5.10954 4.19738 5.3213 4.19738H6.08854C6.3003 4.19738 6.47216 4.36924 6.47216 4.581C6.47216 4.79276 6.3003 4.96462 6.08854 4.96462ZM6.08854 3.43014H5.3213C5.10954 3.43014 4.93768 3.25827 4.93768 3.04651C4.93768 2.83475 5.10954 2.66289 5.3213 2.66289H6.08854C6.3003 2.66289 6.47216 2.83475 6.47216 3.04651C6.47216 3.25827 6.3003 3.43014 6.08854 3.43014Z" fill="url(#paint0_linear_1256_6077)" style=""/>
<path d="M12.2879 6.03461L8.64606 5.27197V12.7649H12.0987C12.5922 12.7649 12.9938 12.3634 12.9938 11.8698V6.90927C12.9938 6.48678 12.7058 6.12719 12.2879 6.03461ZM11.0757 11.2304H10.3084C10.0967 11.2304 9.9248 11.0585 9.9248 10.8468C9.9248 10.635 10.0967 10.4631 10.3084 10.4631H11.0757C11.2874 10.4631 11.4593 10.635 11.4593 10.8468C11.4593 11.0585 11.2874 11.2304 11.0757 11.2304ZM11.0757 9.6959H10.3084C10.0967 9.6959 9.9248 9.52404 9.9248 9.31228C9.9248 9.10052 10.0967 8.92866 10.3084 8.92866H11.0757C11.2874 8.92866 11.4593 9.10052 11.4593 9.31228C11.4593 9.52404 11.2874 9.6959 11.0757 9.6959ZM11.0757 8.16141H10.3084C10.0967 8.16141 9.9248 7.98955 9.9248 7.77779C9.9248 7.56603 10.0967 7.39417 10.3084 7.39417H11.0757C11.2874 7.39417 11.4593 7.56603 11.4593 7.77779C11.4593 7.98955 11.2874 8.16141 11.0757 8.16141Z" fill="url(#paint1_linear_1256_6077)" style=""/>
</g>
<defs>
<linearGradient id="paint0_linear_1256_6077" x1="8.36792" y1="-1.33712" x2="-4.84567" y2="10.7692" gradientUnits="userSpaceOnUse">
<stop stop-color="#102880" style="stop-color:#102880;stop-color:color(display-p3 0.0627 0.1569 0.5020);stop-opacity:1;"/>
<stop offset="1" stop-color="#1469CD" style="stop-color:#1469CD;stop-color:color(display-p3 0.0784 0.4118 0.8039);stop-opacity:1;"/>
</linearGradient>
<linearGradient id="paint1_linear_1256_6077" x1="13.1306" y1="4.09302" x2="5.04811" y2="11.1523" gradientUnits="userSpaceOnUse">
<stop stop-color="#102880" style="stop-color:#102880;stop-color:color(display-p3 0.0627 0.1569 0.5020);stop-opacity:1;"/>
<stop offset="1" stop-color="#1469CD" style="stop-color:#1469CD;stop-color:color(display-p3 0.0784 0.4118 0.8039);stop-opacity:1;"/>
</linearGradient>
<clipPath id="clip0_1256_6077">
<rect width="12.2759" height="12.2759" fill="white" style="fill:white;fill-opacity:1;" transform="translate(0.717834 0.48877)"/>
</clipPath>
</defs>
</svg>
