<svg width="13" height="13" viewBox="0 0 13 13" fill="none" xmlns="http://www.w3.org/2000/svg">
<g clip-path="url(#clip0_1256_6101)">
<path d="M9.88167 6.09212C9.84944 5.30489 9.50284 4.56138 8.91623 4.02111C8.32962 3.48084 7.54974 3.18685 6.74393 3.20223C5.93811 3.21762 5.17057 3.54114 4.60599 4.10339C4.0414 4.66563 3.72476 5.42181 3.724 6.20966V6.59938C3.14226 6.68985 2.6168 6.99139 2.25245 7.44384C1.88811 7.8963 1.71165 8.46639 1.7583 9.0404C1.80495 9.6144 2.07127 10.1501 2.50413 10.5407C2.93698 10.9312 3.50455 11.1479 4.09361 11.1474H9.76093C10.4362 11.1467 11.0843 10.8879 11.5671 10.4264C12.0498 9.96492 12.3288 9.33722 12.3446 8.67735C12.3603 8.01749 12.1116 7.37774 11.6514 6.89471C11.1912 6.41169 10.5561 6.12365 9.88167 6.09212ZM8.29728 8.15104C8.26303 8.18466 8.22233 8.21133 8.1775 8.22953C8.13268 8.24774 8.08463 8.2571 8.03609 8.2571C7.98755 8.2571 7.9395 8.24774 7.89468 8.22953C7.84985 8.21133 7.80915 8.18466 7.7749 8.15104L7.42008 7.80468V8.85919C7.42008 8.95501 7.38114 9.04691 7.31182 9.11467C7.24251 9.18242 7.1485 9.22049 7.05047 9.22049C6.95244 9.22049 6.85843 9.18242 6.78912 9.11467C6.7198 9.04691 6.68086 8.95501 6.68086 8.85919V7.80468L6.32604 8.15104C6.25597 8.21486 6.1633 8.24961 6.06755 8.24795C5.9718 8.2463 5.88044 8.20838 5.81272 8.14219C5.745 8.07599 5.70621 7.98669 5.70452 7.89308C5.70283 7.79948 5.73837 7.7089 5.80366 7.6404L6.78928 6.67694C6.85865 6.6094 6.95256 6.57147 7.05047 6.57147C7.14838 6.57147 7.24229 6.6094 7.31166 6.67694L8.29728 7.6404C8.33161 7.67392 8.35885 7.71372 8.37743 7.75752C8.39601 7.80134 8.40558 7.8483 8.40558 7.89572C8.40558 7.94315 8.39601 7.99011 8.37743 8.03392C8.35885 8.07773 8.33161 8.11753 8.29728 8.15104Z" fill="url(#paint0_linear_1256_6101)" style=""/>
</g>
<defs>
<linearGradient id="paint0_linear_1256_6101" x1="0.946663" y1="7.40577" x2="21.6889" y2="7.0399" gradientUnits="userSpaceOnUse">
<stop stop-color="#1354B4" style="stop-color:#1354B4;stop-color:color(display-p3 0.0734 0.3305 0.7077);stop-opacity:1;"/>
<stop offset="1" stop-color="#120086" style="stop-color:#120086;stop-color:color(display-p3 0.0706 0.0000 0.5255);stop-opacity:1;"/>
</linearGradient>
<clipPath id="clip0_1256_6101">
<rect width="12.2759" height="12.2759" fill="white" style="fill:white;fill-opacity:1;" transform="translate(0.46524 0.48877)"/>
</clipPath>
</defs>
</svg>
