<svg width="15" height="15" viewBox="0 0 15 15" fill="none" xmlns="http://www.w3.org/2000/svg">
<path d="M11.3614 4H2.7989C2.36335 4 2.01025 4.35309 2.01025 4.78865V5.68506C2.01025 5.74726 2.0607 5.79772 2.12292 5.79772H12.0374C12.0997 5.79772 12.1501 5.74728 12.1501 5.68506V4.78865C12.1501 4.35309 11.797 4 11.3614 4ZM3.43231 5.15309C3.29189 5.15309 3.1781 5.03927 3.1781 4.89888C3.1781 4.75849 3.29191 4.64467 3.43231 4.64467C3.5727 4.64467 3.68652 4.75849 3.68652 4.89888C3.68654 5.03927 3.57272 5.15309 3.43231 5.15309ZM4.2473 5.15309C4.10688 5.15309 3.99309 5.03927 3.99309 4.89888C3.99309 4.75849 4.1069 4.64467 4.2473 4.64467C4.38769 4.64467 4.50151 4.75849 4.50151 4.89888C4.50153 5.03927 4.38769 5.15309 4.2473 5.15309ZM5.06229 5.15309C4.92189 5.15309 4.80808 5.03927 4.80808 4.89888C4.80808 4.75849 4.92189 4.64467 5.06229 4.64467C5.2027 4.64467 5.3165 4.75849 5.3165 4.89888C5.3165 5.03927 5.20268 5.15309 5.06229 5.15309Z" fill="url(#paint0_linear_1256_5455)" style=""/>
<path d="M12.0374 6.24841H2.12292C2.06072 6.24841 2.01025 6.29886 2.01025 6.36108V11.98C2.01025 12.4155 2.36335 12.7686 2.7989 12.7686H11.3614C11.797 12.7686 12.1501 12.4155 12.1501 11.98V6.36108C12.1501 6.29886 12.0997 6.24841 12.0374 6.24841ZM5.53945 8.97118L5.1462 10.1848C5.08776 10.3652 4.84444 10.3976 4.74173 10.2363L4.43966 9.76143L4.13756 10.2363C4.03531 10.3969 3.79168 10.3657 3.7331 10.1848L3.33988 8.97122C3.24809 8.68806 3.67667 8.54867 3.76857 8.83231L4.01424 9.59054L4.24952 9.22073C4.33788 9.08185 4.54123 9.08159 4.62976 9.22073L4.86504 9.59054L5.11073 8.83229C5.2027 8.54851 5.63123 8.68808 5.53945 8.97118ZM8.17997 8.97118L7.78676 10.1848C7.72831 10.3652 7.48502 10.3977 7.38229 10.2363L7.08018 9.76147L6.7781 10.2363C6.67585 10.3969 6.43222 10.3657 6.37364 10.1848L5.98042 8.97122C5.88863 8.68806 6.31721 8.54867 6.4091 8.83231L6.65478 9.59054L6.89005 9.22073C6.97842 9.08185 7.18177 9.08159 7.2703 9.22073L7.50557 9.59054L7.75125 8.83231C7.84302 8.54905 8.2719 8.68758 8.17997 8.97118ZM10.8205 8.97118L10.4273 10.1848C10.3687 10.3655 10.1251 10.397 10.0228 10.2363L9.72071 9.76143L9.41864 10.2363C9.31593 10.3976 9.07264 10.3653 9.01417 10.1848L8.62092 8.97118C8.52912 8.68798 8.95771 8.54863 9.0496 8.83227L9.2953 9.59052L9.53057 9.22071C9.61894 9.08183 9.82229 9.08157 9.91082 9.22071L10.1461 9.59052L10.3918 8.83229C10.4835 8.54905 10.9124 8.68758 10.8205 8.97118Z" fill="url(#paint1_linear_1256_5455)" style=""/>
<defs>
<linearGradient id="paint0_linear_1256_5455" x1="1.24048" y1="4.95118" x2="20.9891" y2="3.4776" gradientUnits="userSpaceOnUse">
<stop stop-color="#1354B4" style="stop-color:#1354B4;stop-color:color(display-p3 0.0734 0.3305 0.7077);stop-opacity:1;"/>
<stop offset="1" stop-color="#120086" style="stop-color:#120086;stop-color:color(display-p3 0.0706 0.0000 0.5255);stop-opacity:1;"/>
</linearGradient>
<linearGradient id="paint1_linear_1256_5455" x1="1.24048" y1="9.69825" x2="21.0906" y2="9.28988" gradientUnits="userSpaceOnUse">
<stop stop-color="#1354B4" style="stop-color:#1354B4;stop-color:color(display-p3 0.0734 0.3305 0.7077);stop-opacity:1;"/>
<stop offset="1" stop-color="#120086" style="stop-color:#120086;stop-color:color(display-p3 0.0706 0.0000 0.5255);stop-opacity:1;"/>
</linearGradient>
</defs>
</svg>
