<svg width="15" height="15" viewBox="0 0 15 15" fill="none" xmlns="http://www.w3.org/2000/svg">
<path d="M10.8469 7.2742C10.8105 6.38253 10.4179 5.54037 9.75342 4.92842C9.08898 4.31646 8.20563 3.98347 7.2929 4.00089C6.38017 4.01832 5.51079 4.38477 4.8713 5.02161C4.2318 5.65846 3.87315 6.51496 3.87229 7.40734V7.84877C3.21337 7.95125 2.61819 8.2928 2.2055 8.80528C1.79281 9.31776 1.59295 9.9635 1.64578 10.6137C1.69862 11.2638 2.00027 11.8706 2.49056 12.313C2.98085 12.7553 3.62373 13.0007 4.29094 13.0002H10.7102C11.475 12.9994 12.2092 12.7063 12.756 12.1836C13.3027 11.6609 13.6188 10.9499 13.6367 10.2025C13.6545 9.45503 13.3727 8.73041 12.8515 8.18329C12.3303 7.63618 11.6109 7.30993 10.8469 7.2742ZM9.05235 9.60631C9.01356 9.64438 8.96745 9.6746 8.91668 9.69521C8.86591 9.71583 8.81148 9.72644 8.7565 9.72644C8.70153 9.72644 8.6471 9.71583 8.59633 9.69521C8.54556 9.6746 8.49945 9.64438 8.46066 9.60631L8.05876 9.21399V10.4084C8.05876 10.5169 8.01465 10.621 7.93614 10.6978C7.85763 10.7745 7.75114 10.8176 7.64011 10.8176C7.52908 10.8176 7.4226 10.7745 7.34408 10.6978C7.26557 10.621 7.22147 10.5169 7.22147 10.4084V9.21399L6.81956 9.60631C6.7402 9.67859 6.63524 9.71795 6.52678 9.71608C6.41832 9.71421 6.31484 9.67126 6.23814 9.59628C6.16143 9.5213 6.1175 9.42014 6.11558 9.31412C6.11367 9.2081 6.15393 9.1055 6.22788 9.02792L7.34427 7.93662C7.42284 7.86012 7.52922 7.81716 7.64011 7.81716C7.75101 7.81716 7.85739 7.86012 7.93596 7.93662L9.05235 9.02792C9.09123 9.06588 9.12208 9.11096 9.14313 9.16058C9.16418 9.2102 9.17501 9.26339 9.17501 9.31711C9.17501 9.37083 9.16418 9.42402 9.14313 9.47365C9.12208 9.52327 9.09123 9.56835 9.05235 9.60631Z" fill="url(#paint0_linear_1256_5469)" style=""/>
<defs>
<linearGradient id="paint0_linear_1256_5469" x1="0.726456" y1="8.76215" x2="24.2207" y2="8.34774" gradientUnits="userSpaceOnUse">
<stop stop-color="#1354B4" style="stop-color:#1354B4;stop-color:color(display-p3 0.0734 0.3305 0.7077);stop-opacity:1;"/>
<stop offset="1" stop-color="#120086" style="stop-color:#120086;stop-color:color(display-p3 0.0706 0.0000 0.5255);stop-opacity:1;"/>
</linearGradient>
</defs>
</svg>
