<svg width="13" height="13" viewBox="0 0 13 13" fill="none" xmlns="http://www.w3.org/2000/svg">
<path d="M9.60186 3.00879H2.15816C1.77952 3.00879 1.47256 3.31574 1.47256 3.69439V4.47366C1.47256 4.52774 1.51642 4.57161 1.57051 4.57161H10.1895C10.2436 4.57161 10.2875 4.52776 10.2875 4.47366V3.69439C10.2875 3.31574 9.9805 3.00879 9.60186 3.00879ZM2.7088 4.01121C2.58674 4.01121 2.48781 3.91226 2.48781 3.79022C2.48781 3.66817 2.58675 3.56922 2.7088 3.56922C2.83085 3.56922 2.92979 3.66817 2.92979 3.79022C2.92981 3.91226 2.83087 4.01121 2.7088 4.01121ZM3.4173 4.01121C3.29523 4.01121 3.19631 3.91226 3.19631 3.79022C3.19631 3.66817 3.29525 3.56922 3.4173 3.56922C3.53935 3.56922 3.63829 3.66817 3.63829 3.79022C3.63831 3.91226 3.53935 4.01121 3.4173 4.01121ZM4.12579 4.01121C4.00375 4.01121 3.9048 3.91226 3.9048 3.79022C3.9048 3.66817 4.00375 3.56922 4.12579 3.56922C4.24786 3.56922 4.34679 3.66817 4.34679 3.79022C4.34679 3.91226 4.24784 4.01121 4.12579 4.01121Z" fill="url(#paint0_linear_1256_5998)" style=""/>
<path d="M10.1894 4.96338H1.5704C1.51633 4.96338 1.47246 5.00723 1.47246 5.06132V9.946C1.47246 10.3246 1.77941 10.6316 2.15806 10.6316H9.60175C9.98039 10.6316 10.2873 10.3246 10.2873 9.946V5.06132C10.2873 5.00723 10.2435 4.96338 10.1894 4.96338ZM4.5405 7.33037L4.19863 8.38536C4.14783 8.54228 3.93631 8.57044 3.84702 8.43014L3.58442 8.01736L3.32179 8.43018C3.23291 8.56981 3.02111 8.54265 2.97018 8.3854L2.62834 7.3304C2.54855 7.08424 2.92113 6.96307 3.00101 7.20964L3.21459 7.8688L3.41912 7.54731C3.49594 7.42657 3.67272 7.42635 3.74968 7.54731L3.95421 7.8688L4.1678 7.20963C4.24775 6.96293 4.62029 7.08426 4.5405 7.33037ZM6.83599 7.33037L6.49416 8.38536C6.44335 8.54224 6.23184 8.57046 6.14254 8.43014L5.8799 8.01739L5.6173 8.43018C5.52841 8.56981 5.31661 8.54265 5.26568 8.3854L4.92385 7.3304C4.84405 7.08424 5.21663 6.96307 5.29652 7.20964L5.51009 7.8688L5.71462 7.54731C5.79144 7.42657 5.96822 7.42635 6.04518 7.54731L6.24972 7.8688L6.46329 7.20964C6.54307 6.96339 6.91591 7.08382 6.83599 7.33037ZM9.13146 7.33037L8.78963 8.38536C8.73872 8.54252 8.52694 8.56987 8.43801 8.43014L8.17541 8.01736L7.9128 8.43014C7.82352 8.57043 7.61201 8.54229 7.56119 8.38536L7.21932 7.33037C7.13952 7.08417 7.5121 6.96303 7.59199 7.20961L7.80558 7.86878L8.01011 7.5473C8.08693 7.42656 8.26371 7.42633 8.34067 7.5473L8.5452 7.86878L8.75877 7.20963C8.83856 6.96339 9.21138 7.08382 9.13146 7.33037Z" fill="url(#paint1_linear_1256_5998)" style=""/>
<defs>
<linearGradient id="paint0_linear_1256_5998" x1="0.803371" y1="3.83568" x2="17.9714" y2="2.55465" gradientUnits="userSpaceOnUse">
<stop stop-color="#1354B4" style="stop-color:#1354B4;stop-color:color(display-p3 0.0734 0.3305 0.7077);stop-opacity:1;"/>
<stop offset="1" stop-color="#120086" style="stop-color:#120086;stop-color:color(display-p3 0.0706 0.0000 0.5255);stop-opacity:1;"/>
</linearGradient>
<linearGradient id="paint1_linear_1256_5998" x1="0.803265" y1="7.96243" x2="18.0596" y2="7.60742" gradientUnits="userSpaceOnUse">
<stop stop-color="#1354B4" style="stop-color:#1354B4;stop-color:color(display-p3 0.0734 0.3305 0.7077);stop-opacity:1;"/>
<stop offset="1" stop-color="#120086" style="stop-color:#120086;stop-color:color(display-p3 0.0706 0.0000 0.5255);stop-opacity:1;"/>
</linearGradient>
</defs>
</svg>
