<svg width="13" height="13" viewBox="0 0 13 13" fill="none" xmlns="http://www.w3.org/2000/svg">
<path d="M10.1862 5.85543C10.1544 5.08028 9.81315 4.34816 9.23553 3.81617C8.65791 3.28418 7.88998 2.9947 7.09651 3.00984C6.30305 3.02499 5.54727 3.34355 4.99134 3.89718C4.43541 4.45082 4.12362 5.1954 4.12287 5.97118V6.35492C3.55005 6.44401 3.03264 6.74093 2.67388 7.18645C2.31511 7.63196 2.14136 8.19332 2.1873 8.75853C2.23323 9.32374 2.49547 9.85124 2.92169 10.2358C3.34791 10.6204 3.90679 10.8337 4.48681 10.8333H10.0673C10.7322 10.8325 11.3704 10.5778 11.8457 10.1233C12.3211 9.66889 12.5958 9.05081 12.6113 8.40105C12.6269 7.7513 12.3819 7.12136 11.9288 6.64573C11.4757 6.17011 10.8503 5.88649 10.1862 5.85543ZM8.62606 7.88281C8.59234 7.91591 8.55226 7.94217 8.50812 7.9601C8.46399 7.97802 8.41667 7.98724 8.36887 7.98724C8.32108 7.98724 8.27376 7.97802 8.22963 7.9601C8.18549 7.94217 8.14541 7.91591 8.11169 7.88281L7.7623 7.54175V8.5801C7.7623 8.67445 7.72396 8.76494 7.65571 8.83166C7.58745 8.89838 7.49488 8.93586 7.39836 8.93586C7.30184 8.93586 7.20926 8.89838 7.14101 8.83166C7.07276 8.76494 7.03442 8.67445 7.03442 8.5801V7.54175L6.68503 7.88281C6.61604 7.94565 6.52479 7.97986 6.4305 7.97823C6.33622 7.97661 6.24626 7.93927 6.17958 7.87409C6.11289 7.80891 6.0747 7.72097 6.07304 7.6288C6.07137 7.53664 6.10637 7.44744 6.17066 7.38L7.14117 6.4313C7.20947 6.36479 7.30195 6.32745 7.39836 6.32745C7.49476 6.32745 7.58724 6.36479 7.65555 6.4313L8.62606 7.38C8.65987 7.41299 8.68668 7.45218 8.70498 7.49532C8.72328 7.53846 8.7327 7.5847 8.7327 7.6314C8.7327 7.6781 8.72328 7.72434 8.70498 7.76748C8.68668 7.81062 8.65987 7.84981 8.62606 7.88281Z" fill="url(#paint0_linear_1256_6015)" style=""/>
<defs>
<linearGradient id="paint0_linear_1256_6015" x1="1.3881" y1="7.14895" x2="21.8124" y2="6.78869" gradientUnits="userSpaceOnUse">
<stop stop-color="#1354B4" style="stop-color:#1354B4;stop-color:color(display-p3 0.0734 0.3305 0.7077);stop-opacity:1;"/>
<stop offset="1" stop-color="#120086" style="stop-color:#120086;stop-color:color(display-p3 0.0706 0.0000 0.5255);stop-opacity:1;"/>
</linearGradient>
</defs>
</svg>
