<svg width="13" height="13" viewBox="0 0 13 13" fill="none" xmlns="http://www.w3.org/2000/svg">
<g clip-path="url(#clip0_1256_5991)">
<path d="M7.39982 1.27943L1.86463 0.438328C1.60776 0.398035 1.34586 0.468547 1.14943 0.634754C0.953007 0.805997 0.837166 1.05279 0.837166 1.30965V11.9217C0.837166 12.1987 1.06381 12.4254 1.34082 12.4254H2.97771V9.78117C2.97771 9.29262 3.37056 8.89977 3.85911 8.89977H5.11825C5.6068 8.89977 5.99965 9.29262 5.99965 9.78117V12.4254H8.14019V2.15076C8.14019 1.71762 7.82792 1.34995 7.39982 1.27943ZM3.60728 7.76654H2.85179C2.64328 7.76654 2.47405 7.59731 2.47405 7.38879C2.47405 7.18028 2.64328 7.01105 2.85179 7.01105H3.60728C3.81579 7.01105 3.98502 7.18028 3.98502 7.38879C3.98502 7.59731 3.81579 7.76654 3.60728 7.76654ZM3.60728 6.25557H2.85179C2.64328 6.25557 2.47405 6.08634 2.47405 5.87782C2.47405 5.66931 2.64328 5.50008 2.85179 5.50008H3.60728C3.81579 5.50008 3.98502 5.66931 3.98502 5.87782C3.98502 6.08634 3.81579 6.25557 3.60728 6.25557ZM3.60728 4.7446H2.85179C2.64328 4.7446 2.47405 4.57537 2.47405 4.36685C2.47405 4.15834 2.64328 3.98911 2.85179 3.98911H3.60728C3.81579 3.98911 3.98502 4.15834 3.98502 4.36685C3.98502 4.57537 3.81579 4.7446 3.60728 4.7446ZM3.60728 3.23362H2.85179C2.64328 3.23362 2.47405 3.06439 2.47405 2.85588C2.47405 2.64737 2.64328 2.47814 2.85179 2.47814H3.60728C3.81579 2.47814 3.98502 2.64737 3.98502 2.85588C3.98502 3.06439 3.81579 3.23362 3.60728 3.23362ZM6.12556 7.76654H5.37008C5.16156 7.76654 4.99234 7.59731 4.99234 7.38879C4.99234 7.18028 5.16156 7.01105 5.37008 7.01105H6.12556C6.33408 7.01105 6.50331 7.18028 6.50331 7.38879C6.50331 7.59731 6.33408 7.76654 6.12556 7.76654ZM6.12556 6.25557H5.37008C5.16156 6.25557 4.99234 6.08634 4.99234 5.87782C4.99234 5.66931 5.16156 5.50008 5.37008 5.50008H6.12556C6.33408 5.50008 6.50331 5.66931 6.50331 5.87782C6.50331 6.08634 6.33408 6.25557 6.12556 6.25557ZM6.12556 4.7446H5.37008C5.16156 4.7446 4.99234 4.57537 4.99234 4.36685C4.99234 4.15834 5.16156 3.98911 5.37008 3.98911H6.12556C6.33408 3.98911 6.50331 4.15834 6.50331 4.36685C6.50331 4.57537 6.33408 4.7446 6.12556 4.7446ZM6.12556 3.23362H5.37008C5.16156 3.23362 4.99234 3.06439 4.99234 2.85588C4.99234 2.64737 5.16156 2.47814 5.37008 2.47814H6.12556C6.33408 2.47814 6.50331 2.64737 6.50331 2.85588C6.50331 3.06439 6.33408 3.23362 6.12556 3.23362Z" fill="url(#paint0_linear_1256_5991)" style=""/>
<path d="M12.2299 5.79832L8.64386 5.04736V12.4254H12.0435C12.5296 12.4254 12.9249 12.0301 12.9249 11.544V6.65957C12.9249 6.24355 12.6414 5.88948 12.2299 5.79832ZM11.0362 10.9145H10.2807C10.0722 10.9145 9.903 10.7452 9.903 10.5367C9.903 10.3282 10.0722 10.159 10.2807 10.159H11.0362C11.2447 10.159 11.414 10.3282 11.414 10.5367C11.414 10.7452 11.2447 10.9145 11.0362 10.9145ZM11.0362 9.40349H10.2807C10.0722 9.40349 9.903 9.23426 9.903 9.02575C9.903 8.81724 10.0722 8.64801 10.2807 8.64801H11.0362C11.2447 8.64801 11.414 8.81724 11.414 9.02575C11.414 9.23426 11.2447 9.40349 11.0362 9.40349ZM11.0362 7.89252H10.2807C10.0722 7.89252 9.903 7.72329 9.903 7.51478C9.903 7.30627 10.0722 7.13704 10.2807 7.13704H11.0362C11.2447 7.13704 11.414 7.30627 11.414 7.51478C11.414 7.72329 11.2447 7.89252 11.0362 7.89252Z" fill="url(#paint1_linear_1256_5991)" style=""/>
</g>
<defs>
<linearGradient id="paint0_linear_1256_5991" x1="8.37001" y1="-1.46057" x2="-4.64107" y2="10.4602" gradientUnits="userSpaceOnUse">
<stop stop-color="#102880" style="stop-color:#102880;stop-color:color(display-p3 0.0627 0.1569 0.5020);stop-opacity:1;"/>
<stop offset="1" stop-color="#1469CD" style="stop-color:#1469CD;stop-color:color(display-p3 0.0784 0.4118 0.8039);stop-opacity:1;"/>
</linearGradient>
<linearGradient id="paint1_linear_1256_5991" x1="13.0597" y1="3.88648" x2="5.10105" y2="10.8375" gradientUnits="userSpaceOnUse">
<stop stop-color="#102880" style="stop-color:#102880;stop-color:color(display-p3 0.0627 0.1569 0.5020);stop-opacity:1;"/>
<stop offset="1" stop-color="#1469CD" style="stop-color:#1469CD;stop-color:color(display-p3 0.0784 0.4118 0.8039);stop-opacity:1;"/>
</linearGradient>
<clipPath id="clip0_1256_5991">
<rect width="12.0878" height="12.0878" fill="white" style="fill:white;fill-opacity:1;" transform="translate(0.837143 0.337891)"/>
</clipPath>
</defs>
</svg>
