<svg width="21" height="21" viewBox="0 0 21 21" fill="none" xmlns="http://www.w3.org/2000/svg">
<path d="M19.9062 15.61V7.77001C19.9061 7.68427 19.889 7.59941 19.8559 7.52033C19.8228 7.44125 19.7743 7.36952 19.7133 7.3093C19.6522 7.24908 19.5799 7.20157 19.5003 7.16951C19.4208 7.13744 19.3357 7.12147 19.25 7.12251H11.5588C11.3489 7.12221 11.1435 7.06192 10.9668 6.94875C10.79 6.83558 10.6493 6.67424 10.5613 6.48376L10.1675 5.61751L9.63375 4.46251C9.60796 4.40821 9.57873 4.3556 9.54625 4.30501C9.34064 3.92791 9.03696 3.61338 8.6673 3.39466C8.29765 3.17595 7.87576 3.06119 7.44625 3.06251H3.5C3.18394 3.06228 2.87094 3.12436 2.5789 3.24521C2.28685 3.36605 2.0215 3.54329 1.79801 3.76677C1.57452 3.99026 1.39729 4.25561 1.27645 4.54766C1.1556 4.8397 1.09352 5.1527 1.09375 5.46876V15.61C1.09352 15.9261 1.1556 16.2391 1.27645 16.5311C1.39729 16.8232 1.57452 17.0885 1.79801 17.312C2.0215 17.5355 2.28685 17.7127 2.5789 17.8336C2.87094 17.9544 3.18394 18.0165 3.5 18.0163H17.5C17.8161 18.0165 18.1291 17.9544 18.4211 17.8336C18.7131 17.7127 18.9785 17.5355 19.202 17.312C19.4255 17.0885 19.6027 16.8232 19.7236 16.5311C19.8444 16.2391 19.9065 15.9261 19.9062 15.61Z" fill="url(#paint0_linear_1256_5363)" style=""/>
<path d="M11.3576 6.12505C11.3769 6.16183 11.4058 6.19267 11.4412 6.21426C11.4767 6.23584 11.5174 6.24735 11.5589 6.24755H19.2501C19.4671 6.24534 19.682 6.29012 19.8801 6.3788C19.8 5.80434 19.515 5.27815 19.0777 4.89711C18.6404 4.51607 18.0801 4.30582 17.5001 4.30505H10.5264L10.9639 5.25005L11.3576 6.12505Z" fill="url(#paint1_linear_1256_5363)" style=""/>
<defs>
<linearGradient id="paint0_linear_1256_5363" x1="20.4983" y1="0.709635" x2="7.05461" y2="26.1671" gradientUnits="userSpaceOnUse">
<stop stop-color="#102880" style="stop-color:#102880;stop-color:color(display-p3 0.0627 0.1569 0.5020);stop-opacity:1;"/>
<stop offset="1" stop-color="#1469CD" style="stop-color:#1469CD;stop-color:color(display-p3 0.0784 0.4118 0.8039);stop-opacity:1;"/>
</linearGradient>
<linearGradient id="paint1_linear_1256_5363" x1="20.1745" y1="3.97876" x2="19.5236" y2="8.39779" gradientUnits="userSpaceOnUse">
<stop stop-color="#102880" style="stop-color:#102880;stop-color:color(display-p3 0.0627 0.1569 0.5020);stop-opacity:1;"/>
<stop offset="1" stop-color="#1469CD" style="stop-color:#1469CD;stop-color:color(display-p3 0.0784 0.4118 0.8039);stop-opacity:1;"/>
</linearGradient>
</defs>
</svg>
