<svg width="20" height="19" viewBox="0 0 20 19" fill="none" xmlns="http://www.w3.org/2000/svg">
<path d="M18.1876 13.9895V7.17393C18.1875 7.0994 18.1726 7.02562 18.1438 6.95687C18.115 6.88813 18.0729 6.82577 18.0198 6.77342C17.9668 6.72107 17.9039 6.67977 17.8347 6.65189C17.7656 6.62402 17.6916 6.61013 17.6171 6.61104H10.9309C10.7484 6.61077 10.5699 6.55836 10.4162 6.45998C10.2626 6.3616 10.1403 6.22135 10.0637 6.05575L9.7214 5.3027L9.2574 4.29862C9.23497 4.25141 9.20957 4.20568 9.18133 4.1617C9.00259 3.83387 8.73858 3.56044 8.41723 3.3703C8.09588 3.18017 7.72912 3.0804 7.35573 3.08155H3.92513C3.65037 3.08135 3.37827 3.13532 3.12439 3.24038C2.8705 3.34543 2.63982 3.49951 2.44554 3.69379C2.25125 3.88807 2.09718 4.11875 1.99213 4.37264C1.88707 4.62652 1.8331 4.89862 1.8333 5.17338V13.9895C1.8331 14.2643 1.88707 14.5364 1.99213 14.7902C2.09718 15.0441 2.25125 15.2748 2.44554 15.4691C2.63982 15.6634 2.8705 15.8174 3.12439 15.9225C3.37827 16.0276 3.65037 16.0815 3.92513 16.0813H16.0958C16.3705 16.0815 16.6426 16.0276 16.8965 15.9225C17.1504 15.8174 17.3811 15.6634 17.5754 15.4691C17.7697 15.2748 17.9237 15.0441 18.0288 14.7902C18.1338 14.5364 18.1878 14.2643 18.1876 13.9895Z" fill="url(#paint0_linear_1256_5951)" style=""/>
<path d="M10.7559 5.7438C10.7726 5.77578 10.7978 5.80259 10.8286 5.82135C10.8594 5.84012 10.8948 5.85012 10.9309 5.8503H17.6171C17.8058 5.84838 17.9926 5.8873 18.1648 5.9644C18.0951 5.465 17.8474 5.00757 17.4672 4.67632C17.087 4.34506 16.6 4.16228 16.0958 4.16162H10.0333L10.4136 4.98314L10.7559 5.7438Z" fill="url(#paint1_linear_1256_5951)" style=""/>
<defs>
<linearGradient id="paint0_linear_1256_5951" x1="18.7023" y1="1.03612" x2="7.01527" y2="23.1671" gradientUnits="userSpaceOnUse">
<stop stop-color="#102880" style="stop-color:#102880;stop-color:color(display-p3 0.0627 0.1569 0.5020);stop-opacity:1;"/>
<stop offset="1" stop-color="#1469CD" style="stop-color:#1469CD;stop-color:color(display-p3 0.0784 0.4118 0.8039);stop-opacity:1;"/>
</linearGradient>
<linearGradient id="paint1_linear_1256_5951" x1="18.4207" y1="3.87797" x2="17.8548" y2="7.71957" gradientUnits="userSpaceOnUse">
<stop stop-color="#102880" style="stop-color:#102880;stop-color:color(display-p3 0.0627 0.1569 0.5020);stop-opacity:1;"/>
<stop offset="1" stop-color="#1469CD" style="stop-color:#1469CD;stop-color:color(display-p3 0.0784 0.4118 0.8039);stop-opacity:1;"/>
</linearGradient>
</defs>
</svg>
