<svg width="20" height="19" viewBox="0 0 20 19" fill="none" xmlns="http://www.w3.org/2000/svg">
<path d="M18.2295 13.8004V6.87874C18.2294 6.80305 18.2142 6.72812 18.185 6.6583C18.1558 6.58849 18.1129 6.52516 18.0591 6.472C18.0052 6.41883 17.9413 6.37688 17.8711 6.34858C17.8009 6.32027 17.7258 6.30617 17.6501 6.30709H10.8598C10.6745 6.30682 10.4931 6.25359 10.3371 6.15368C10.1811 6.05376 10.0569 5.91133 9.9791 5.74316L9.63148 4.97838L9.16025 3.95867C9.13748 3.91073 9.11168 3.86429 9.083 3.81962C8.90148 3.48669 8.63336 3.209 8.30701 3.01591C7.98065 2.82282 7.60819 2.7215 7.22899 2.72267H3.74499C3.46596 2.72246 3.18962 2.77727 2.93179 2.88396C2.67395 2.99065 2.43968 3.14712 2.24237 3.34443C2.04506 3.54174 1.88859 3.77601 1.7819 4.03385C1.67521 4.29168 1.6204 4.56802 1.62061 4.84705V13.8004C1.6204 14.0794 1.67521 14.3558 1.7819 14.6136C1.88859 14.8714 2.04506 15.1057 2.24237 15.303C2.43968 15.5003 2.67395 15.6568 2.93179 15.7635C3.18962 15.8702 3.46596 15.925 3.74499 15.9248H16.1051C16.3841 15.925 16.6604 15.8702 16.9183 15.7635C17.1761 15.6568 17.4104 15.5003 17.6077 15.303C17.805 15.1057 17.9615 14.8714 18.0682 14.6136C18.1748 14.3558 18.2297 14.0794 18.2295 13.8004Z" fill="url(#paint0_linear_1256_6052)" style=""/>
<path d="M10.6821 5.42663C10.6991 5.45911 10.7246 5.48633 10.7559 5.50539C10.7872 5.52444 10.8231 5.53461 10.8597 5.53478H17.6501C17.8416 5.53283 18.0314 5.57236 18.2063 5.65066C18.1355 5.14348 17.8839 4.67894 17.4978 4.34253C17.1117 4.00612 16.6171 3.8205 16.105 3.81982H9.94818L10.3344 4.65413L10.6821 5.42663Z" fill="url(#paint1_linear_1256_6052)" style=""/>
<defs>
<linearGradient id="paint0_linear_1256_6052" x1="18.7521" y1="0.6454" x2="6.88323" y2="23.1208" gradientUnits="userSpaceOnUse">
<stop stop-color="#102880" style="stop-color:#102880;stop-color:color(display-p3 0.0627 0.1569 0.5020);stop-opacity:1;"/>
<stop offset="1" stop-color="#1469CD" style="stop-color:#1469CD;stop-color:color(display-p3 0.0784 0.4118 0.8039);stop-opacity:1;"/>
</linearGradient>
<linearGradient id="paint1_linear_1256_6052" x1="18.4661" y1="3.53176" x2="17.8915" y2="7.43315" gradientUnits="userSpaceOnUse">
<stop stop-color="#102880" style="stop-color:#102880;stop-color:color(display-p3 0.0627 0.1569 0.5020);stop-opacity:1;"/>
<stop offset="1" stop-color="#1469CD" style="stop-color:#1469CD;stop-color:color(display-p3 0.0784 0.4118 0.8039);stop-opacity:1;"/>
</linearGradient>
</defs>
</svg>
