<svg width="418" height="319" viewBox="0 0 418 319" fill="none" xmlns="http://www.w3.org/2000/svg">
<path d="M323.332 116.797L354.74 148.204L323.332 179.612C258.867 244.077 154.203 244.077 89.7382 179.612L58.3308 148.204L89.7382 116.797C154.203 52.3321 258.867 52.3321 323.332 116.797Z" fill="white" style="fill:white;fill-opacity:1;"/>
<path d="M206.54 233.816C160.869 233.816 117.926 216.03 85.6296 183.733L50.1055 148.209L85.6296 112.685C117.926 80.3883 160.869 62.603 206.54 62.603C252.21 62.603 295.153 80.3883 327.449 112.685L362.974 148.209L327.449 183.733C295.153 216.03 252.21 233.816 206.54 233.816ZM66.5673 148.209L93.8606 175.503C123.963 205.605 163.98 222.172 206.54 222.172C249.099 222.172 289.127 205.594 319.219 175.503L346.512 148.209L319.219 120.916C289.116 90.8134 249.099 74.2471 206.54 74.2471C163.98 74.2471 123.952 90.825 93.8606 120.916L66.5673 148.209Z" fill="#472F7D" style="fill:#472F7D;fill:color(display-p3 0.2784 0.1843 0.4902);fill-opacity:1;"/>
<path d="M225.422 225.74C268.237 215.311 294.49 172.148 284.061 129.333C273.632 86.5184 230.469 60.2646 187.654 70.6938C144.839 81.1231 118.585 124.286 129.015 167.101C139.444 209.916 182.607 236.17 225.422 225.74Z" fill="#E7DCEC" style="fill:#E7DCEC;fill:color(display-p3 0.9059 0.8627 0.9255);fill-opacity:1;"/>
<path d="M206.539 229.938C161.472 229.938 124.811 193.276 124.811 148.209C124.811 103.142 161.472 66.4805 206.539 66.4805C251.606 66.4805 288.268 103.142 288.268 148.209C288.268 193.276 251.606 229.938 206.539 229.938ZM206.539 70.3696C163.62 70.3696 128.688 105.29 128.688 148.221C128.688 191.152 163.609 226.072 206.539 226.072C249.47 226.072 284.391 191.152 284.391 148.221C284.391 105.29 249.47 70.3696 206.539 70.3696Z" fill="#472F7D" style="fill:#472F7D;fill:color(display-p3 0.2784 0.1843 0.4902);fill-opacity:1;"/>
<path d="M216.003 189.074C238.571 183.848 252.628 161.316 247.402 138.748C242.175 116.18 219.643 102.123 197.075 107.35C174.508 112.576 160.45 135.108 165.677 157.676C170.904 180.244 193.435 194.301 216.003 189.074Z" fill="#472F7D" style="fill:#472F7D;fill:color(display-p3 0.2784 0.1843 0.4902);fill-opacity:1;"/>
<path d="M233.985 146.096C243.897 146.096 251.933 138.061 251.933 128.148C251.933 118.236 243.897 110.2 233.985 110.2C224.073 110.2 216.037 118.236 216.037 128.148C216.037 138.061 224.073 146.096 233.985 146.096Z" fill="white" style="fill:white;fill-opacity:1;"/>
<path d="M233.984 146.828C223.687 146.828 215.305 138.446 215.305 128.148C215.305 117.851 223.687 109.469 233.984 109.469C244.281 109.469 252.663 117.851 252.663 128.148C252.663 138.446 244.281 146.828 233.984 146.828ZM233.984 110.932C224.488 110.932 216.756 118.664 216.756 128.16C216.756 137.656 224.488 145.388 233.984 145.388C243.48 145.388 251.212 137.656 251.212 128.16C251.212 118.664 243.48 110.932 233.984 110.932Z" fill="#472F7D" style="fill:#472F7D;fill:color(display-p3 0.2784 0.1843 0.4902);fill-opacity:1;"/>
<path d="M192.645 175.874C196.486 175.874 199.599 172.761 199.599 168.92C199.599 165.079 196.486 161.966 192.645 161.966C188.805 161.966 185.691 165.079 185.691 168.92C185.691 172.761 188.805 175.874 192.645 175.874Z" fill="white" style="fill:white;fill-opacity:1;"/>
<path d="M192.645 176.164C188.651 176.164 185.412 172.913 185.412 168.932C185.412 164.95 188.663 161.699 192.645 161.699C196.627 161.699 199.877 164.95 199.877 168.932C199.877 172.913 196.627 176.164 192.645 176.164ZM192.645 162.256C188.965 162.256 185.969 165.251 185.969 168.932C185.969 172.612 188.965 175.607 192.645 175.607C196.325 175.607 199.32 172.612 199.32 168.932C199.32 165.251 196.325 162.256 192.645 162.256Z" fill="#472F7D" style="fill:#472F7D;fill:color(display-p3 0.2784 0.1843 0.4902);fill-opacity:1;"/>
<g opacity="0.25">
<path d="M352.989 31.3855H290.241C287.228 31.3855 284.785 33.8284 284.785 36.8418V64.077C284.785 67.0905 287.228 69.5334 290.241 69.5334H352.989C356.003 69.5334 358.446 67.0905 358.446 64.077V36.8418C358.446 33.8284 356.003 31.3855 352.989 31.3855Z" fill="#472F7D" style="fill:#472F7D;fill:color(display-p3 0.2784 0.1843 0.4902);fill-opacity:1;"/>
</g>
<path d="M356.808 29.2148H290.763C288.66 29.2148 286.955 30.9197 286.955 33.0227V63.5549C286.955 65.6579 288.66 67.3627 290.763 67.3627H356.808C358.911 67.3627 360.616 65.6579 360.616 63.5549V33.0227C360.616 30.9197 358.911 29.2148 356.808 29.2148Z" fill="white" style="fill:white;fill-opacity:1;"/>
<path d="M359.734 66.4688C358.956 67.2466 357.911 67.6878 356.809 67.6878H290.775C288.488 67.6878 286.631 65.8303 286.631 63.5433V33.0227C286.631 31.9198 287.06 30.875 287.838 30.0971C288.616 29.3193 289.661 28.8782 290.764 28.8782H356.797C357.9 28.8782 358.945 29.3077 359.722 30.0855C360.5 30.8633 360.93 31.9082 360.93 33.0111V63.5317C360.93 64.6345 360.5 65.6794 359.711 66.4572L359.734 66.4688ZM288.303 30.5615C287.641 31.2232 287.281 32.0939 287.281 33.0227V63.5433C287.281 65.4588 288.837 67.026 290.764 67.026H356.797C357.726 67.026 358.596 66.6661 359.258 66.0044C359.92 65.3427 360.28 64.472 360.28 63.5433V33.0227C360.28 32.0939 359.92 31.2232 359.258 30.5615C358.596 29.8998 357.726 29.5399 356.797 29.5399H290.764C289.835 29.5399 288.964 29.8998 288.303 30.5615Z" fill="#472F7D" style="fill:#472F7D;fill:color(display-p3 0.2784 0.1843 0.4902);fill-opacity:1;"/>
<path d="M295.561 31.4439V65.1338H353.084V31.4439H295.561Z" fill="#E7DCEC" style="fill:#E7DCEC;fill:color(display-p3 0.9059 0.8627 0.9255);fill-opacity:1;"/>
<path d="M353.234 65.2847H295.408V31.293H353.234V65.2847ZM295.71 64.9713H352.92V31.5832H295.71V64.9713Z" fill="#472F7D" style="fill:#472F7D;fill:color(display-p3 0.2784 0.1843 0.4902);fill-opacity:1;"/>
<path d="M292.262 44.4579V51.0636C292.262 51.3422 292.041 51.5628 291.763 51.5628C291.484 51.5628 291.264 51.3422 291.264 51.0636V44.4579C291.264 44.1793 291.484 43.9587 291.763 43.9587C292.041 43.9587 292.262 44.1793 292.262 44.4579Z" fill="white" style="fill:white;fill-opacity:1;"/>
<path d="M292.226 51.5279C292.098 51.6556 291.936 51.7253 291.761 51.7253C291.402 51.7253 291.111 51.435 291.111 51.0752V44.4695C291.111 44.1212 291.413 43.8078 291.761 43.8194C292.121 43.8194 292.412 44.1096 292.412 44.4695V51.0752C292.412 51.2493 292.342 51.4118 292.214 51.5395L292.226 51.5279ZM291.506 44.2025C291.436 44.2722 291.402 44.3534 291.402 44.4579V51.0636C291.402 51.2609 291.564 51.4118 291.75 51.4118C291.936 51.4118 292.098 51.2493 292.098 51.0636V44.4579C292.098 44.2606 291.936 44.1096 291.75 44.1096C291.657 44.1096 291.564 44.1445 291.494 44.2141L291.506 44.2025Z" fill="#472F7D" style="fill:#472F7D;fill:color(display-p3 0.2784 0.1843 0.4902);fill-opacity:1;"/>
<path d="M229.689 280.055L222.631 279.057L223.652 271.987C223.827 270.756 225.034 269.909 226.323 270.083L228.737 270.42C230.003 270.594 230.885 271.708 230.711 272.916L229.689 280.044V280.055Z" fill="#E7DCEC" style="fill:#E7DCEC;fill:color(display-p3 0.9059 0.8627 0.9255);fill-opacity:1;"/>
<path d="M230.026 280.496L222.189 279.382L223.257 271.917C223.466 270.501 224.848 269.468 226.369 269.688L228.783 270.025C229.526 270.129 230.177 270.512 230.606 271.093C231.012 271.639 231.187 272.3 231.094 272.974L230.014 280.496H230.026ZM223.072 278.72L229.352 279.614L230.316 272.869C230.386 272.416 230.258 271.952 229.979 271.569C229.666 271.151 229.201 270.884 228.667 270.814L226.253 270.478C225.161 270.327 224.163 271.046 224.024 272.045L223.06 278.732L223.072 278.72Z" fill="#472F7D" style="fill:#472F7D;fill:color(display-p3 0.2784 0.1843 0.4902);fill-opacity:1;"/>
<path d="M220.122 296.494L227.18 297.492L226.158 304.562C225.984 305.793 224.777 306.64 223.488 306.466L221.074 306.13C219.808 305.955 218.926 304.841 219.1 303.634L220.122 296.505V296.494Z" fill="#E7DCEC" style="fill:#E7DCEC;fill:color(display-p3 0.9059 0.8627 0.9255);fill-opacity:1;"/>
<path d="M223.837 306.884C223.71 306.884 223.57 306.884 223.431 306.861L221.016 306.524C220.273 306.42 219.623 306.036 219.194 305.456C218.787 304.91 218.613 304.249 218.706 303.575L219.786 296.052L227.622 297.167L226.554 304.632C226.368 305.92 225.207 306.896 223.837 306.896V306.884ZM220.459 296.935L219.495 303.68C219.426 304.132 219.554 304.597 219.832 304.98C220.146 305.398 220.61 305.665 221.144 305.735L223.559 306.071C224.65 306.234 225.648 305.502 225.788 304.504L226.751 297.817L220.471 296.923L220.459 296.935Z" fill="#472F7D" style="fill:#472F7D;fill:color(display-p3 0.2784 0.1843 0.4902);fill-opacity:1;"/>
<path d="M233.184 293.023L234.194 286.011L241.275 287.009C242.541 287.195 243.423 288.298 243.249 289.505L242.877 292.106C242.703 293.336 241.496 294.184 240.207 294.009L233.195 293.011L233.184 293.023Z" fill="#E7DCEC" style="fill:#E7DCEC;fill:color(display-p3 0.9059 0.8627 0.9255);fill-opacity:1;"/>
<path d="M240.555 294.427C240.416 294.427 240.288 294.427 240.149 294.404L232.742 293.359L233.857 285.581L241.321 286.637C242.064 286.742 242.715 287.125 243.144 287.706C243.55 288.251 243.725 288.913 243.632 289.586L243.26 292.187C243.074 293.475 241.913 294.45 240.555 294.45V294.427ZM233.624 292.686L240.253 293.626C241.356 293.789 242.343 293.057 242.482 292.059L242.854 289.459C242.923 289.006 242.796 288.541 242.517 288.158C242.204 287.74 241.739 287.473 241.205 287.404L234.518 286.452L233.624 292.686Z" fill="#472F7D" style="fill:#472F7D;fill:color(display-p3 0.2784 0.1843 0.4902);fill-opacity:1;"/>
<path d="M216.626 283.527L215.616 290.539L208.535 289.54C207.269 289.366 206.387 288.251 206.561 287.044L206.932 284.444C207.107 283.213 208.314 282.366 209.603 282.54L216.615 283.538L216.626 283.527Z" fill="#E7DCEC" style="fill:#E7DCEC;fill:color(display-p3 0.9059 0.8627 0.9255);fill-opacity:1;"/>
<path d="M215.954 290.98L208.489 289.923C207.746 289.819 207.096 289.436 206.666 288.855C206.26 288.309 206.086 287.648 206.179 286.974L206.55 284.374C206.759 282.958 208.152 281.924 209.673 282.145L217.08 283.19L215.965 290.98H215.954ZM209.255 282.9C208.28 282.9 207.444 283.584 207.316 284.49L206.945 287.09C206.875 287.543 207.003 288.008 207.282 288.391C207.595 288.809 208.059 289.076 208.593 289.145L215.28 290.097L216.174 283.863L209.545 282.923C209.441 282.911 209.348 282.9 209.255 282.9Z" fill="#472F7D" style="fill:#472F7D;fill:color(display-p3 0.2784 0.1843 0.4902);fill-opacity:1;"/>
<path d="M234.145 285.813L229.873 280.148L235.515 275.945C236.572 275.156 238.092 275.365 238.882 276.398L240.426 278.441C241.157 279.405 240.96 280.752 239.973 281.483L234.168 285.813H234.145Z" fill="#E7DCEC" style="fill:#E7DCEC;fill:color(display-p3 0.9059 0.8627 0.9255);fill-opacity:1;"/>
<path d="M234.063 286.359L229.314 280.067L235.27 275.632C236.454 274.75 238.3 275.005 239.182 276.166L240.726 278.209C241.144 278.755 241.318 279.428 241.214 280.09C241.121 280.775 240.75 281.378 240.181 281.796L234.063 286.359ZM230.417 280.229L234.225 285.267L239.716 281.169C240.111 280.879 240.366 280.45 240.436 279.974C240.506 279.509 240.378 279.057 240.099 278.673L238.555 276.63C237.928 275.806 236.593 275.62 235.746 276.259L230.429 280.229H230.417Z" fill="#472F7D" style="fill:#472F7D;fill:color(display-p3 0.2784 0.1843 0.4902);fill-opacity:1;"/>
<path d="M215.677 290.724L219.949 296.389L214.307 300.592C213.25 301.381 211.729 301.172 210.94 300.139L209.396 298.096C208.665 297.132 208.862 295.786 209.849 295.054L215.653 290.724H215.677Z" fill="#E7DCEC" style="fill:#E7DCEC;fill:color(display-p3 0.9059 0.8627 0.9255);fill-opacity:1;"/>
<path d="M212.855 301.463C211.972 301.463 211.148 301.056 210.626 300.371L209.082 298.328C208.664 297.783 208.49 297.109 208.594 296.447C208.687 295.762 209.058 295.159 209.627 294.741L215.745 290.178L220.494 296.471L214.538 300.905C214.05 301.265 213.47 301.463 212.855 301.463ZM215.594 291.27L210.103 295.368C209.709 295.658 209.453 296.088 209.384 296.564C209.314 297.028 209.442 297.481 209.72 297.864L211.264 299.907C211.891 300.731 213.226 300.917 214.074 300.278L219.391 296.308L215.583 291.27H215.594Z" fill="#472F7D" style="fill:#472F7D;fill:color(display-p3 0.2784 0.1843 0.4902);fill-opacity:1;"/>
<path d="M227.379 297.446L233.079 293.197L237.456 298.99C238.187 299.953 237.99 301.3 237.003 302.031L234.995 303.529C233.938 304.318 232.417 304.109 231.628 303.076L227.379 297.446Z" fill="#E7DCEC" style="fill:#E7DCEC;fill:color(display-p3 0.9059 0.8627 0.9255);fill-opacity:1;"/>
<path d="M233.542 304.388C232.66 304.388 231.835 303.982 231.313 303.297L226.82 297.353L233.147 292.639L237.756 298.746C238.174 299.291 238.348 299.965 238.244 300.627C238.151 301.311 237.779 301.915 237.211 302.333L235.202 303.831C234.715 304.191 234.134 304.388 233.519 304.388H233.542ZM227.935 297.527L231.952 302.832C232.578 303.657 233.914 303.842 234.761 303.204L236.769 301.706C237.164 301.416 237.42 300.986 237.489 300.522C237.559 300.058 237.431 299.605 237.152 299.222L233.008 293.742L227.935 297.527Z" fill="#472F7D" style="fill:#472F7D;fill:color(display-p3 0.2784 0.1843 0.4902);fill-opacity:1;"/>
<path d="M222.434 279.103L216.734 283.352L212.357 277.559C211.626 276.596 211.823 275.249 212.81 274.518L214.818 273.02C215.874 272.231 217.395 272.44 218.185 273.473L222.434 279.103Z" fill="#E7DCEC" style="fill:#E7DCEC;fill:color(display-p3 0.9059 0.8627 0.9255);fill-opacity:1;"/>
<path d="M216.651 283.898L212.043 277.791C211.625 277.246 211.451 276.572 211.555 275.911C211.648 275.226 212.019 274.622 212.588 274.204L214.597 272.707C215.781 271.824 217.627 272.08 218.509 273.241L223.002 279.184L216.675 283.898H216.651ZM216.268 272.939C215.827 272.939 215.398 273.078 215.049 273.333L213.041 274.831C212.646 275.121 212.391 275.551 212.321 276.015C212.252 276.48 212.379 276.932 212.658 277.315L216.802 282.795L221.876 279.01L217.859 273.705C217.487 273.217 216.895 272.927 216.257 272.927L216.268 272.939Z" fill="#472F7D" style="fill:#472F7D;fill:color(display-p3 0.2784 0.1843 0.4902);fill-opacity:1;"/>
<path d="M226.542 276.885C220.006 275.957 213.957 280.473 213.029 286.962C212.1 293.452 216.639 299.465 223.175 300.382C229.711 301.311 235.76 296.795 236.688 290.306C237.617 283.816 233.078 277.803 226.542 276.885ZM223.744 296.377C219.437 295.762 216.442 291.803 217.057 287.531C217.672 283.259 221.654 280.287 225.961 280.891C230.268 281.506 233.264 285.465 232.648 289.737C232.033 294.009 228.051 296.981 223.744 296.377Z" fill="#E7DCEC" style="fill:#E7DCEC;fill:color(display-p3 0.9059 0.8627 0.9255);fill-opacity:1;"/>
<path d="M224.868 300.905C224.288 300.905 223.696 300.859 223.115 300.777C219.842 300.313 216.939 298.606 214.966 295.971C213.004 293.359 212.18 290.143 212.644 286.916C213.503 280.914 218.75 276.386 224.845 276.386C225.426 276.386 226.018 276.433 226.598 276.514C229.872 276.979 232.774 278.685 234.748 281.32C236.71 283.932 237.534 287.148 237.07 290.376C236.211 296.378 230.963 300.905 224.868 300.905ZM224.834 277.164C219.122 277.164 214.211 281.402 213.41 287.021C212.981 290.039 213.747 293.046 215.581 295.495C217.439 297.968 220.144 299.57 223.22 300C223.766 300.081 224.323 300.116 224.868 300.116C230.58 300.116 235.491 295.878 236.292 290.259C236.721 287.241 235.955 284.234 234.121 281.785C232.264 279.312 229.559 277.71 226.482 277.28C225.937 277.199 225.379 277.164 224.834 277.164ZM224.857 296.854C224.462 296.854 224.067 296.83 223.684 296.772C221.49 296.459 219.551 295.321 218.228 293.545C216.916 291.792 216.359 289.644 216.672 287.473C217.253 283.456 220.759 280.415 224.845 280.415C225.24 280.415 225.635 280.438 226.018 280.496C228.212 280.81 230.151 281.947 231.474 283.724C232.786 285.476 233.343 287.624 233.03 289.795C232.449 293.812 228.943 296.854 224.857 296.854ZM224.845 281.216C221.154 281.216 217.973 283.956 217.45 287.601C217.172 289.551 217.671 291.502 218.855 293.092C220.051 294.694 221.815 295.727 223.8 296.006C224.149 296.052 224.509 296.076 224.868 296.076C228.56 296.076 231.741 293.336 232.264 289.691C232.542 287.74 232.043 285.79 230.859 284.199C229.663 282.597 227.898 281.564 225.913 281.286C225.565 281.239 225.205 281.216 224.845 281.216Z" fill="#472F7D" style="fill:#472F7D;fill:color(display-p3 0.2784 0.1843 0.4902);fill-opacity:1;"/>
<path d="M7.10284 171.138H23.7969V163.278H7.10284V171.138Z" fill="white" style="fill:white;fill-opacity:1;"/>
<path d="M24.2267 171.579H6.65039V162.837H24.2267V171.579ZM7.53269 170.697H23.3444V163.719H7.53269V170.697Z" fill="#472F7D" style="fill:#472F7D;fill:color(display-p3 0.2784 0.1843 0.4902);fill-opacity:1;"/>
<path d="M7.10284 159.854H23.7969V155.93H7.10284V159.854Z" fill="white" style="fill:white;fill-opacity:1;"/>
<path d="M24.2267 160.283H6.65039V155.477H24.2267V160.283ZM7.53269 159.401H23.3444V156.359H7.53269V159.401Z" fill="#472F7D" style="fill:#472F7D;fill:color(display-p3 0.2784 0.1843 0.4902);fill-opacity:1;"/>
<path d="M15.4421 199.487L29.8723 184.151H23.7891V175.05H7.09505V184.151H1.02344L15.4421 199.487Z" fill="white" style="fill:white;fill-opacity:1;"/>
<path d="M15.4402 200.126L0 183.699H6.65208V174.609H24.2284V183.699H30.8805L15.4402 200.126ZM2.04322 184.593L15.4402 198.849L28.8373 184.593H23.3461V175.503H7.53438V184.593H2.04322Z" fill="#472F7D" style="fill:#472F7D;fill:color(display-p3 0.2784 0.1843 0.4902);fill-opacity:1;"/>
<g opacity="0.25">
<path d="M72.9405 68.036C74.4265 68.036 75.866 68.1637 77.2824 68.3959C80.4981 61.7206 87.8699 57.0537 96.4492 57.0537C107.989 57.0537 117.346 65.4936 117.346 75.9071C117.346 75.9303 117.346 75.9535 117.346 75.9883C127.086 76.7894 134.725 84.1844 134.725 93.1816C134.725 102.713 126.157 110.444 115.593 110.444H72.1163C59.5203 110.027 49.4551 100.693 49.4551 89.2344C49.4551 77.7761 59.973 68.0244 72.9521 68.0244L72.9405 68.036Z" fill="#472F7D" style="fill:#472F7D;fill:color(display-p3 0.2784 0.1843 0.4902);fill-opacity:1;"/>
</g>
<path d="M48.1777 85.1596C48.1777 73.4459 58.6957 63.9496 71.6748 63.9496C73.1608 63.9496 74.6003 64.0773 76.0166 64.3095C79.2324 57.6342 86.6042 52.9673 95.1834 52.9673C106.723 52.9673 116.08 61.4072 116.08 71.8206C116.08 71.8439 116.08 71.8671 116.08 71.9019C125.82 72.7029 133.459 80.098 133.459 89.0951C133.459 98.6263 124.891 106.358 114.327 106.358H70.8505C58.2545 105.94 48.1893 96.6063 48.1893 85.148L48.1777 85.1596Z" fill="white" style="fill:white;fill-opacity:1;"/>
<path d="M114.328 107.275H69.9463V107.217C57.1646 106.404 47.2852 96.8617 47.2852 85.1596C47.2852 73.4575 58.2326 63.0441 71.6993 63.0441C72.9763 63.0441 74.2533 63.137 75.5188 63.3111C79.1292 56.4617 86.7797 52.0618 95.1964 52.0618C106.945 52.0618 116.557 60.5249 116.987 71.0777C126.959 72.2618 134.377 79.8774 134.377 89.0951C134.377 99.1139 125.38 107.275 114.328 107.275ZM71.3278 105.453H114.317C124.37 105.453 132.543 98.1155 132.543 89.0951C132.543 80.5856 125.427 73.5852 116 72.8074L115.164 72.7378V71.9019C115.164 61.9296 106.202 53.8728 95.1731 53.8728C87.1976 53.8728 79.9999 58.1218 76.8306 64.6926L76.5287 65.3079L75.8554 65.1918C74.4739 64.9596 73.0692 64.8435 71.6645 64.8435C59.2078 64.8435 49.073 73.9451 49.073 85.1364C49.073 96.3277 58.639 105.035 70.8635 105.418H71.3162L71.3278 105.453Z" fill="#472F7D" style="fill:#472F7D;fill:color(display-p3 0.2784 0.1843 0.4902);fill-opacity:1;"/>
<g opacity="0.25">
<path d="M171.641 8.39979C177.109 8.39979 181.915 11.2557 184.655 15.5395C185.723 15.226 186.861 15.0519 188.022 15.0519C194.72 15.0519 200.142 20.485 200.142 27.1719C200.142 33.8588 194.709 39.2919 188.022 39.2919H171.641C163.109 39.2919 156.189 32.3728 156.189 23.84C156.189 15.3073 163.109 8.38818 171.641 8.38818V8.39979Z" fill="#472F7D" style="fill:#472F7D;fill:color(display-p3 0.2784 0.1843 0.4902);fill-opacity:1;"/>
</g>
<path d="M169.237 6.58851C174.705 6.58851 179.511 9.44438 182.251 13.7282C183.319 13.4147 184.457 13.2406 185.618 13.2406C192.316 13.2406 197.738 18.6737 197.738 25.3606C197.738 32.0475 192.305 37.4806 185.618 37.4806H169.237C160.704 37.4806 153.785 30.5615 153.785 22.0288C153.785 13.496 160.704 6.5769 169.237 6.5769V6.58851Z" fill="white" style="fill:white;fill-opacity:1;"/>
<path d="M185.619 38.3978H169.238C160.218 38.3978 152.893 31.0608 152.893 22.0521C152.893 13.0433 160.23 5.7063 169.238 5.7063C174.613 5.7063 179.582 8.31837 182.647 12.7183C183.634 12.4861 184.632 12.37 185.631 12.37C192.805 12.37 198.656 18.2094 198.656 25.3955C198.656 32.5816 192.817 38.421 185.631 38.421L185.619 38.3978ZM169.238 7.49412C161.216 7.49412 154.68 14.0185 154.68 22.0521C154.68 30.0856 161.205 36.61 169.238 36.61H185.619C191.807 36.61 196.845 31.5716 196.845 25.3839C196.845 19.1962 191.807 14.1578 185.619 14.1578C184.574 14.1578 183.529 14.3087 182.496 14.6106L181.846 14.7963L181.486 14.2275C178.793 10.0133 174.207 7.49412 169.227 7.49412H169.238Z" fill="#472F7D" style="fill:#472F7D;fill:color(display-p3 0.2784 0.1843 0.4902);fill-opacity:1;"/>
<g opacity="0.25">
<path d="M313.248 195.269L265.477 243.459L331.846 309.252L379.618 261.062L313.248 195.269Z" fill="#472F7D" style="fill:#472F7D;fill:color(display-p3 0.2784 0.1843 0.4902);fill-opacity:1;"/>
</g>
<path d="M309.18 196.157L261.408 244.347L327.778 310.14L375.549 261.95L309.18 196.157Z" fill="white" style="fill:white;fill-opacity:1;"/>
<path d="M327.774 311.063L260.51 244.38L309.176 195.296L376.439 261.98L327.774 311.063ZM262.298 244.368L327.774 309.287L374.663 261.991L309.187 197.073L262.298 244.368Z" fill="#472F7D" style="fill:#472F7D;fill:color(display-p3 0.2784 0.1843 0.4902);fill-opacity:1;"/>
<path d="M308.085 207.826L273.619 242.594L275.672 244.629L310.138 209.861L308.085 207.826Z" fill="white" style="fill:white;fill-opacity:1;"/>
<path d="M275.682 245.1L273.186 242.627L273.406 242.406L308.094 207.416L310.59 209.901L310.37 210.121L275.682 245.111V245.1ZM274.068 242.615L275.67 244.206L309.696 209.889L308.094 208.299L274.068 242.615Z" fill="#E7DCEC" style="fill:#E7DCEC;fill:color(display-p3 0.9059 0.8627 0.9255);fill-opacity:1;"/>
<path d="M315.633 211.971L281.812 246.087L282.893 247.158L316.713 213.042L315.633 211.971Z" fill="#E7DCEC" style="fill:#E7DCEC;fill:color(display-p3 0.9059 0.8627 0.9255);fill-opacity:1;"/>
<path d="M317.568 213.882L283.748 247.998L284.828 249.069L318.648 214.952L317.568 213.882Z" fill="#E7DCEC" style="fill:#E7DCEC;fill:color(display-p3 0.9059 0.8627 0.9255);fill-opacity:1;"/>
<path d="M319.504 215.803L285.684 249.92L286.764 250.991L320.584 216.874L319.504 215.803Z" fill="#E7DCEC" style="fill:#E7DCEC;fill:color(display-p3 0.9059 0.8627 0.9255);fill-opacity:1;"/>
<path d="M321.431 217.722L287.611 251.839L288.691 252.909L322.511 218.793L321.431 217.722Z" fill="#E7DCEC" style="fill:#E7DCEC;fill:color(display-p3 0.9059 0.8627 0.9255);fill-opacity:1;"/>
<path d="M280.137 247.829L277.848 250.137L280.007 252.279L282.296 249.971L280.137 247.829Z" fill="#E7DCEC" style="fill:#E7DCEC;fill:color(display-p3 0.9059 0.8627 0.9255);fill-opacity:1;"/>
<path d="M324.326 220.582L290.506 254.698L291.586 255.769L325.406 221.653L324.326 220.582Z" fill="#E7DCEC" style="fill:#E7DCEC;fill:color(display-p3 0.9059 0.8627 0.9255);fill-opacity:1;"/>
<path d="M326.262 222.509L292.441 256.625L293.521 257.696L327.342 223.579L326.262 222.509Z" fill="#E7DCEC" style="fill:#E7DCEC;fill:color(display-p3 0.9059 0.8627 0.9255);fill-opacity:1;"/>
<path d="M328.197 224.431L294.377 258.548L295.457 259.618L329.277 225.502L328.197 224.431Z" fill="#E7DCEC" style="fill:#E7DCEC;fill:color(display-p3 0.9059 0.8627 0.9255);fill-opacity:1;"/>
<path d="M330.135 226.341L296.314 260.458L297.395 261.528L331.215 227.412L330.135 226.341Z" fill="#E7DCEC" style="fill:#E7DCEC;fill:color(display-p3 0.9059 0.8627 0.9255);fill-opacity:1;"/>
<path d="M288.83 256.459L286.541 258.767L288.701 260.909L290.99 258.6L288.83 256.459Z" fill="#E7DCEC" style="fill:#E7DCEC;fill:color(display-p3 0.9059 0.8627 0.9255);fill-opacity:1;"/>
<path d="M333.023 229.209L299.203 263.326L300.283 264.396L334.103 230.28L333.023 229.209Z" fill="#E7DCEC" style="fill:#E7DCEC;fill:color(display-p3 0.9059 0.8627 0.9255);fill-opacity:1;"/>
<path d="M334.967 231.128L301.146 265.244L302.227 266.315L336.047 232.199L334.967 231.128Z" fill="#E7DCEC" style="fill:#E7DCEC;fill:color(display-p3 0.9059 0.8627 0.9255);fill-opacity:1;"/>
<path d="M336.894 233.058L303.074 267.175L304.154 268.245L337.974 234.129L336.894 233.058Z" fill="#E7DCEC" style="fill:#E7DCEC;fill:color(display-p3 0.9059 0.8627 0.9255);fill-opacity:1;"/>
<path d="M338.83 234.968L305.01 269.085L306.09 270.156L339.91 236.039L338.83 234.968Z" fill="#E7DCEC" style="fill:#E7DCEC;fill:color(display-p3 0.9059 0.8627 0.9255);fill-opacity:1;"/>
<path d="M297.533 265.031L295.244 267.339L297.404 269.48L299.693 267.172L297.533 265.031Z" fill="#E7DCEC" style="fill:#E7DCEC;fill:color(display-p3 0.9059 0.8627 0.9255);fill-opacity:1;"/>
<path d="M341.728 237.837L307.908 271.953L308.988 273.024L342.808 238.907L341.728 237.837Z" fill="#E7DCEC" style="fill:#E7DCEC;fill:color(display-p3 0.9059 0.8627 0.9255);fill-opacity:1;"/>
<path d="M343.664 239.747L309.844 273.864L310.924 274.934L344.744 240.818L343.664 239.747Z" fill="#E7DCEC" style="fill:#E7DCEC;fill:color(display-p3 0.9059 0.8627 0.9255);fill-opacity:1;"/>
<path d="M345.599 241.674L311.779 275.791L312.859 276.861L346.679 242.745L345.599 241.674Z" fill="#E7DCEC" style="fill:#E7DCEC;fill:color(display-p3 0.9059 0.8627 0.9255);fill-opacity:1;"/>
<path d="M347.525 243.596L313.705 277.712L314.785 278.783L348.605 244.667L347.525 243.596Z" fill="#E7DCEC" style="fill:#E7DCEC;fill:color(display-p3 0.9059 0.8627 0.9255);fill-opacity:1;"/>
<path d="M347.525 243.596L313.705 277.712L314.785 278.783L348.605 244.667L347.525 243.596Z" fill="#E7DCEC" style="fill:#E7DCEC;fill:color(display-p3 0.9059 0.8627 0.9255);fill-opacity:1;"/>
<path d="M350.734 246.762L312.941 284.885L314.467 286.398L352.259 248.274L350.734 246.762Z" fill="#E7DCEC" style="fill:#E7DCEC;fill:color(display-p3 0.9059 0.8627 0.9255);fill-opacity:1;"/>
<path d="M353.566 249.564L315.773 287.688L317.299 289.2L355.091 251.076L353.566 249.564Z" fill="#E7DCEC" style="fill:#E7DCEC;fill:color(display-p3 0.9059 0.8627 0.9255);fill-opacity:1;"/>
<path d="M356.378 252.363L318.586 290.487L320.111 291.999L357.903 253.875L356.378 252.363Z" fill="#E7DCEC" style="fill:#E7DCEC;fill:color(display-p3 0.9059 0.8627 0.9255);fill-opacity:1;"/>
<path d="M359.218 255.162L321.426 293.286L322.951 294.798L360.743 256.674L359.218 255.162Z" fill="#E7DCEC" style="fill:#E7DCEC;fill:color(display-p3 0.9059 0.8627 0.9255);fill-opacity:1;"/>
<path d="M362.03 257.973L324.238 296.096L325.764 297.608L363.556 259.485L362.03 257.973Z" fill="#E7DCEC" style="fill:#E7DCEC;fill:color(display-p3 0.9059 0.8627 0.9255);fill-opacity:1;"/>
<path d="M347.956 277.823L327.074 298.888L328.599 300.4L349.482 279.335L347.956 277.823Z" fill="#E7DCEC" style="fill:#E7DCEC;fill:color(display-p3 0.9059 0.8627 0.9255);fill-opacity:1;"/>
<path d="M306.232 273.718L303.943 276.026L306.103 278.168L308.392 275.86L306.232 273.718Z" fill="#E7DCEC" style="fill:#E7DCEC;fill:color(display-p3 0.9059 0.8627 0.9255);fill-opacity:1;"/>
<path d="M155.12 258.09L136.511 233.804L113.292 251.647L112.468 250.823C109.891 248.246 106.455 247.073 103.088 247.294H81.8547C81.6341 247.294 81.4368 247.329 81.2394 247.387C80.9492 247.48 80.6822 247.642 80.4732 247.863C80.1249 248.211 79.9043 248.71 79.9043 249.244C79.9043 249.685 79.9276 250.126 79.9972 250.556C84.3507 248.641 89.598 249.418 93.2317 252.889L74.1462 272.01C69.4096 276.758 69.4096 284.455 74.1462 289.203L91.0608 306.153C95.7973 310.901 103.483 310.901 108.231 306.153L129.383 284.966C132.053 282.284 133.225 278.674 132.877 275.168L155.109 258.079L155.12 258.09Z" fill="white" style="fill:white;fill-opacity:1;"/>
<path d="M99.6639 310.077C96.3205 310.077 93.186 308.776 90.8293 306.408L73.9147 289.459C69.0388 284.583 69.0388 276.63 73.9147 271.755L92.7332 252.901C90.5739 250.963 87.7993 249.906 84.8854 249.906C83.2485 249.906 81.6581 250.243 80.1605 250.893L79.7193 251.09L79.6497 250.614C79.5916 250.185 79.5568 249.72 79.5568 249.256C79.5568 248.641 79.8006 248.037 80.2301 247.619C80.4855 247.364 80.799 247.166 81.1473 247.062C81.3794 246.981 81.6116 246.946 81.8786 246.946H103.112C103.356 246.934 103.634 246.923 103.901 246.923C107.245 246.923 110.379 248.223 112.736 250.591L113.328 251.183L136.581 233.305L155.632 258.172L133.273 275.353C133.574 279.034 132.263 282.621 129.651 285.233L108.499 306.42C106.142 308.788 102.996 310.088 99.6639 310.088V310.077ZM84.8738 249.175C88.1012 249.175 91.1544 250.405 93.4878 252.623L93.7549 252.878L74.4023 272.254C69.8051 276.851 69.8051 284.339 74.4023 288.936L91.3169 305.886C93.5459 308.115 96.4946 309.345 99.6407 309.345C102.787 309.345 105.747 308.115 107.965 305.886L129.116 284.699C131.624 282.191 132.855 278.732 132.506 275.191L132.483 274.994L154.587 258.009L136.419 234.292L113.235 252.112L112.19 251.067C109.787 248.664 106.49 247.433 103.089 247.642H81.8322C81.6581 247.642 81.4955 247.666 81.333 247.724C81.1008 247.793 80.8802 247.933 80.7061 248.107C80.4159 248.397 80.2533 248.803 80.2533 249.233C80.2533 249.5 80.2533 249.767 80.2882 250.022C81.7393 249.453 83.2717 249.163 84.8506 249.163L84.8738 249.175Z" fill="#472F7D" style="fill:#472F7D;fill:color(display-p3 0.2784 0.1843 0.4902);fill-opacity:1;"/>
<path d="M127.824 295.855C125.468 298.212 121.66 298.212 119.303 295.855L117.306 293.858C118.479 295.031 119.071 296.586 119.071 298.13C119.071 299.675 118.479 301.219 117.306 302.391C114.95 304.748 111.142 304.748 108.785 302.391L107.206 300.812C109.563 303.169 109.563 306.988 107.206 309.345C104.85 311.702 101.042 311.702 98.6852 309.345L97.8029 308.463C97.8029 308.463 97.7217 308.544 97.6752 308.59C98.2557 309.542 98.5459 310.634 98.5459 311.713C98.5459 313.257 97.9538 314.79 96.7813 315.974C94.4246 318.331 90.6168 318.331 88.2602 315.974L80.7606 308.463C80.7606 308.463 80.7258 308.428 80.7026 308.405L59.5506 287.218C56.0446 283.712 55.1391 278.592 56.8108 274.239C56.9153 273.96 57.0314 273.693 57.1591 273.415L38.0039 254.224L60.6999 231.494L79.9828 250.753C80.0873 250.707 80.0757 250.591 80.1801 250.544C80.807 255.269 84.8587 258.915 89.7461 258.903H99.463L100.183 259.634L114.776 274.25L114.799 274.274L127.813 287.299C130.169 289.656 130.169 293.475 127.813 295.832L127.824 295.855Z" fill="white" style="fill:white;fill-opacity:1;"/>
<path d="M92.5218 318.11C90.8152 318.11 89.2132 317.448 88.0058 316.241L59.2962 287.485C55.8019 283.991 54.699 278.743 56.4752 274.123C56.5565 273.914 56.6377 273.717 56.7306 273.508L37.4941 254.236L60.7009 230.995L79.9838 250.254C79.9838 250.254 80.0187 250.231 80.0419 250.219L80.483 250.034L80.5411 250.51C81.1564 255.095 85.1035 258.555 89.7356 258.555H99.615L100.439 259.391L128.069 287.067C130.554 289.563 130.554 293.615 128.069 296.111C126.862 297.318 125.26 297.98 123.553 297.98C121.847 297.98 120.326 297.353 119.13 296.204C119.327 296.819 119.42 297.469 119.42 298.131C119.42 299.837 118.759 301.439 117.551 302.647C116.344 303.854 114.742 304.516 113.035 304.516C111.549 304.516 110.145 304.017 109.007 303.088C109.727 305.305 109.216 307.848 107.451 309.601C106.244 310.808 104.642 311.47 102.935 311.47C101.229 311.47 99.7775 310.866 98.5934 309.763C98.7908 310.39 98.8952 311.052 98.8952 311.713C98.8952 313.42 98.2335 315.022 97.0262 316.229C95.8188 317.437 94.2167 318.099 92.5102 318.099L92.5218 318.11ZM38.5274 254.236L57.6129 273.357L57.5084 273.589C57.3807 273.856 57.2646 274.111 57.1717 274.39C55.4884 278.743 56.5332 283.689 59.8303 286.986L88.5398 315.742C89.6079 316.81 91.0358 317.402 92.545 317.402C94.0542 317.402 95.4821 316.81 96.5502 315.742C97.6182 314.674 98.1987 313.246 98.1987 311.737C98.1987 310.703 97.9201 309.682 97.386 308.8L97.2351 308.544L97.8272 307.975L98.9649 309.113C100.033 310.181 101.461 310.773 102.97 310.773C104.479 310.773 105.907 310.181 106.975 309.113C109.181 306.907 109.181 303.308 106.975 301.091L107.486 300.58L109.065 302.159C110.133 303.227 111.561 303.819 113.07 303.819C114.579 303.819 116.007 303.227 117.075 302.159C118.143 301.091 118.735 299.663 118.735 298.154C118.735 296.645 118.143 295.205 117.075 294.137L117.586 293.626L119.583 295.623C120.651 296.691 122.079 297.283 123.588 297.283C125.097 297.283 126.525 296.691 127.593 295.623C129.799 293.406 129.799 289.818 127.593 287.601L99.348 259.309H89.782C84.9758 259.309 80.8661 255.873 79.949 251.218H79.9258L60.7126 232.039L38.539 254.259L38.5274 254.236Z" fill="#472F7D" style="fill:#472F7D;fill:color(display-p3 0.2784 0.1843 0.4902);fill-opacity:1;"/>
<path d="M48.7905 269.7L39.4219 258.543L69.1066 233.502L78.4869 244.659L48.7905 269.7Z" fill="#E7DCEC" style="fill:#E7DCEC;fill:color(display-p3 0.9059 0.8627 0.9255);fill-opacity:1;"/>
<path d="M48.7567 270.211L38.9121 258.509L69.1541 232.991L78.9987 244.694L48.7567 270.211ZM39.9337 258.59L48.8496 269.189L77.9887 244.612L69.0728 234.013L39.9337 258.59Z" fill="#472F7D" style="fill:#472F7D;fill:color(display-p3 0.2784 0.1843 0.4902);fill-opacity:1;"/>
<path d="M43.4954 269.607L32.4551 258.555L65.0189 225.933L76.0593 236.996L43.4954 269.607Z" fill="white" style="fill:white;fill-opacity:1;"/>
<path d="M43.4965 270.118L31.9453 258.543L65.0199 225.422L76.5711 236.996L43.4965 270.118ZM32.9669 258.555L43.4965 269.096L75.5495 236.996L65.0199 226.455L32.9669 258.555Z" fill="#472F7D" style="fill:#472F7D;fill:color(display-p3 0.2784 0.1843 0.4902);fill-opacity:1;"/>
<path d="M93.8817 252.762C92.4538 251.52 91.734 250.881 90.7124 250.347C86.1732 248.014 81.4947 249.535 80.3105 249.952C80.3338 250.579 80.9026 253.946 83.7353 256.512C86.3589 258.88 89.0523 258.567 89.7488 258.555C93.1503 258.555 96.5518 258.555 99.9533 258.555C98.6531 257.023 96.6447 255.165 93.8701 252.75L93.8817 252.762Z" fill="white" style="fill:white;fill-opacity:1;"/>
<path d="M55.0721 282.493L56.1402 281.425C58.0905 279.463 61.2715 279.463 63.2218 281.425C65.1721 283.387 65.1721 286.556 63.2218 288.518L62.1538 289.586C60.2034 291.548 57.0225 291.548 55.0721 289.586C53.1218 287.624 53.1218 284.455 55.0721 282.493Z" fill="white" style="fill:white;fill-opacity:1;"/>
<path d="M58.6115 291.42C57.172 291.42 55.8253 290.863 54.8153 289.842C52.7256 287.74 52.7256 284.339 54.8153 282.237L55.8833 281.169C56.8933 280.148 58.24 279.591 59.6795 279.591C61.1191 279.591 62.4658 280.148 63.4758 281.169C65.5654 283.271 65.5654 286.672 63.4758 288.773L62.4077 289.842C61.3977 290.863 60.0394 291.42 58.6115 291.42ZM59.6795 280.322C58.4374 280.322 57.2764 280.81 56.3941 281.68L55.3261 282.748C53.5151 284.559 53.5151 287.52 55.3261 289.331C56.2084 290.213 57.3693 290.689 58.6115 290.689C59.8537 290.689 61.0146 290.201 61.8969 289.331L62.965 288.263C64.776 286.452 64.776 283.491 62.965 281.68C62.0827 280.798 60.9217 280.322 59.6795 280.322Z" fill="#472F7D" style="fill:#472F7D;fill:color(display-p3 0.2784 0.1843 0.4902);fill-opacity:1;"/>
<path d="M62.4452 293.324L65.2314 290.538C67.1817 288.576 70.3627 288.576 72.313 290.538C74.2634 292.5 74.2634 295.669 72.313 297.631L69.5268 300.429C67.5764 302.391 64.3955 302.391 62.4452 300.429C60.4948 298.467 60.4948 295.298 62.4452 293.336V293.324Z" fill="white" style="fill:white;fill-opacity:1;"/>
<path d="M65.9865 302.252C64.547 302.252 63.2003 301.695 62.1903 300.673C60.1006 298.572 60.1006 295.17 62.1903 293.069L64.9765 290.283C65.9865 289.261 67.3332 288.704 68.7727 288.704C70.2123 288.704 71.5589 289.261 72.5689 290.283C74.6586 292.384 74.6586 295.785 72.5689 297.887L69.7827 300.685C68.7727 301.706 67.4144 302.263 65.9865 302.263V302.252ZM68.7727 289.424C67.5305 289.424 66.3696 289.911 65.4873 290.782L62.7011 293.568C60.8901 295.379 60.8901 298.339 62.7011 300.151C63.5834 301.033 64.7443 301.509 65.9865 301.509C67.2287 301.509 68.3896 301.021 69.2719 300.151L72.0581 297.353C73.8692 295.542 73.8692 292.581 72.0581 290.77C71.1758 289.888 70.0149 289.412 68.7727 289.412V289.424Z" fill="#472F7D" style="fill:#472F7D;fill:color(display-p3 0.2784 0.1843 0.4902);fill-opacity:1;"/>
<path d="M66.3561 292.337L67.4358 291.258C67.9814 290.712 68.8753 290.712 69.421 291.258L71.5919 293.429C72.1375 293.974 72.1375 294.868 71.5919 295.425L70.5122 296.505C69.3629 297.654 67.5054 297.654 66.3561 296.505C65.2068 295.356 65.2068 293.487 66.3561 292.337Z" fill="white" style="fill:white;fill-opacity:1;"/>
<path d="M68.4344 297.55C67.5986 297.55 66.8207 297.225 66.2287 296.633C65.0097 295.414 65.0097 293.429 66.2287 292.21L67.3083 291.13C67.912 290.526 68.9568 290.526 69.5489 291.13L71.7198 293.301C72.3351 293.916 72.3351 294.926 71.7198 295.553L70.6402 296.633C70.0481 297.225 69.2703 297.55 68.4344 297.55ZM68.4228 291.026C68.0978 291.026 67.7843 291.153 67.5521 291.385L66.4725 292.465C65.3928 293.545 65.3928 295.298 66.4725 296.377C66.9949 296.9 67.6914 297.19 68.4228 297.19C69.1542 297.19 69.8507 296.9 70.3732 296.377L71.4528 295.298C71.9288 294.822 71.9288 294.044 71.4528 293.568L69.2819 291.397C69.0497 291.165 68.7479 291.037 68.4112 291.037L68.4228 291.026Z" fill="#472F7D" style="fill:#472F7D;fill:color(display-p3 0.2784 0.1843 0.4902);fill-opacity:1;"/>
<path d="M57.2546 283.224L58.3342 282.144C58.8799 281.587 59.7738 281.587 60.331 282.144L62.5019 284.327C63.0476 284.873 63.0476 285.778 62.5019 286.324L61.4223 287.403C60.273 288.553 58.4039 288.553 57.2546 287.403C56.1053 286.254 56.1053 284.385 57.2546 283.224Z" fill="white" style="fill:white;fill-opacity:1;"/>
<path d="M59.3445 288.448C58.5086 288.448 57.7192 288.123 57.1271 287.531C55.9081 286.312 55.9081 284.315 57.1271 283.096L58.2068 282.017C58.8105 281.413 59.8553 281.413 60.459 282.017L62.6299 284.199C63.2452 284.815 63.2452 285.836 62.6299 286.451L61.5502 287.531C60.9582 288.123 60.1687 288.448 59.3329 288.448H59.3445ZM59.3329 281.912C59.0078 281.912 58.6944 282.04 58.4622 282.272L57.3825 283.352C56.3029 284.431 56.3029 286.196 57.3825 287.276C57.9049 287.798 58.6015 288.088 59.3445 288.088C60.0875 288.088 60.784 287.798 61.3064 287.276L62.3861 286.196C62.8621 285.72 62.8621 284.931 62.3861 284.455L60.2152 282.272C59.983 282.04 59.6695 281.912 59.3445 281.912H59.3329Z" fill="#472F7D" style="fill:#472F7D;fill:color(display-p3 0.2784 0.1843 0.4902);fill-opacity:1;"/>
<path d="M88.1844 250.73C87.5923 251.334 86.8029 251.74 85.909 251.845L83.9006 252.088C82.879 252.216 81.9503 251.485 81.8226 250.463L81.4395 247.387C81.6368 247.317 81.8342 247.282 82.0547 247.282H89.2757C89.2873 247.352 89.2989 247.41 89.3105 247.468C89.4614 248.722 89.0203 249.894 88.196 250.719L88.1844 250.73Z" fill="white" style="fill:white;fill-opacity:1;"/>
<path d="M83.6685 252.286C82.6353 252.286 81.7646 251.508 81.6369 250.486L81.2422 247.259L81.3815 247.213C81.6021 247.143 81.8226 247.108 82.0548 247.108H89.4151L89.4499 247.247C89.4615 247.317 89.4731 247.387 89.4847 247.468C89.6356 248.722 89.2177 249.964 88.3238 250.858C87.6737 251.508 86.8494 251.914 85.9439 252.03L83.9355 252.274C83.8543 252.274 83.773 252.286 83.6801 252.286H83.6685ZM81.6369 247.514L81.9968 250.44C82.1129 251.346 82.9371 252.019 83.8775 251.903L85.8859 251.659C86.7101 251.554 87.4647 251.195 88.0568 250.591C88.8694 249.767 89.2641 248.641 89.1248 247.491C89.1248 247.491 89.1248 247.468 89.1248 247.456H82.0664C81.9271 247.456 81.7878 247.468 81.6485 247.503L81.6369 247.514Z" fill="#472F7D" style="fill:#472F7D;fill:color(display-p3 0.2784 0.1843 0.4902);fill-opacity:1;"/>
<path d="M70.6415 302.066L73.9617 298.746C75.7728 296.935 78.7099 296.935 80.5209 298.746C82.332 300.557 82.332 303.494 80.5209 305.305L77.2007 308.625C75.3896 310.436 72.4525 310.436 70.6415 308.625C68.8304 306.814 68.8304 303.877 70.6415 302.066Z" fill="white" style="fill:white;fill-opacity:1;"/>
<path d="M73.9138 310.343C72.5788 310.343 71.325 309.821 70.3846 308.881C68.4343 306.93 68.4343 303.761 70.3846 301.811L73.7049 298.49C74.6452 297.55 75.899 297.028 77.2341 297.028C78.5691 297.028 79.8229 297.55 80.7633 298.49C82.7136 300.441 82.7136 303.61 80.7633 305.56L77.443 308.881C76.5027 309.821 75.2489 310.343 73.9138 310.343ZM77.2341 297.747C76.0964 297.747 75.0167 298.189 74.2157 299.001L70.8954 302.321C69.2237 303.993 69.2237 306.71 70.8954 308.37C71.6965 309.182 72.7761 309.624 73.9138 309.624C75.0515 309.624 76.1312 309.182 76.9322 308.37L80.2525 305.05C81.9126 303.378 81.9126 300.661 80.2525 299.001C79.4514 298.189 78.3718 297.747 77.2341 297.747Z" fill="#472F7D" style="fill:#472F7D;fill:color(display-p3 0.2784 0.1843 0.4902);fill-opacity:1;"/>
<path d="M74.5308 300.533L75.6221 299.442C76.1794 298.885 77.0733 298.885 77.6305 299.442L79.8247 301.636C80.3819 302.193 80.3819 303.087 79.8247 303.645L78.7334 304.736C77.5725 305.897 75.6918 305.897 74.5308 304.736C73.3699 303.575 73.3699 301.694 74.5308 300.533Z" fill="white" style="fill:white;fill-opacity:1;"/>
<path d="M76.6324 305.793C75.7849 305.793 74.9955 305.467 74.4034 304.864C73.1728 303.633 73.1728 301.636 74.4034 300.406L75.4947 299.315C76.0983 298.711 77.1548 298.711 77.7585 299.315L79.9526 301.509C80.5795 302.136 80.5795 303.146 79.9526 303.773L78.8613 304.864C78.2693 305.456 77.4798 305.793 76.6324 305.793ZM76.6208 299.198C76.2841 299.198 75.9823 299.326 75.7501 299.558L74.6588 300.65C73.5675 301.741 73.5675 303.506 74.6588 304.597C75.1812 305.119 75.8894 305.409 76.6324 305.409C77.3754 305.409 78.0719 305.119 78.6059 304.597L79.6972 303.505C80.1848 303.018 80.1848 302.228 79.6972 301.753L77.5031 299.558C77.2709 299.326 76.9574 299.198 76.6324 299.198H76.6208Z" fill="#472F7D" style="fill:#472F7D;fill:color(display-p3 0.2784 0.1843 0.4902);fill-opacity:1;"/>
<path d="M77.9794 310.402L80.5102 307.871C82.0426 306.338 84.527 306.338 86.071 307.871L86.1987 307.998C87.6615 309.461 87.6615 311.841 86.1987 313.315L83.5402 315.974C82.0078 317.506 79.5234 317.506 77.9794 315.974C76.447 314.442 76.447 311.946 77.9794 310.413V310.402Z" fill="white" style="fill:white;fill-opacity:1;"/>
<path d="M80.7525 317.483C79.6032 317.483 78.5236 317.03 77.7225 316.229C76.0508 314.558 76.0508 311.829 77.7225 310.158L80.2534 307.627C81.066 306.814 82.1457 306.373 83.2834 306.373C84.4211 306.373 85.5123 306.826 86.3134 307.627L86.4411 307.755C88.0431 309.357 88.0431 311.98 86.4411 313.582L83.7826 316.241C82.9699 317.054 81.8903 317.495 80.7525 317.495V317.483ZM83.2834 307.081C82.3314 307.081 81.4375 307.453 80.7642 308.126L78.2334 310.657C76.8402 312.05 76.8402 314.314 78.2334 315.707C79.58 317.054 81.9251 317.054 83.2718 315.707L85.9303 313.048C87.2537 311.725 87.2537 309.566 85.9303 308.242L85.8026 308.114C85.1292 307.441 84.2353 307.07 83.2834 307.07V307.081Z" fill="#472F7D" style="fill:#472F7D;fill:color(display-p3 0.2784 0.1843 0.4902);fill-opacity:1;"/>
<path d="M81.2278 309.333L82.0985 308.463C82.5396 308.022 83.2594 308.022 83.7122 308.463L85.4652 310.227C85.9063 310.668 85.9063 311.4 85.4652 311.841L84.5945 312.712C83.6657 313.64 82.1565 313.64 81.2278 312.712C80.2991 311.783 80.2991 310.274 81.2278 309.345V309.333Z" fill="white" style="fill:white;fill-opacity:1;"/>
<path d="M82.9114 313.582C82.2264 313.582 81.5879 313.315 81.1004 312.828C80.102 311.829 80.102 310.204 81.1004 309.194L81.971 308.323C82.4702 307.824 83.3409 307.824 83.8401 308.323L85.5931 310.088C86.1039 310.599 86.1039 311.446 85.5931 311.957L84.7224 312.828C84.2348 313.315 83.5963 313.582 82.9114 313.582ZM82.8998 308.312C82.6444 308.312 82.4006 308.416 82.2265 308.59L81.3558 309.461C80.4967 310.32 80.4967 311.713 81.3558 312.572C81.7737 312.99 82.3193 313.222 82.9114 313.222C83.5035 313.222 84.0491 312.99 84.467 312.572L85.3377 311.702C85.7092 311.33 85.7092 310.715 85.3377 310.343L83.5847 308.579C83.399 308.393 83.1668 308.3 82.9114 308.3L82.8998 308.312Z" fill="#472F7D" style="fill:#472F7D;fill:color(display-p3 0.2784 0.1843 0.4902);fill-opacity:1;"/>
<path d="M144.963 270.141L155.237 259.808L127.747 232.364L117.473 242.685L144.963 270.141Z" fill="#E7DCEC" style="fill:#E7DCEC;fill:color(display-p3 0.9059 0.8627 0.9255);fill-opacity:1;"/>
<path d="M144.964 270.651L116.963 242.697L127.748 231.854L155.749 259.808L144.964 270.651ZM117.984 242.685L144.964 269.618L154.728 259.808L127.748 232.875L117.984 242.685Z" fill="#472F7D" style="fill:#472F7D;fill:color(display-p3 0.2784 0.1843 0.4902);fill-opacity:1;"/>
<path d="M150.245 270.489L162.179 260.401L132.448 225.167L120.525 235.255L150.245 270.489Z" fill="white" style="fill:white;fill-opacity:1;"/>
<path d="M150.211 271L120.027 235.22L132.507 224.656L162.691 260.436L150.211 271ZM121.037 235.302L150.293 269.978L161.67 260.354L132.414 225.678L121.037 235.302Z" fill="#472F7D" style="fill:#472F7D;fill:color(display-p3 0.2784 0.1843 0.4902);fill-opacity:1;"/>
<path d="M88.1932 302.31C88.1932 303.633 87.1251 304.701 85.8017 304.701C84.4782 304.701 83.4102 303.633 83.4102 302.31C83.4102 300.986 84.4782 299.918 85.8017 299.918C87.1251 299.918 88.1932 300.986 88.1932 302.31Z" fill="#E7DCEC" style="fill:#E7DCEC;fill:color(display-p3 0.9059 0.8627 0.9255);fill-opacity:1;"/>
<path d="M85.802 304.887C84.3856 304.887 83.2363 303.738 83.2363 302.31C83.2363 300.882 84.3856 299.733 85.802 299.733C87.2183 299.733 88.3676 300.882 88.3676 302.31C88.3676 303.738 87.2183 304.887 85.802 304.887ZM85.802 300.104C84.583 300.104 83.5962 301.103 83.5962 302.322C83.5962 303.54 84.583 304.539 85.802 304.539C87.0209 304.539 88.0077 303.54 88.0077 302.322C88.0077 301.103 87.0209 300.104 85.802 300.104Z" fill="#472F7D" style="fill:#472F7D;fill:color(display-p3 0.2784 0.1843 0.4902);fill-opacity:1;"/>
<path d="M116.521 281.738C116.521 283.468 115.128 284.861 113.398 284.861C111.668 284.861 110.275 283.468 110.275 281.738C110.275 280.008 111.668 278.615 113.398 278.615C115.128 278.615 116.521 280.02 116.521 281.738Z" fill="#E7DCEC" style="fill:#E7DCEC;fill:color(display-p3 0.9059 0.8627 0.9255);fill-opacity:1;"/>
<path d="M113.399 285.035C111.576 285.035 110.102 283.549 110.102 281.727C110.102 279.904 111.588 278.418 113.399 278.418C115.21 278.418 116.696 279.904 116.696 281.727C116.696 283.549 115.21 285.035 113.399 285.035ZM113.399 278.789C111.773 278.789 110.461 280.113 110.461 281.738C110.461 283.363 111.785 284.687 113.399 284.687C115.012 284.687 116.336 283.363 116.336 281.738C116.336 280.113 115.012 278.789 113.399 278.789Z" fill="#472F7D" style="fill:#472F7D;fill:color(display-p3 0.2784 0.1843 0.4902);fill-opacity:1;"/>
<path d="M106.121 286.254C106.121 287.984 104.728 289.377 102.998 289.377C101.268 289.377 99.875 287.984 99.875 286.254C99.875 284.524 101.268 283.131 102.998 283.131C104.728 283.131 106.121 284.536 106.121 286.254Z" fill="#E7DCEC" style="fill:#E7DCEC;fill:color(display-p3 0.9059 0.8627 0.9255);fill-opacity:1;"/>
<path d="M103.008 289.563C101.185 289.563 99.7109 288.077 99.7109 286.254C99.7109 284.432 101.197 282.946 103.008 282.946C104.819 282.946 106.305 284.432 106.305 286.254C106.305 288.077 104.819 289.563 103.008 289.563ZM103.008 283.317C101.383 283.317 100.071 284.641 100.071 286.266C100.071 287.891 101.394 289.215 103.008 289.215C104.622 289.215 105.945 287.891 105.945 286.266C105.945 284.641 104.622 283.317 103.008 283.317Z" fill="#472F7D" style="fill:#472F7D;fill:color(display-p3 0.2784 0.1843 0.4902);fill-opacity:1;"/>
<path d="M95.486 293.104C95.486 294.833 94.0929 296.226 92.3631 296.226C90.6333 296.226 89.2402 294.822 89.2402 293.104C89.2402 291.385 90.6333 289.981 92.3631 289.981C94.0929 289.981 95.486 291.374 95.486 293.104Z" fill="#E7DCEC" style="fill:#E7DCEC;fill:color(display-p3 0.9059 0.8627 0.9255);fill-opacity:1;"/>
<path d="M92.3634 296.401C90.5408 296.401 89.0664 294.915 89.0664 293.092C89.0664 291.269 90.5524 289.783 92.3634 289.783C94.1745 289.783 95.6604 291.269 95.6604 293.092C95.6604 294.915 94.1745 296.401 92.3634 296.401ZM92.3634 290.155C90.7381 290.155 89.4263 291.478 89.4263 293.104C89.4263 294.729 90.7497 296.052 92.3634 296.052C93.9771 296.052 95.3005 294.729 95.3005 293.104C95.3005 291.478 93.9771 290.155 92.3634 290.155Z" fill="#472F7D" style="fill:#472F7D;fill:color(display-p3 0.2784 0.1843 0.4902);fill-opacity:1;"/>
<g opacity="0.25">
<path d="M312.693 177.882V259.843C333.033 260.482 353.384 259.727 373.723 260.366V177.882H312.693Z" fill="#472F7D" style="fill:#472F7D;fill:color(display-p3 0.2784 0.1843 0.4902);fill-opacity:1;"/>
</g>
<path d="M370.866 175.688V258.172C350.526 257.533 330.175 258.288 309.836 257.649V175.688H370.866Z" fill="white" style="fill:white;fill-opacity:1;"/>
<path d="M371.69 259.019L370.842 258.996C363.029 258.752 355.205 258.717 349.273 258.717C346.301 258.717 343.329 258.717 340.357 258.741C337.385 258.741 334.413 258.764 331.441 258.764C325.485 258.764 317.649 258.729 309.813 258.485L309.023 258.462V174.887H371.69V259.042V259.019ZM349.273 257.069C355.007 257.069 362.495 257.104 370.053 257.324V176.501H310.66V256.848C318.206 257.069 325.706 257.104 331.441 257.104C334.413 257.104 337.385 257.104 340.357 257.08C343.329 257.08 346.301 257.057 349.273 257.057V257.069Z" fill="#472F7D" style="fill:#472F7D;fill:color(display-p3 0.2784 0.1843 0.4902);fill-opacity:1;"/>
<path d="M357.226 246.156H322.967V249.616H357.226V246.156Z" fill="white" style="fill:white;fill-opacity:1;"/>
<path d="M357.644 250.022H322.561V245.75H357.644V250.022ZM323.385 249.21H356.831V246.574H323.385V249.21Z" fill="#E7DCEC" style="fill:#E7DCEC;fill:color(display-p3 0.9059 0.8627 0.9255);fill-opacity:1;"/>
<path d="M357.226 233.839H322.967V237.298H357.226V233.839Z" fill="white" style="fill:white;fill-opacity:1;"/>
<path d="M357.644 237.705H322.561V233.432H357.644V237.705ZM323.385 236.88H356.831V234.245H323.385V236.88Z" fill="#E7DCEC" style="fill:#E7DCEC;fill:color(display-p3 0.9059 0.8627 0.9255);fill-opacity:1;"/>
<path d="M360.431 240.026H319.764V243.486H360.431V240.026Z" fill="white" style="fill:white;fill-opacity:1;"/>
<path d="M360.849 243.881H319.357V239.608H360.849V243.881ZM320.182 243.068H360.036V240.433H320.182V243.068Z" fill="#E7DCEC" style="fill:#E7DCEC;fill:color(display-p3 0.9059 0.8627 0.9255);fill-opacity:1;"/>
<path d="M357.226 221.522H322.967V224.981H357.226V221.522Z" fill="white" style="fill:white;fill-opacity:1;"/>
<path d="M357.644 225.387H322.561V221.115H357.644V225.387ZM323.385 224.563H356.831V221.928H323.385V224.563Z" fill="#E7DCEC" style="fill:#E7DCEC;fill:color(display-p3 0.9059 0.8627 0.9255);fill-opacity:1;"/>
<path d="M360.431 227.698H319.764V231.157H360.431V227.698Z" fill="white" style="fill:white;fill-opacity:1;"/>
<path d="M360.849 231.563H319.357V227.291H360.849V231.563ZM320.182 230.751H360.036V228.115H320.182V230.751Z" fill="#E7DCEC" style="fill:#E7DCEC;fill:color(display-p3 0.9059 0.8627 0.9255);fill-opacity:1;"/>
<path d="M357.226 209.192H322.967V212.652H357.226V209.192Z" fill="white" style="fill:white;fill-opacity:1;"/>
<path d="M357.644 213.058H322.561V208.786H357.644V213.058ZM323.385 212.245H356.831V209.61H323.385V212.245Z" fill="#E7DCEC" style="fill:#E7DCEC;fill:color(display-p3 0.9059 0.8627 0.9255);fill-opacity:1;"/>
<path d="M360.431 215.38H319.764V218.84H360.431V215.38Z" fill="white" style="fill:white;fill-opacity:1;"/>
<path d="M360.849 219.246H319.357V214.974H360.849V219.246ZM320.182 218.422H360.036V215.787H320.182V218.422Z" fill="#E7DCEC" style="fill:#E7DCEC;fill:color(display-p3 0.9059 0.8627 0.9255);fill-opacity:1;"/>
<path d="M357.226 196.875H322.967V200.335H357.226V196.875Z" fill="white" style="fill:white;fill-opacity:1;"/>
<path d="M357.644 200.741H322.561V196.469H357.644V200.741ZM323.385 199.917H356.831V197.282H323.385V199.917Z" fill="#E7DCEC" style="fill:#E7DCEC;fill:color(display-p3 0.9059 0.8627 0.9255);fill-opacity:1;"/>
<path d="M360.431 203.063H319.764V206.522H360.431V203.063Z" fill="white" style="fill:white;fill-opacity:1;"/>
<path d="M360.849 206.917H319.357V202.645H360.849V206.917ZM320.182 206.104H360.036V203.469H320.182V206.104Z" fill="#E7DCEC" style="fill:#E7DCEC;fill:color(display-p3 0.9059 0.8627 0.9255);fill-opacity:1;"/>
<path d="M357.226 184.558H322.967V188.017H357.226V184.558Z" fill="white" style="fill:white;fill-opacity:1;"/>
<path d="M357.644 188.424H322.561V184.151H357.644V188.424ZM323.385 187.599H356.831V184.964H323.385V187.599Z" fill="#E7DCEC" style="fill:#E7DCEC;fill:color(display-p3 0.9059 0.8627 0.9255);fill-opacity:1;"/>
<path d="M360.431 190.734H319.764V194.194H360.431V190.734Z" fill="white" style="fill:white;fill-opacity:1;"/>
<path d="M360.849 194.6H319.357V190.328H360.849V194.6ZM320.182 193.787H360.036V191.152H320.182V193.787Z" fill="#E7DCEC" style="fill:#E7DCEC;fill:color(display-p3 0.9059 0.8627 0.9255);fill-opacity:1;"/>
<g opacity="0.25">
<path d="M417.174 157.717L411.834 160.143L404.59 163.429L404.288 163.127L329.827 237.588L330.837 238.598L326.669 242.766C325.16 244.275 325.16 246.713 326.669 248.222C328.178 249.732 330.616 249.732 332.125 248.222L336.293 244.055L337.303 245.065L411.764 170.603L411.463 170.301L414.748 163.057L417.174 157.717Z" fill="#472F7D" style="fill:#472F7D;fill:color(display-p3 0.2784 0.1843 0.4902);fill-opacity:1;"/>
</g>
<path d="M399.772 162.224L325.309 236.688L332.795 244.174L407.259 169.711L399.772 162.224Z" fill="#E7DCEC" style="fill:#E7DCEC;fill:color(display-p3 0.9059 0.8627 0.9255);fill-opacity:1;"/>
<path d="M332.789 245.007L324.477 236.695L399.762 161.409L408.074 169.721L332.789 245.007ZM326.137 236.695L332.8 243.358L406.438 169.721L399.774 163.057L326.137 236.695Z" fill="#472F7D" style="fill:#472F7D;fill:color(display-p3 0.2784 0.1843 0.4902);fill-opacity:1;"/>
<path d="M322.155 241.872L326.323 237.704L331.779 243.161L327.612 247.328C326.102 248.838 323.665 248.838 322.155 247.328C320.646 245.819 320.646 243.381 322.155 241.872Z" fill="white" style="fill:white;fill-opacity:1;"/>
<path d="M324.882 249.047C323.698 249.047 322.583 248.582 321.736 247.746C320.9 246.911 320.436 245.796 320.436 244.6C320.436 243.405 320.9 242.302 321.736 241.454L326.321 236.869L332.602 243.149L328.016 247.735C327.18 248.571 326.066 249.035 324.87 249.035L324.882 249.047ZM326.321 238.54L322.572 242.29C321.956 242.905 321.608 243.73 321.608 244.6C321.608 245.471 321.945 246.295 322.572 246.911C323.814 248.153 325.962 248.153 327.204 246.911L330.953 243.161L326.321 238.529V238.54Z" fill="#472F7D" style="fill:#472F7D;fill:color(display-p3 0.2784 0.1843 0.4902);fill-opacity:1;"/>
<path d="M403.512 165.983C378.692 190.804 353.871 215.624 329.051 240.445L403.512 165.983Z" fill="white" style="fill:white;fill-opacity:1;"/>
<path d="M403.106 165.557L328.643 240.02L329.472 240.849L403.935 166.386L403.106 165.557Z" fill="#472F7D" style="fill:#472F7D;fill:color(display-p3 0.2784 0.1843 0.4902);fill-opacity:1;"/>
<path d="M406.949 169.419L400.076 162.535L407.32 159.261L412.661 156.835L410.234 162.175L406.949 169.419Z" fill="white" style="fill:white;fill-opacity:1;"/>
<path d="M407.135 170.418L399.066 162.349L413.845 155.651L407.135 170.418ZM401.086 162.721L406.763 168.398L411.488 157.996L401.086 162.709V162.721Z" fill="#472F7D" style="fill:#472F7D;fill:color(display-p3 0.2784 0.1843 0.4902);fill-opacity:1;"/>
<path d="M410.012 161.966L407.516 159.482L412.658 156.835L410.012 161.966Z" fill="#472F7D" style="fill:#472F7D;fill:color(display-p3 0.2784 0.1843 0.4902);fill-opacity:1;"/>
<path d="M363.577 78.6933L354.87 69.9864C354.928 69.7774 354.986 69.5685 355.033 69.3595C355.033 69.3595 355.033 69.3247 355.033 69.3131C355.044 69.2202 355.067 69.1389 355.091 69.0577C355.184 68.6281 355.242 68.187 355.3 67.7574C355.532 65.7955 355.334 63.8219 354.731 61.9412C354.65 61.6974 354.568 61.4652 354.475 61.233C354.417 61.0705 354.359 60.9196 354.29 60.7571C354.22 60.5945 354.15 60.432 354.069 60.2579C353.988 60.0721 353.895 59.898 353.79 59.7122C353.698 59.5149 353.57 59.3175 353.465 59.1202C353.384 58.9692 353.256 58.7835 353.117 58.5629C353.059 58.4817 352.641 57.8432 352.154 57.2859C352.026 57.135 351.782 56.8796 351.678 56.7635C351.62 56.6938 351.538 56.6126 351.538 56.6126C351.492 56.5545 351.445 56.5081 351.387 56.4501L340.73 45.7928L340.451 45.5142C339.825 44.8757 339.012 44.5274 338.199 44.481H337.805C337.015 44.5158 336.249 44.8176 335.657 45.4097L335.599 45.4677C334.31 46.7564 334.357 48.9157 335.703 50.2623L335.982 50.541L335.529 50.9937L333.498 48.9621C332.186 47.6503 330.061 47.6503 328.761 48.9621C328.111 49.6122 327.774 50.4829 327.774 51.3304C327.774 52.1779 328.099 53.0486 328.761 53.6987L330.793 55.7303L330.34 56.183L326.66 52.5029C325.348 51.1911 323.223 51.1911 321.912 52.5029C321.261 53.153 320.925 54.0121 320.925 54.8712C320.925 55.7303 321.25 56.5894 321.912 57.2395L325.592 60.9196L325.139 61.3724L314.133 50.3668C312.822 49.055 310.697 49.055 309.385 50.3668C308.724 51.0285 308.398 51.8876 308.398 52.7351C308.398 53.5942 308.724 54.4533 309.385 55.1034L320.391 66.1089L321.633 67.3395L322.19 67.8967L330.456 76.1625L331.06 76.7662C331.222 76.9287 331.396 77.0912 331.57 77.2421C331.582 77.2421 331.594 77.2654 331.605 77.277C331.675 77.3466 331.756 77.4163 331.837 77.4743C331.884 77.5208 331.93 77.5556 331.977 77.602C332.035 77.6485 332.093 77.7065 332.162 77.7529C332.522 78.0432 332.894 78.3102 333.265 78.5656C333.498 78.7165 333.73 78.8674 333.974 78.9951C334.484 79.297 335.018 79.5524 335.564 79.7729C336.098 79.9935 336.632 80.1793 337.189 80.3186C338.002 80.5392 338.838 80.6901 339.685 80.7481C340.196 80.7946 340.707 80.7946 341.218 80.7713C341.334 80.7713 341.45 80.7713 341.566 80.7597C341.81 80.7597 342.054 80.7249 342.286 80.7017L351.898 90.3141L363.577 78.6352V78.6933Z" fill="white" style="fill:white;fill-opacity:1;"/>
<path d="M351.898 90.6392L351.759 90.4999L342.204 80.9455C341.995 80.9688 341.775 80.9804 341.554 80.992C341.438 80.992 341.311 81.0036 341.194 81.0036C340.707 81.0384 340.196 81.0268 339.65 80.9804C338.803 80.9223 337.944 80.7714 337.12 80.5508C336.586 80.4115 336.052 80.2258 335.471 79.9936C334.844 79.7266 334.333 79.4828 333.857 79.2042C333.602 79.0765 333.358 78.9139 333.138 78.7746C332.755 78.5192 332.383 78.2522 332.012 77.9504C331.977 77.9272 331.919 77.8807 331.872 77.8343L331.826 77.7994C331.826 77.7994 331.721 77.7066 331.686 77.6717L331.628 77.6253C331.57 77.5789 331.512 77.5208 331.454 77.4744C331.257 77.2886 331.071 77.1261 330.909 76.9636L320.112 66.1786L309.234 55.3008C308.573 54.6391 308.201 53.7452 308.189 52.7932C308.189 51.8413 308.549 50.959 309.234 50.274C309.908 49.6007 310.802 49.2292 311.742 49.2292C312.682 49.2292 313.588 49.6007 314.249 50.274L325.116 61.1402L325.29 60.9545L321.749 57.4137C321.076 56.7403 320.704 55.8464 320.704 54.9061C320.704 53.9657 321.076 53.0718 321.749 52.3985C322.422 51.7252 323.316 51.3537 324.268 51.3537C325.22 51.3537 326.102 51.7252 326.776 52.3985L330.317 55.9393L330.491 55.7652L328.598 53.8729C327.925 53.2111 327.565 52.3172 327.565 51.3653C327.565 50.4133 327.948 49.5194 328.598 48.8577C329.272 48.1844 330.166 47.8129 331.106 47.8129C332.046 47.8129 332.94 48.1844 333.614 48.8577L335.506 50.75L335.68 50.5759L335.541 50.4365C334.833 49.74 334.438 48.7996 334.438 47.8129C334.438 46.8841 334.786 46.0134 335.436 45.3633L335.494 45.3053C336.086 44.7132 336.887 44.3649 337.77 44.3069H338.176C339.082 44.3765 339.929 44.7713 340.568 45.4098L340.846 45.6768L351.515 56.334C351.515 56.334 351.631 56.4501 351.678 56.5082L351.805 56.6475C351.91 56.7636 352.142 57.019 352.281 57.1699C352.78 57.7503 353.21 58.3889 353.256 58.4701C353.407 58.6907 353.523 58.8881 353.616 59.039L353.698 59.1783C353.79 59.3292 353.872 59.4801 353.953 59.6427L353.976 59.6891C354.069 59.8632 354.162 60.0258 354.232 60.1999C354.313 60.3624 354.382 60.525 354.452 60.6991C354.522 60.8616 354.591 61.0125 354.649 61.1867C354.742 61.4189 354.835 61.6626 354.905 61.9064C355.532 63.8336 355.718 65.8187 355.485 67.8039C355.427 68.2335 355.369 68.6746 355.265 69.1274C355.242 69.2202 355.218 69.3015 355.207 69.3712C355.207 69.3712 355.207 69.406 355.195 69.4524C355.149 69.6266 355.114 69.7891 355.067 69.9632L363.832 78.7282L363.693 78.8675L351.875 90.6857L351.898 90.6392ZM342.355 80.5392L351.898 90.082L363.298 78.6817L354.649 70.0329L354.684 69.9284C354.742 69.7194 354.8 69.5105 354.847 69.3131V69.2435C354.87 69.1622 354.893 69.0693 354.928 68.9997C355.021 68.5933 355.079 68.1522 355.125 67.7459C355.358 65.8071 355.16 63.88 354.557 62.0109C354.475 61.7671 354.394 61.535 354.301 61.3144C354.243 61.1518 354.185 61.0009 354.115 60.85C354.046 60.6875 353.976 60.525 353.895 60.3624C353.825 60.1883 353.732 60.0374 353.651 59.8748L353.628 59.8284C353.547 59.6775 353.465 59.5266 353.384 59.3872L353.303 59.2479C353.222 59.097 353.105 58.9113 352.955 58.7023C352.931 58.6791 352.502 58.0174 352.003 57.4485C351.875 57.2976 351.643 57.0422 351.538 56.9261L351.399 56.7752C351.352 56.7171 351.306 56.6707 351.26 56.6243L340.324 45.7C339.755 45.1195 338.989 44.7713 338.188 44.7132H337.805C337.038 44.748 336.342 45.0499 335.808 45.5839L335.75 45.6419C335.181 46.2108 334.867 46.977 334.867 47.8129C334.867 48.6952 335.216 49.531 335.854 50.1579L336.261 50.5875L335.529 51.3072L333.358 49.1479C332.766 48.5559 331.965 48.2192 331.129 48.2192C330.293 48.2192 329.492 48.5442 328.9 49.1479C328.308 49.74 327.972 50.5526 327.972 51.3769C327.972 52.2011 328.297 53.0138 328.889 53.6059L331.025 55.7536L330.932 55.8929L330.317 56.5198L326.497 52.7003C325.905 52.1083 325.104 51.7716 324.268 51.7716C323.432 51.7716 322.631 52.0967 322.028 52.7003C321.436 53.2924 321.099 54.0934 321.099 54.9293C321.099 55.7652 321.424 56.5662 322.028 57.1699L325.847 60.9893L325.116 61.7207L324.976 61.5814L313.971 50.5759C313.379 49.9838 312.578 49.6471 311.73 49.6471C310.883 49.6471 310.093 49.9722 309.501 50.5759C308.898 51.1795 308.573 51.969 308.573 52.8048C308.573 53.6523 308.909 54.4417 309.501 55.0454L320.635 66.1786L322.295 67.8387L331.164 76.7082C331.327 76.8707 331.501 77.0332 331.663 77.1842L331.698 77.219C331.698 77.219 331.803 77.3119 331.861 77.3583L331.919 77.4047C331.919 77.4047 332.012 77.486 332.058 77.5208L332.116 77.5789C332.116 77.5789 332.186 77.6369 332.221 77.6601C332.592 77.962 332.964 78.229 333.335 78.4728C333.544 78.6121 333.788 78.763 334.032 78.8907C334.484 79.1577 334.983 79.4015 335.599 79.6569C336.156 79.8891 336.678 80.0632 337.189 80.1909C338.002 80.4115 338.826 80.5508 339.65 80.6089C340.184 80.6553 340.66 80.6553 341.16 80.6321C341.287 80.6321 341.392 80.6321 341.508 80.6205C341.763 80.6205 341.995 80.5857 342.239 80.5624H342.332L342.355 80.5392Z" fill="#472F7D" style="fill:#472F7D;fill:color(display-p3 0.2784 0.1843 0.4902);fill-opacity:1;"/>
<path d="M365.898 76.9635C365.759 76.3366 365.457 75.7562 364.969 75.257L361.371 71.6697C360.036 70.3347 357.876 70.3347 356.53 71.6581C356.53 71.6581 356.526 71.662 356.518 71.6697L350.237 77.9503L345.164 83.0235L344.897 83.2906C344.897 83.2906 344.874 83.3138 344.862 83.337C344.456 83.7549 344.177 84.2425 344.026 84.7649C343.69 85.9375 343.98 87.2377 344.886 88.1548L348.484 91.7537C349.402 92.6708 350.702 92.9494 351.874 92.6244C352.234 92.5199 352.582 92.3574 352.896 92.1136C353.058 92.0091 353.198 91.8814 353.337 91.7421L364.969 80.1212C365.074 80.0052 365.202 79.8774 365.295 79.7381C365.306 79.7149 365.341 79.6917 365.341 79.6685C365.608 79.2854 365.794 78.8558 365.898 78.4147C366.003 77.9387 366.003 77.4279 365.898 76.9635ZM349.309 90.9294L345.71 87.3306C345.28 86.9126 345.06 86.3554 345.048 85.7865C345.036 85.2061 345.245 84.6024 345.675 84.1496L345.977 83.8478L357.064 72.7726L357.331 72.494C357.331 72.494 357.331 72.494 357.342 72.4824C358.225 71.6117 359.664 71.6233 360.535 72.494L364.134 76.0928C365.016 76.9751 365.016 78.4147 364.134 79.297L352.513 90.9294C352.048 91.3822 351.445 91.6144 350.841 91.5911C350.284 91.5911 349.727 91.359 349.297 90.9294H349.309Z" fill="#472F7D" style="fill:#472F7D;fill:color(display-p3 0.2784 0.1843 0.4902);fill-opacity:1;"/>
<path d="M345.319 87.7509L348.906 91.3383C350.022 92.4536 351.83 92.4535 352.945 91.3383L364.569 79.7144C365.684 78.5991 365.684 76.7909 364.569 75.6756L360.982 72.0883C359.866 70.973 358.058 70.973 356.943 72.0883L345.319 83.7121C344.204 84.8274 344.204 86.6357 345.319 87.7509Z" fill="white" style="fill:white;fill-opacity:1;"/>
<path d="M341.598 50.7849L340.658 51.7252C340.345 52.0387 339.834 52.0387 339.52 51.7252C339.207 51.4118 339.207 50.901 339.52 50.5875L340.461 49.6472C340.774 49.3337 341.285 49.3337 341.598 49.6472C341.912 49.9606 341.912 50.4714 341.598 50.7849Z" fill="white" style="fill:white;fill-opacity:1;"/>
<path d="M340.089 52.0618C339.845 52.0618 339.625 51.9689 339.451 51.7948C339.276 51.6206 339.184 51.4001 339.184 51.1563C339.184 50.9125 339.276 50.6919 339.451 50.5178L340.391 49.5774C340.728 49.2408 341.331 49.2292 341.668 49.5774C342.016 49.9257 342.016 50.5062 341.668 50.8544L340.728 51.7948C340.553 51.9689 340.333 52.0618 340.089 52.0618ZM341.041 49.5194C340.855 49.5194 340.681 49.589 340.542 49.7283L339.602 50.6687C339.474 50.7964 339.393 50.9821 339.393 51.1679C339.393 51.3536 339.462 51.5278 339.602 51.6671C339.869 51.9341 340.333 51.9341 340.588 51.6671L341.529 50.7267C341.807 50.4481 341.807 50.007 341.529 49.74C341.401 49.6123 341.215 49.531 341.029 49.531L341.041 49.5194Z" fill="#472F7D" style="fill:#472F7D;fill:color(display-p3 0.2784 0.1843 0.4902);fill-opacity:1;"/>
<path d="M336.819 55.5791L335.879 56.5194C335.565 56.8329 335.054 56.8329 334.741 56.5194C334.427 56.206 334.427 55.6952 334.741 55.3817L335.681 54.4414C335.995 54.1279 336.506 54.1279 336.819 54.4414C337.132 54.7548 337.132 55.2656 336.819 55.5791Z" fill="white" style="fill:white;fill-opacity:1;"/>
<path d="M335.31 56.856C335.066 56.856 334.845 56.7631 334.671 56.589C334.497 56.4148 334.404 56.1943 334.404 55.9505C334.404 55.7067 334.497 55.4861 334.671 55.312L335.612 54.3716C335.948 54.035 336.552 54.0233 336.889 54.3716C337.237 54.7199 337.237 55.3004 336.889 55.6486L335.948 56.589C335.774 56.7631 335.554 56.856 335.31 56.856ZM336.25 54.3136C336.064 54.3136 335.89 54.3832 335.751 54.5225L334.811 55.4629C334.683 55.5906 334.602 55.7763 334.602 55.9621C334.602 56.1478 334.671 56.322 334.811 56.4613C335.078 56.7283 335.53 56.7283 335.797 56.4613L336.738 55.5209C337.016 55.2423 337.016 54.8012 336.738 54.5341C336.61 54.4064 336.424 54.3252 336.239 54.3252L336.25 54.3136Z" fill="#472F7D" style="fill:#472F7D;fill:color(display-p3 0.2784 0.1843 0.4902);fill-opacity:1;"/>
<path d="M331.452 60.6062L330.511 61.5465C330.198 61.86 329.687 61.86 329.374 61.5465C329.06 61.2331 329.06 60.7223 329.374 60.4088L330.314 59.4685C330.628 59.155 331.138 59.155 331.452 59.4685C331.765 59.7819 331.765 60.2927 331.452 60.6062Z" fill="white" style="fill:white;fill-opacity:1;"/>
<path d="M329.943 61.8834C329.699 61.8834 329.478 61.7905 329.304 61.6163C329.13 61.4422 329.037 61.2216 329.037 60.9778C329.037 60.734 329.13 60.5135 329.304 60.3393L330.244 59.399C330.581 59.0623 331.185 59.0623 331.521 59.399C331.87 59.7473 331.87 60.3277 331.521 60.676L330.581 61.6163C330.407 61.7905 330.186 61.8834 329.943 61.8834ZM330.883 59.3293C330.697 59.3293 330.523 59.399 330.384 59.5383L329.443 60.4786C329.316 60.6063 329.234 60.7921 329.234 60.9778C329.234 61.1636 329.304 61.3377 329.443 61.477C329.71 61.744 330.175 61.744 330.43 61.477L331.371 60.5367C331.649 60.2581 331.649 59.8169 331.371 59.5499C331.243 59.4222 331.057 59.3409 330.871 59.3409L330.883 59.3293Z" fill="#472F7D" style="fill:#472F7D;fill:color(display-p3 0.2784 0.1843 0.4902);fill-opacity:1;"/>
<path d="M326.044 65.6445L325.103 66.5849C324.79 66.8983 324.279 66.8983 323.966 66.5849C323.652 66.2714 323.652 65.7606 323.966 65.4472L324.906 64.5068C325.219 64.1934 325.73 64.1934 326.044 64.5068C326.357 64.8203 326.357 65.3311 326.044 65.6445Z" fill="white" style="fill:white;fill-opacity:1;"/>
<path d="M324.534 66.9214C324.291 66.9214 324.07 66.8285 323.896 66.6544C323.548 66.3061 323.548 65.7257 323.896 65.3774L324.836 64.437C325.173 64.1004 325.777 64.0888 326.113 64.437C326.287 64.6112 326.38 64.8318 326.38 65.0756C326.38 65.3194 326.287 65.5399 326.113 65.7141L325.173 66.6544C324.999 66.8285 324.778 66.9214 324.534 66.9214ZM325.475 64.379C325.289 64.379 325.115 64.4487 324.976 64.588L324.035 65.5283C323.757 65.8069 323.757 66.2481 324.035 66.5151C324.302 66.7821 324.767 66.7821 325.022 66.5151L325.962 65.5748C326.09 65.4471 326.171 65.2613 326.171 65.0756C326.171 64.8898 326.102 64.7157 325.962 64.5764C325.835 64.4487 325.649 64.3674 325.463 64.3674L325.475 64.379Z" fill="#472F7D" style="fill:#472F7D;fill:color(display-p3 0.2784 0.1843 0.4902);fill-opacity:1;"/>
</svg>
