<svg width="15" height="15" viewBox="0 0 15 15" fill="none" xmlns="http://www.w3.org/2000/svg">
<g clip-path="url(#clip0_1359_1047)">
<path d="M10.8604 0H4.13934C1.85691 0 0 1.857 0 4.13943V10.8605C0 13.143 1.85691 14.9999 4.13934 14.9999H10.8604C13.143 14.9999 14.9999 13.1429 14.9999 10.8605V4.13943C15 1.857 13.143 0 10.8604 0ZM13.6691 10.8605C13.6691 12.4092 12.4092 13.669 10.8605 13.669H4.13934C2.59075 13.6691 1.33086 12.4092 1.33086 10.8605V4.13943C1.33086 2.59084 2.59075 1.33086 4.13934 1.33086H10.8604C12.4091 1.33086 13.669 2.59084 13.669 4.13943V7.49996L13.6691 10.8605Z" fill="#102880" style="fill:#102880;fill:color(display-p3 0.0627 0.1569 0.5020);fill-opacity:1;"/>
<path d="M7.49995 3.63525C5.36871 3.63525 3.63486 5.3691 3.63486 7.50035C3.63486 9.63151 5.36871 11.3653 7.49995 11.3653C9.6312 11.3653 11.3651 9.63151 11.3651 7.50035C11.3651 5.3691 9.6312 3.63525 7.49995 3.63525ZM7.49995 10.0343C6.10264 10.0343 4.96572 8.89758 4.96572 7.50026C4.96572 6.10285 6.10255 4.96603 7.49995 4.96603C8.89736 4.96603 10.0342 6.10285 10.0342 7.50026C10.0342 8.89758 8.89727 10.0343 7.49995 10.0343Z" fill="#102880" style="fill:#102880;fill:color(display-p3 0.0627 0.1569 0.5020);fill-opacity:1;"/>
<path d="M11.5271 2.50635C11.2707 2.50635 11.0188 2.61016 10.8378 2.79204C10.6558 2.97304 10.5512 3.22501 10.5512 3.48232C10.5512 3.73882 10.6559 3.99071 10.8378 4.17259C11.0188 4.35359 11.2707 4.45828 11.5271 4.45828C11.7844 4.45828 12.0355 4.35359 12.2174 4.17259C12.3993 3.99071 12.5031 3.73873 12.5031 3.48232C12.5031 3.22501 12.3993 2.97304 12.2174 2.79204C12.0364 2.61016 11.7844 2.50635 11.5271 2.50635Z" fill="#102880" style="fill:#102880;fill:color(display-p3 0.0627 0.1569 0.5020);fill-opacity:1;"/>
</g>
<defs>
<clipPath id="clip0_1359_1047">
<rect width="15" height="15" fill="white" style="fill:white;fill-opacity:1;"/>
</clipPath>
</defs>
</svg>
