<svg width="15" height="16" viewBox="0 0 15 16" fill="none" xmlns="http://www.w3.org/2000/svg">
<g clip-path="url(#clip0_1359_876)">
<path d="M10.8604 0.867188H4.13934C1.85691 0.867188 0 2.72419 0 5.00662V11.7277C0 14.0102 1.85691 15.8671 4.13934 15.8671H10.8604C13.143 15.8671 14.9999 14.0101 14.9999 11.7277V5.00662C15 2.72419 13.143 0.867188 10.8604 0.867188ZM13.6691 11.7277C13.6691 13.2763 12.4092 14.5362 10.8605 14.5362H4.13934C2.59075 14.5363 1.33086 13.2763 1.33086 11.7277V5.00662C1.33086 3.45803 2.59075 2.19805 4.13934 2.19805H10.8604C12.4091 2.19805 13.669 3.45803 13.669 5.00662V8.36714L13.6691 11.7277Z" fill="white" style="fill:white;fill-opacity:1;"/>
<path d="M7.49995 4.50195C5.36871 4.50195 3.63486 6.2358 3.63486 8.36705C3.63486 10.4982 5.36871 12.232 7.49995 12.232C9.6312 12.232 11.3651 10.4982 11.3651 8.36705C11.3651 6.2358 9.6312 4.50195 7.49995 4.50195ZM7.49995 10.901C6.10264 10.901 4.96572 9.76428 4.96572 8.36696C4.96572 6.96955 6.10255 5.83273 7.49995 5.83273C8.89736 5.83273 10.0342 6.96955 10.0342 8.36696C10.0342 9.76428 8.89727 10.901 7.49995 10.901Z" fill="white" style="fill:white;fill-opacity:1;"/>
<path d="M11.5271 3.37402C11.2707 3.37402 11.0188 3.47783 10.8378 3.65972C10.6558 3.84071 10.5512 4.09269 10.5512 4.34999C10.5512 4.60649 10.6559 4.85838 10.8378 5.04027C11.0188 5.22126 11.2707 5.32596 11.5271 5.32596C11.7844 5.32596 12.0355 5.22126 12.2174 5.04027C12.3993 4.85838 12.5031 4.6064 12.5031 4.34999C12.5031 4.09269 12.3993 3.84071 12.2174 3.65972C12.0364 3.47783 11.7844 3.37402 11.5271 3.37402Z" fill="white" style="fill:white;fill-opacity:1;"/>
</g>
<defs>
<clipPath id="clip0_1359_876">
<rect width="15" height="15" fill="white" style="fill:white;fill-opacity:1;" transform="translate(0 0.867188)"/>
</clipPath>
</defs>
</svg>
