<svg width="15" height="16" viewBox="0 0 15 16" fill="none" xmlns="http://www.w3.org/2000/svg">
<g clip-path="url(#clip0_1359_885)">
<path d="M0.228897 15.807H4.11281V5.59375H0.228897V15.807ZM1.1078 6.47266H3.23391V14.9281H1.1078V6.47266Z" fill="white" style="fill:white;fill-opacity:1;"/>
<path d="M2.17087 0.927734C0.973828 0.927734 0 1.90159 0 3.0986C0 4.29562 0.973828 5.2695 2.17087 5.2695C3.36791 5.2695 4.34177 4.29564 4.34177 3.0986C4.34177 1.90156 3.36788 0.927734 2.17087 0.927734ZM0.878906 3.0986C0.878906 2.38622 1.45846 1.80664 2.17087 1.80664C2.88328 1.80664 3.46286 2.38619 3.46286 3.0986C3.46286 3.81102 2.88328 4.3906 2.17087 4.3906C1.45846 4.3906 0.878906 3.81099 0.878906 3.0986Z" fill="white" style="fill:white;fill-opacity:1;"/>
<path d="M14.9906 8.80012C14.8524 6.81218 13.1942 5.28027 11.1384 5.28027C10.2188 5.28027 9.3508 5.59996 8.66686 6.16721V5.59299H4.94528V15.8063H8.82923V10.2204C8.82923 9.59087 9.34137 9.0787 9.97093 9.0787C10.6004 9.0787 11.1126 9.59087 11.1126 10.2207L11.1163 15.8063H15V8.80955L14.9906 8.80012ZM7.95032 14.9274H5.82419V6.47192H7.78793V7.72721L8.4912 7.73125L8.62186 7.5284C9.17411 6.67103 10.1149 6.15921 11.1384 6.15921C12.7742 6.15921 14.084 7.40731 14.1202 9.00057L14.1211 14.9274H11.9947L11.9915 10.2204C11.9915 9.10624 11.0851 8.1998 9.97093 8.1998C8.85677 8.1998 7.95032 9.10624 7.95032 10.2204V14.9274Z" fill="white" style="fill:white;fill-opacity:1;"/>
</g>
<defs>
<clipPath id="clip0_1359_885">
<rect width="15" height="15" fill="white" style="fill:white;fill-opacity:1;" transform="translate(0 0.867188)"/>
</clipPath>
</defs>
</svg>
