<svg width="15" height="15" viewBox="0 0 15 15" fill="none" xmlns="http://www.w3.org/2000/svg">
<g clip-path="url(#clip0_1359_1054)">
<path d="M0.228897 14.9393H4.11281V4.72607H0.228897V14.9393ZM1.1078 5.60498H3.23391V14.0604H1.1078V5.60498Z" fill="#102880" style="fill:#102880;fill:color(display-p3 0.0627 0.1569 0.5020);fill-opacity:1;"/>
<path d="M2.17087 0.0605469C0.973828 0.0605469 0 1.0344 0 2.23142C0 3.42843 0.973828 4.40231 2.17087 4.40231C3.36791 4.40231 4.34177 3.42846 4.34177 2.23142C4.34177 1.03437 3.36788 0.0605469 2.17087 0.0605469ZM0.878906 2.23142C0.878906 1.51903 1.45846 0.939453 2.17087 0.939453C2.88328 0.939453 3.46286 1.519 3.46286 2.23142C3.46286 2.94383 2.88328 3.52341 2.17087 3.52341C1.45846 3.52341 0.878906 2.9438 0.878906 2.23142Z" fill="#102880" style="fill:#102880;fill:color(display-p3 0.0627 0.1569 0.5020);fill-opacity:1;"/>
<path d="M14.9906 7.93342C14.8524 5.94548 13.1942 4.41357 11.1384 4.41357C10.2188 4.41357 9.3508 4.73326 8.66686 5.30051V4.72629H4.94528V14.9396H8.82923V9.3537C8.82923 8.72417 9.34137 8.212 9.97093 8.212C10.6004 8.212 11.1126 8.72417 11.1126 9.35397L11.1163 14.9396H15V7.94285L14.9906 7.93342ZM7.95032 14.0607H5.82419V5.60522H7.78793V6.86051L8.4912 6.86455L8.62186 6.6617C9.17411 5.80433 10.1149 5.29251 11.1384 5.29251C12.7742 5.29251 14.084 6.54062 14.1202 8.13387L14.1211 14.0607H11.9947L11.9915 9.3537C11.9915 8.23954 11.0851 7.3331 9.97093 7.3331C8.85677 7.3331 7.95032 8.23954 7.95032 9.3537V14.0607Z" fill="#102880" style="fill:#102880;fill:color(display-p3 0.0627 0.1569 0.5020);fill-opacity:1;"/>
</g>
<defs>
<clipPath id="clip0_1359_1054">
<rect width="15" height="15" fill="white" style="fill:white;fill-opacity:1;"/>
</clipPath>
</defs>
</svg>
