<svg width="18" height="19" viewBox="0 0 18 19" fill="none" xmlns="http://www.w3.org/2000/svg">
<path d="M18 7.75434C18 4.30499 14.6537 1.49878 10.5407 1.49878C6.42759 1.49878 3.0813 4.30501 3.0813 7.75434C3.0813 11.2037 6.42759 14.0099 10.5407 14.0099C10.8865 14.0099 11.2336 13.9899 11.5747 13.9503C13.159 14.9567 14.3285 15.5076 15.0533 15.5881C15.0785 15.5909 15.1039 15.5923 15.1288 15.5923C15.3616 15.5923 15.5771 15.4762 15.7054 15.2817C15.8489 15.064 15.8582 14.7879 15.7304 14.5625C15.7245 14.5518 15.1651 13.5312 15.3265 12.5563C17.0283 11.3653 18 9.62493 18 7.75434ZM8.51489 8.6991C7.90456 8.6991 7.40995 8.20437 7.40995 7.59413C7.40995 6.98387 7.90456 6.48916 8.51489 6.48916C9.12509 6.48916 9.61992 6.9839 9.61992 7.59413C9.61995 8.20437 9.12512 8.6991 8.51489 8.6991ZM12.5667 8.6991C11.9563 8.6991 11.4615 8.20437 11.4615 7.59413C11.4615 6.98387 11.9563 6.48916 12.5667 6.48916C13.1769 6.48916 13.6716 6.9839 13.6716 7.59413C13.6716 8.20437 13.1769 8.6991 12.5667 8.6991Z" fill="white" style="fill:white;fill-opacity:1;"/>
<path d="M4.65715 12.7593C3.917 12.1464 3.33356 11.429 2.92326 10.6272C2.49065 9.78172 2.27132 8.88237 2.27132 7.95413C2.27132 7.02587 2.49068 6.12654 2.92326 5.2811C2.95638 5.2164 2.99106 5.15248 3.02638 5.08887C1.19941 6.13557 0 7.88251 0 9.85731C0 11.6315 0.955735 13.2765 2.62541 14.383C2.93379 15.5954 2.21818 16.878 2.21062 16.8911C2.16797 16.9663 2.17112 17.0591 2.21871 17.1313C2.26159 17.1964 2.334 17.2349 2.41085 17.2349C2.41935 17.2349 2.42782 17.2344 2.43641 17.2334C3.27176 17.1407 4.74279 16.2916 5.85721 15.5757C6.23253 15.6267 6.61621 15.6525 6.999 15.6525C8.463 15.6525 9.82318 15.2781 10.948 14.6392C10.6967 14.6594 10.4436 14.6701 10.1912 14.6701C8.11076 14.6701 6.14541 13.9915 4.65715 12.7593Z" fill="white" style="fill:white;fill-opacity:1;"/>
</svg>
