<svg width="19" height="18" viewBox="0 0 19 18" fill="none" xmlns="http://www.w3.org/2000/svg">
<g clip-path="url(#clip0_740_3174)">
<path d="M18.4998 7.38764C18.4998 3.93829 15.1535 1.13208 11.0405 1.13208C6.92735 1.13208 3.58105 3.93832 3.58105 7.38764C3.58105 10.837 6.92735 13.6432 11.0405 13.6432C11.3863 13.6432 11.7333 13.6232 12.0745 13.5836C13.6587 14.5901 14.8282 15.1409 15.5531 15.2214C15.5783 15.2242 15.6037 15.2256 15.6285 15.2256C15.8613 15.2256 16.0768 15.1096 16.2052 14.915C16.3486 14.6973 16.358 14.4212 16.2302 14.1958C16.2243 14.1851 15.6649 13.1645 15.8263 12.1896C17.5281 10.9986 18.4998 9.25823 18.4998 7.38764ZM9.01464 8.3324C8.40432 8.3324 7.9097 7.83767 7.9097 7.22743C7.9097 6.61717 8.40432 6.12246 9.01464 6.12246C9.62485 6.12246 10.1197 6.6172 10.1197 7.22743C10.1197 7.83767 9.62488 8.3324 9.01464 8.3324ZM13.0664 8.3324C12.456 8.3324 11.9613 7.83767 11.9613 7.22743C11.9613 6.61717 12.456 6.12246 13.0664 6.12246C13.6766 6.12246 14.1714 6.6172 14.1714 7.22743C14.1714 7.83767 13.6766 8.3324 13.0664 8.3324Z" fill="white" style="fill:white;fill-opacity:1;"/>
<path d="M5.15715 12.3926C4.417 11.7797 3.83356 11.0623 3.42326 10.2605C2.99065 9.41502 2.77132 8.51567 2.77132 7.58743C2.77132 6.65917 2.99068 5.75984 3.42326 4.9144C3.45638 4.8497 3.49106 4.78579 3.52638 4.72217C1.69941 5.76887 0.5 7.51581 0.5 9.49061C0.5 11.2648 1.45574 12.9098 3.12541 14.0163C3.43379 15.2287 2.71818 16.5113 2.71062 16.5244C2.66797 16.5996 2.67112 16.6924 2.71871 16.7646C2.76159 16.8297 2.834 16.8682 2.91085 16.8682C2.91935 16.8682 2.92782 16.8677 2.93641 16.8667C3.77176 16.774 5.24279 15.9249 6.35721 15.2091C6.73253 15.26 7.11621 15.2858 7.499 15.2858C8.963 15.2858 10.3232 14.9114 11.448 14.2725C11.1967 14.2927 10.9436 14.3034 10.6912 14.3034C8.61076 14.3034 6.64541 13.6248 5.15715 12.3926Z" fill="white" style="fill:white;fill-opacity:1;"/>
</g>
<defs>
<clipPath id="clip0_740_3174">
<rect width="18" height="18" fill="white" style="fill:white;fill-opacity:1;" transform="translate(0.5)"/>
</clipPath>
</defs>
</svg>
