<svg width="19" height="18" viewBox="0 0 19 18" fill="none" xmlns="http://www.w3.org/2000/svg">
<path d="M15.4625 15.75C13.9 15.75 12.3532 15.4125 10.8222 14.7375C9.29125 14.0625 7.9005 13.1 6.65 11.85C5.3995 10.6 4.437 9.2125 3.7625 7.6875C3.088 6.1625 2.7505 4.6125 2.75 3.0375V2.25H7.175L7.86875 6.01875L5.73125 8.175C6.00625 8.6625 6.3125 9.125 6.65 9.5625C6.9875 10 7.35 10.4062 7.7375 10.7812C8.1 11.1438 8.497 11.4907 8.9285 11.8222C9.36 12.1537 9.8255 12.463 10.325 12.75L12.5 10.575L16.25 11.3438V15.75H15.4625Z" fill="white" style="fill:white;fill-opacity:1;"/>
</svg>
