<svg width="16" height="16" viewBox="0 0 16 16" fill="none" xmlns="http://www.w3.org/2000/svg">
<g clip-path="url(#clip0_120_412)">
<path d="M8.00003 0.888672C4.08892 0.888672 0.888916 4.08867 0.888916 7.99978C0.888916 11.9109 4.08892 15.1109 8.00003 15.1109C11.9111 15.1109 15.1111 11.9109 15.1111 7.99978C15.1111 4.08867 11.9111 0.888672 8.00003 0.888672ZM8.00003 13.6887C4.86403 13.6887 2.31114 11.1358 2.31114 7.99978C2.31114 4.86378 4.86403 2.31089 8.00003 2.31089C11.136 2.31089 13.6889 4.86378 13.6889 7.99978C13.6889 11.1358 11.136 13.6887 8.00003 13.6887ZM11.264 4.85667L6.57781 9.54289L4.73603 7.70823L3.73336 8.71089L6.57781 11.5553L12.2667 5.86645L11.264 4.85667Z" fill="#102880" style="fill:#102880;fill:color(display-p3 0.0627 0.1569 0.5020);fill-opacity:1;"/>
</g>
<defs>
<clipPath id="clip0_120_412">
<rect width="16" height="16" fill="white" style="fill:white;fill-opacity:1;"/>
</clipPath>
</defs>
</svg>
