<svg width="17" height="18" viewBox="0 0 17 18" fill="none" xmlns="http://www.w3.org/2000/svg">
<g clip-path="url(#clip0_1293_5522)">
<path fill-rule="evenodd" clip-rule="evenodd" d="M8.77012 10.8855C8.6997 10.9588 8.6042 11 8.50461 11C8.40503 11 8.30953 10.9588 8.2391 10.8855L6.11465 8.67255C6.07878 8.63647 6.05017 8.5933 6.03049 8.54558C6.01081 8.49785 6.00045 8.44652 6.00001 8.39458C5.99958 8.34264 6.00908 8.29113 6.02797 8.24305C6.04685 8.19498 6.07473 8.1513 6.10999 8.11457C6.14526 8.07785 6.18719 8.0488 6.23334 8.02913C6.27949 8.00946 6.32894 7.99956 6.37881 8.00001C6.42867 8.00047 6.47795 8.01126 6.52377 8.03176C6.56959 8.05226 6.61103 8.08206 6.64567 8.11942L8.50461 10.0558L10.3636 8.11942C10.4344 8.04817 10.5293 8.00874 10.6277 8.00963C10.7262 8.01052 10.8204 8.05166 10.89 8.12419C10.9596 8.19672 10.9991 8.29483 11 8.3974C11.0008 8.49996 10.963 8.59878 10.8946 8.67255L8.77012 10.8855Z" fill="#102880" style="fill:#102880;fill:color(display-p3 0.0627 0.1569 0.5020);fill-opacity:1;"/>
</g>
<defs>
<clipPath id="clip0_1293_5522">
<rect width="17" height="18" fill="white" style="fill:white;fill-opacity:1;"/>
</clipPath>
</defs>
</svg>
