<svg width="78" height="79" viewBox="0 0 78 79" fill="none" xmlns="http://www.w3.org/2000/svg">
<rect x="1.40515" y="0.722168" width="76.0948" height="77.1265" rx="3.5" fill="white" style="fill:white;fill-opacity:1;"/>
<rect x="1.40515" y="0.722168" width="76.0948" height="77.1265" rx="3.5" stroke="white" style="stroke:white;stroke-opacity:1;"/>
<path d="M65.5261 30.8698C65.3643 30.9092 65.2244 31.0119 65.1371 31.1555C65.0497 31.2991 65.0219 31.4719 65.0598 31.6361C65.5191 33.6118 65.7517 35.6347 65.753 37.6645C65.7449 44.5327 63.049 51.1172 58.2566 55.9737C53.4642 60.8303 46.9666 63.5623 40.1891 63.5705C34.6226 63.5903 29.2055 61.7464 24.7794 58.3254C25.3737 57.4275 25.6111 56.3351 25.4441 55.2672C25.2772 54.1993 24.7181 53.2348 23.879 52.567C23.0399 51.8992 21.9828 51.5774 20.9194 51.6661C19.8561 51.7549 18.8651 52.2476 18.1451 53.0455C17.4251 53.8434 17.0293 54.8876 17.037 55.9688C17.0446 57.05 17.4552 58.0883 18.1865 58.8756C18.9177 59.663 19.9156 60.1412 20.98 60.2144C22.0445 60.2877 23.097 59.9505 23.9266 59.2706C28.5868 62.9063 34.3079 64.8683 40.1891 64.8477C44.2408 64.8433 48.239 63.9098 51.8841 62.1172C55.5292 60.3246 58.7268 57.7194 61.2373 54.4966C63.7478 51.2739 65.5061 47.5173 66.3806 43.5082C67.255 39.499 67.2229 35.3414 66.2865 31.3466C66.2678 31.2646 66.2332 31.1871 66.1847 31.1187C66.1363 31.0502 66.0749 30.9922 66.0043 30.9479C65.9336 30.9035 65.855 30.8738 65.7729 30.8604C65.6908 30.847 65.607 30.8502 65.5261 30.8698Z" fill="#4F4F4F" style="fill:#4F4F4F;fill:color(display-p3 0.3083 0.3083 0.3083);fill-opacity:1;"/>
<path d="M14.6253 37.6645C14.6256 33.0564 15.8387 28.5318 18.1395 24.5571C20.4403 20.5824 23.7457 17.3016 27.7147 15.0528C31.6837 12.804 36.1727 11.6687 40.719 11.7639C45.2653 11.8591 49.7042 13.1814 53.5782 15.5944C53.1783 16.4613 53.1143 17.4488 53.3989 18.3612C53.6834 19.2737 54.2957 20.0446 55.1145 20.5212C55.9334 20.9978 56.899 21.1455 57.8201 20.9348C58.7413 20.7242 59.5507 20.1707 60.0882 19.3839C60.6258 18.5971 60.8521 17.6344 60.7224 16.6866C60.5927 15.7387 60.1164 14.8748 59.388 14.2659C58.6595 13.657 57.7319 13.3475 56.789 13.3988C55.8461 13.4501 54.9565 13.8584 54.2966 14.5428C50.2331 11.9972 45.5725 10.5974 40.7965 10.4881C36.0205 10.3788 31.3023 11.564 27.1296 13.9211C22.9568 16.2782 19.4809 19.7218 17.0611 23.8959C14.6412 28.07 13.3652 32.8233 13.365 37.6645C13.3627 39.3239 13.5118 40.9799 13.8103 42.6115C13.8359 42.7585 13.9119 42.8916 14.0249 42.9874C14.1378 43.0832 14.2805 43.1355 14.4278 43.1352C14.466 43.1351 14.504 43.1308 14.5413 43.1224C14.7055 43.0923 14.8513 42.9974 14.9466 42.8586C15.0419 42.7197 15.079 42.5481 15.0496 42.3816C14.7664 40.8256 14.6244 39.2467 14.6253 37.6645Z" fill="#4F4F4F" style="fill:#4F4F4F;fill:color(display-p3 0.3083 0.3083 0.3083);fill-opacity:1;"/>
<path d="M36.408 33.4454V33.8286H43.9701V33.4454C43.9112 28.2685 36.4668 28.2685 36.408 33.4454Z" fill="#4F4F4F" style="fill:#4F4F4F;fill:color(display-p3 0.3083 0.3083 0.3083);fill-opacity:1;"/>
<path d="M57.8129 24.3944C50.7214 24.4667 43.8988 20.0263 41.2899 18.1105C40.9695 17.876 40.5844 17.7498 40.1892 17.7498C39.794 17.7498 39.4088 17.876 39.0885 18.1105C36.4796 20.0263 29.6401 24.4497 22.5654 24.3944C22.3142 24.3918 22.0649 24.4397 21.832 24.5352C21.599 24.6307 21.3871 24.7719 21.2082 24.9508C21.0294 25.1296 20.8872 25.3426 20.7899 25.5774C20.6926 25.8121 20.6421 26.0641 20.6413 26.3187C20.6455 36.1489 22.5864 50.2109 39.3363 58.8023C39.6004 58.9387 39.8927 59.0098 40.1892 59.0098C40.4856 59.0098 40.7779 58.9387 41.042 58.8023C57.7919 50.2109 59.7328 36.1489 59.737 26.3187C59.7332 25.8051 59.5285 25.314 59.1678 24.9532C58.807 24.5924 58.3197 24.3914 57.8129 24.3944ZM47.121 43.8334C47.121 44.6803 46.7891 45.4924 46.1982 46.0912C45.6073 46.69 44.8058 47.0264 43.9702 47.0264H36.4081C35.5725 47.0264 34.771 46.69 34.1802 46.0912C33.5893 45.4924 33.2573 44.6803 33.2573 43.8334V37.0217C33.2576 36.4007 33.4366 35.7932 33.7724 35.2737C34.1082 34.7543 34.5862 34.3453 35.1478 34.0969V33.437C35.2234 26.6039 45.1549 26.6039 45.2305 33.437V34.0969C45.7922 34.3453 46.2701 34.7543 46.6059 35.2737C46.9417 35.7932 47.1207 36.4007 47.121 37.0217V43.8334Z" fill="#4F4F4F" style="fill:#4F4F4F;fill:color(display-p3 0.3083 0.3083 0.3083);fill-opacity:1;"/>
<path d="M41.221 39.6943C41.2117 39.6372 41.2143 39.5787 41.2288 39.5226C41.2433 39.4666 41.2693 39.4142 41.305 39.3691C41.4458 39.1628 41.5281 38.9215 41.5432 38.6713C41.5583 38.421 41.5056 38.1713 41.3907 37.9493C41.2758 37.7272 41.1032 37.5412 40.8915 37.4115C40.6797 37.2817 40.437 37.2131 40.1896 37.2131C39.9422 37.2131 39.6995 37.2817 39.4878 37.4115C39.2761 37.5412 39.1035 37.7272 38.9886 37.9493C38.8737 38.1713 38.8209 38.421 38.836 38.6713C38.8511 38.9215 38.9335 39.1628 39.0742 39.3691C39.1098 39.4138 39.1357 39.4656 39.1502 39.5211C39.1647 39.5766 39.1674 39.6347 39.1583 39.6913C39.0595 40.1899 38.7802 41.6152 38.5831 42.6046C38.5592 42.7281 38.5625 42.8553 38.5928 42.9773C38.6232 43.0992 38.6798 43.2128 38.7587 43.31C38.8375 43.4071 38.9366 43.4853 39.0489 43.539C39.1611 43.5927 39.2837 43.6205 39.4078 43.6205H40.9706C41.095 43.6205 41.2177 43.5926 41.3301 43.5387C41.4425 43.4849 41.5417 43.4064 41.6206 43.309C41.6995 43.2116 41.756 43.0976 41.7861 42.9754C41.8163 42.8531 41.8193 42.7256 41.7949 42.6021L41.221 39.6943Z" fill="#4F4F4F" style="fill:#4F4F4F;fill:color(display-p3 0.3083 0.3083 0.3083);fill-opacity:1;"/>
</svg>
