<svg width="23" height="26" viewBox="0 0 23 26" fill="none" xmlns="http://www.w3.org/2000/svg">
<path d="M22.5 12.2397V6.76055C22.5 6.25221 22.3292 5.74388 21.9875 5.23555C21.6458 4.72999 21.2403 4.3786 20.7708 4.18138L13.8 1.33971C13.0167 1.0286 12.2 0.873047 11.35 0.873047C10.5028 0.873047 9.6875 1.0286 8.90417 1.33971L1.9625 4.18138C1.47362 4.3786 1.06389 4.72999 0.733337 5.23555C0.400004 5.74388 0.233337 6.25221 0.233337 6.76055V12.2397C0.233337 13.7814 0.497227 15.2758 1.025 16.723C1.55278 18.148 2.28056 19.4605 3.20834 20.6605C4.13612 21.8633 5.24445 22.9133 6.53334 23.8105C7.82223 24.6911 9.21806 25.3453 10.7208 25.773C10.9375 25.8314 11.1528 25.8605 11.3667 25.8605C11.5806 25.8605 11.7958 25.8314 12.0125 25.773C13.5153 25.3453 14.9111 24.6911 16.2 23.8105C17.4889 22.9133 18.5972 21.8633 19.525 20.6605C20.4528 19.4605 21.1806 18.148 21.7083 16.723C22.2361 15.2758 22.5 13.7814 22.5 12.2397ZM12.3042 14.4355V17.7189C12.3042 17.9717 12.2111 18.1911 12.025 18.3772C11.8389 18.5633 11.6194 18.6564 11.3667 18.6564C11.1139 18.6564 10.8944 18.5633 10.7083 18.3772C10.5222 18.1911 10.4292 17.9717 10.4292 17.7189V14.4355C9.80417 14.2411 9.28195 13.8744 8.8625 13.3355C8.44306 12.7994 8.23334 12.18 8.23334 11.4772C8.23334 10.6189 8.54028 9.88138 9.15417 9.26471C9.77084 8.65082 10.5083 8.34388 11.3667 8.34388C12.225 8.34388 12.9625 8.65082 13.5792 9.26471C14.1931 9.88138 14.5 10.6189 14.5 11.4772C14.5 12.18 14.2903 12.7994 13.8708 13.3355C13.4514 13.8744 12.9292 14.2411 12.3042 14.4355Z" fill="#4F4F4F" style="fill:#4F4F4F;fill:color(display-p3 0.3083 0.3083 0.3083);fill-opacity:1;"/>
</svg>
