<svg width="10" height="11" viewBox="0 0 10 11" fill="none" xmlns="http://www.w3.org/2000/svg">
<path d="M9.85348 9.51321C9.89993 9.55966 9.93678 9.61481 9.96192 9.6755C9.98706 9.73619 10 9.80124 10 9.86694C10 9.93263 9.98706 9.99768 9.96192 10.0584C9.93678 10.1191 9.89993 10.1742 9.85348 10.2207C9.80703 10.2671 9.75188 10.304 9.69119 10.3291C9.63049 10.3542 9.56544 10.3672 9.49975 10.3672C9.43406 10.3672 9.36901 10.3542 9.30831 10.3291C9.24762 10.304 9.19247 10.2671 9.14602 10.2207L5 6.07402L0.85398 10.2207C0.760165 10.3145 0.632925 10.3672 0.50025 10.3672C0.367576 10.3672 0.240335 10.3145 0.14652 10.2207C0.0527047 10.1269 2.61533e-09 9.99961 0 9.86694C-2.61533e-09 9.73426 0.0527047 9.60702 0.14652 9.51321L4.29316 5.36719L0.14652 1.22117C0.0527047 1.12735 -9.88503e-10 1.00011 0 0.867438C9.88503e-10 0.734763 0.0527047 0.607522 0.14652 0.513707C0.240335 0.419892 0.367576 0.367188 0.50025 0.367188C0.632925 0.367187 0.760165 0.419892 0.85398 0.513707L5 4.66035L9.14602 0.513707C9.23983 0.419892 9.36707 0.367187 9.49975 0.367188C9.63242 0.367188 9.75966 0.419892 9.85348 0.513707C9.9473 0.607522 10 0.734763 10 0.867438C10 1.00011 9.9473 1.12735 9.85348 1.22117L5.70684 5.36719L9.85348 9.51321Z" fill="#102880" style="fill:#102880;fill:color(display-p3 0.0627 0.1569 0.5020);fill-opacity:1;"/>
</svg>
