<svg width="10" height="9" viewBox="0 0 10 9" fill="none" xmlns="http://www.w3.org/2000/svg">
<path d="M5.02629 5.13146L4.9926 5.0966L4.9589 5.13146L1.46602 8.74391C1.39565 8.81668 1.30054 8.85726 1.20172 8.85726C1.10289 8.85726 1.00778 8.81668 0.937407 8.74391C0.86698 8.67108 0.827148 8.57198 0.827148 8.46833C0.827148 8.36468 0.86698 8.26558 0.937408 8.19276L4.43081 4.58085L4.46232 4.54826L4.43081 4.51567L0.937407 0.903764C0.86698 0.830937 0.827148 0.731837 0.827148 0.628189C0.827148 0.52454 0.86698 0.42544 0.937407 0.352613C1.00778 0.279839 1.10289 0.239258 1.20172 0.239258C1.30054 0.239258 1.39565 0.279838 1.46602 0.352611C1.46602 0.352611 1.46602 0.352612 1.46603 0.352613L4.9589 3.96507L4.9926 3.99992L5.02629 3.96507L8.51917 0.352611C8.58954 0.279839 8.68465 0.239258 8.78347 0.239258C8.8823 0.239258 8.97741 0.279839 9.04778 0.352613C9.11821 0.42544 9.15804 0.52454 9.15804 0.628189C9.15804 0.731837 9.11821 0.830937 9.04778 0.903764L5.55439 4.51567L5.52287 4.54826L5.55439 4.58085L9.04778 8.19276C9.08264 8.2288 9.11038 8.27168 9.12932 8.31899C9.14827 8.36629 9.15804 8.41704 9.15804 8.46833C9.15804 8.51962 9.14827 8.57037 9.12932 8.61768C9.11038 8.66498 9.08264 8.70786 9.04778 8.74391C9.01293 8.77995 8.97163 8.80846 8.9263 8.82788C8.88097 8.84729 8.83244 8.85726 8.78347 8.85726C8.73451 8.85726 8.68598 8.84729 8.64065 8.82788C8.59532 8.80846 8.55402 8.77995 8.51917 8.74391L5.02629 5.13146Z" fill="#E7EAF2" stroke="#E7EAF2" style="fill:#E7EAF2;fill:color(display-p3 0.9059 0.9176 0.9490);fill-opacity:1;stroke:#E7EAF2;stroke:color(display-p3 0.9059 0.9176 0.9490);stroke-opacity:1;" stroke-width="0.09375"/>
</svg>
