<svg width="103" height="72" viewBox="0 0 103 72" fill="none" xmlns="http://www.w3.org/2000/svg">
<path d="M92.2251 57.2709H88.5212V70.1348C88.5212 70.5955 88.2577 71.0145 87.8447 71.2081C87.6884 71.2821 87.5196 71.3185 87.3531 71.3185C87.0827 71.3185 86.8147 71.2232 86.6002 71.0394L70.4977 57.2709H11.2746C5.53678 57.2709 0.86779 52.54 0.86779 46.7254V10.84C0.86779 5.02533 5.53678 0.294434 11.2746 0.294434H92.2251C97.963 0.294434 102.632 5.02533 102.632 10.84V46.7254C102.632 52.54 97.963 57.2709 92.2251 57.2709ZM100.296 10.84C100.296 6.33044 96.6751 2.6619 92.2251 2.6619H11.2746C6.82466 2.6619 3.20399 6.33044 3.20399 10.84V46.7254C3.20399 51.2349 6.82466 54.9035 11.2746 54.9035H70.9243C71.2004 54.9035 71.4673 55.0023 71.6772 55.1826L86.185 67.587V56.0872C86.185 55.4335 86.7074 54.9035 87.3531 54.9035H92.2251C96.6751 54.9035 100.296 51.2349 100.296 46.7254V10.84Z" fill="#A2A2A2" style="fill:#A2A2A2;fill:color(display-p3 0.6333 0.6333 0.6333);fill-opacity:1;"/>
</svg>
