<svg width="17" height="17" viewBox="0 0 17 17" fill="none" xmlns="http://www.w3.org/2000/svg">
<g clip-path="url(#clip0_1256_5389)">
<path d="M0.000488281 8.49972C0.000488281 11.8638 1.9556 14.7718 4.79126 16.1493L0.736532 5.04067C0.265065 6.09773 0.000488281 7.2675 0.000488281 8.49972ZM14.2382 8.07098C14.2382 7.02015 13.8608 6.29295 13.5374 5.7269C13.1066 5.02639 12.7028 4.43394 12.7028 3.73337C12.7028 2.95205 13.2949 2.22485 14.1299 2.22485C14.1677 2.22485 14.2036 2.22944 14.24 2.23176C12.728 0.846147 10.713 0 8.5002 0C5.5307 0 2.91837 1.52377 1.3984 3.83084C1.59815 3.83741 1.78617 3.84149 1.94551 3.84149C2.83433 3.84149 4.21105 3.73343 4.21105 3.73343C4.66908 3.70645 4.72292 4.37977 4.26522 4.43394C4.26522 4.43394 3.80458 4.48783 3.29265 4.51452L6.38773 13.7216L8.24792 8.14294L6.92374 4.51446C6.4657 4.48777 6.03237 4.43388 6.03237 4.43388C5.57433 4.40668 5.62788 3.7064 6.0862 3.73337C6.0862 3.73337 7.48961 3.84143 8.32482 3.84143C9.21369 3.84143 10.5904 3.73337 10.5904 3.73337C11.0484 3.7064 11.1026 4.37971 10.6445 4.43388C10.6445 4.43388 10.1834 4.48777 9.67201 4.51446L12.7435 13.6513L13.5914 10.8189C14.0224 9.7142 14.2382 8.79841 14.2382 8.07098ZM8.64958 9.24324L6.09912 16.6538C6.86067 16.8777 7.66607 17 8.5002 17C9.49023 17 10.4396 16.8292 11.3229 16.5182C11.3006 16.4817 11.2794 16.4431 11.2622 16.401L8.64958 9.24324ZM15.9589 4.42215C15.9956 4.69268 16.0162 4.98304 16.0162 5.29607C16.0162 6.15825 15.8545 7.12787 15.3696 8.34037L12.7736 15.8464C15.3008 14.373 16.9999 11.6354 16.9999 8.49977C16.9999 7.02185 16.6221 5.63255 15.9589 4.42215Z" fill="url(#paint0_linear_1256_5389)" style=""/>
</g>
<defs>
<linearGradient id="paint0_linear_1256_5389" x1="17.5349" y1="-2.67483" x2="0.475205" y2="23.003" gradientUnits="userSpaceOnUse">
<stop stop-color="#102880" style="stop-color:#102880;stop-color:color(display-p3 0.0627 0.1569 0.5020);stop-opacity:1;"/>
<stop offset="1" stop-color="#1469CD" style="stop-color:#1469CD;stop-color:color(display-p3 0.0784 0.4118 0.8039);stop-opacity:1;"/>
</linearGradient>
<clipPath id="clip0_1256_5389">
<rect width="17" height="17" fill="white" style="fill:white;fill-opacity:1;"/>
</clipPath>
</defs>
</svg>
