<svg width="15" height="15" viewBox="0 0 15 15" fill="none" xmlns="http://www.w3.org/2000/svg">
<g clip-path="url(#clip0_1256_5969)">
<path d="M0.1091 7.54728C0.1091 10.4718 1.80874 12.9998 4.27387 14.1973L0.748966 4.54022C0.339105 5.45915 0.1091 6.47607 0.1091 7.54728ZM12.4864 7.17456C12.4864 6.26104 12.1583 5.62886 11.8772 5.13678C11.5027 4.5278 11.1516 4.01277 11.1516 3.40374C11.1516 2.72451 11.6663 2.09233 12.3922 2.09233C12.4251 2.09233 12.4563 2.09632 12.4879 2.09834C11.1735 0.893785 9.42181 0.158203 7.49817 0.158203C4.91669 0.158203 2.64571 1.48286 1.32435 3.48847C1.498 3.49419 1.66145 3.49773 1.79997 3.49773C2.57265 3.49773 3.76947 3.40379 3.76947 3.40379C4.16766 3.38034 4.21446 3.96567 3.81657 4.01277C3.81657 4.01277 3.41612 4.05962 2.97108 4.08282L5.66173 12.0868L7.27886 7.23712L6.1277 4.08277C5.72952 4.05957 5.35281 4.01272 5.35281 4.01272C4.95462 3.98907 5.00117 3.38029 5.39961 3.40374C5.39961 3.40374 6.61963 3.49768 7.34571 3.49768C8.11843 3.49768 9.31521 3.40374 9.31521 3.40374C9.71339 3.38029 9.76049 3.96562 9.3623 4.01272C9.3623 4.01272 8.96141 4.05957 8.51687 4.08277L11.187 12.0257L11.9241 9.56338C12.2988 8.60306 12.4864 7.80694 12.4864 7.17456ZM7.62803 8.19365L5.41084 14.6359C6.07287 14.8305 6.77304 14.9368 7.49817 14.9368C8.35883 14.9368 9.18412 14.7883 9.95207 14.518C9.93261 14.4863 9.91419 14.4527 9.89926 14.4161L7.62803 8.19365ZM13.9823 4.00252C14.0141 4.2377 14.0321 4.49012 14.0321 4.76224C14.0321 5.51177 13.8915 6.35469 13.4699 7.40875L11.2131 13.934C13.4101 12.6531 14.8872 10.2732 14.8872 7.54733C14.8872 6.26252 14.5588 5.05476 13.9823 4.00252Z" fill="url(#paint0_linear_1256_5969)" style=""/>
</g>
<defs>
<linearGradient id="paint0_linear_1256_5969" x1="15.3523" y1="-2.16711" x2="0.521787" y2="20.1554" gradientUnits="userSpaceOnUse">
<stop stop-color="#102880" style="stop-color:#102880;stop-color:color(display-p3 0.0627 0.1569 0.5020);stop-opacity:1;"/>
<stop offset="1" stop-color="#1469CD" style="stop-color:#1469CD;stop-color:color(display-p3 0.0784 0.4118 0.8039);stop-opacity:1;"/>
</linearGradient>
<clipPath id="clip0_1256_5969">
<rect width="14.7786" height="14.7786" fill="white" style="fill:white;fill-opacity:1;" transform="translate(0.108582 0.158203)"/>
</clipPath>
</defs>
</svg>
