<svg width="16" height="16" viewBox="0 0 16 16" fill="none" xmlns="http://www.w3.org/2000/svg">
<g clip-path="url(#clip0_1256_6070)">
<path d="M0.414307 8.28875C0.414307 11.2588 2.1404 13.8261 4.6439 15.0422L1.06413 5.23489C0.647891 6.16812 0.414307 7.20087 0.414307 8.28875ZM12.9843 7.91023C12.9843 6.98249 12.651 6.34047 12.3656 5.84073C11.9852 5.22228 11.6287 4.69923 11.6287 4.08072C11.6287 3.39092 12.1514 2.7489 12.8886 2.7489C12.922 2.7489 12.9537 2.75295 12.9858 2.755C11.6509 1.5317 9.87196 0.784668 7.91838 0.784668C5.29672 0.784668 2.99039 2.12994 1.64847 4.16677C1.82482 4.17257 1.99082 4.17617 2.1315 4.17617C2.9162 4.17617 4.13165 4.08077 4.13165 4.08077C4.53603 4.05696 4.58356 4.6514 4.17948 4.69923C4.17948 4.69923 3.77279 4.7468 3.32083 4.77037L6.05336 12.899L7.69566 7.97377L6.52658 4.77032C6.1222 4.74675 5.73963 4.69918 5.73963 4.69918C5.33525 4.67516 5.38252 4.05691 5.78716 4.08072C5.78716 4.08072 7.02617 4.17612 7.76355 4.17612C8.5483 4.17612 9.7637 4.08072 9.7637 4.08072C10.1681 4.05691 10.2159 4.65135 9.81153 4.69918C9.81153 4.69918 9.40439 4.74675 8.95293 4.77032L11.6646 12.8369L12.4132 10.3362C12.7937 9.36097 12.9843 8.55245 12.9843 7.91023ZM8.05026 8.94518L5.79856 15.4877C6.4709 15.6853 7.18196 15.7933 7.91838 15.7933C8.79244 15.7933 9.63057 15.6425 10.4105 15.3679C10.3907 15.3358 10.372 15.3017 10.3568 15.2645L8.05026 8.94518ZM14.5034 4.68882C14.5358 4.92766 14.554 5.18401 14.554 5.46037C14.554 6.22155 14.4112 7.0776 13.9831 8.14807L11.6912 14.7748C13.9223 13.4741 15.4225 11.0571 15.4225 8.2888C15.4225 6.98399 15.0889 5.75744 14.5034 4.68882Z" fill="url(#paint0_linear_1256_6070)" style=""/>
</g>
<defs>
<linearGradient id="paint0_linear_1256_6070" x1="15.8947" y1="-1.57683" x2="0.833416" y2="21.0931" gradientUnits="userSpaceOnUse">
<stop stop-color="#102880" style="stop-color:#102880;stop-color:color(display-p3 0.0627 0.1569 0.5020);stop-opacity:1;"/>
<stop offset="1" stop-color="#1469CD" style="stop-color:#1469CD;stop-color:color(display-p3 0.0784 0.4118 0.8039);stop-opacity:1;"/>
</linearGradient>
<clipPath id="clip0_1256_6070">
<rect width="15.0087" height="15.0087" fill="white" style="fill:white;fill-opacity:1;" transform="translate(0.413788 0.784668)"/>
</clipPath>
</defs>
</svg>
